<svg xmlns="http://www.w3.org/2000/svg" xmlns:xlink="http://www.w3.org/1999/xlink" viewBox="0 0 35 35"><defs><style>.cls-1{fill:none;stroke:#737373;stroke-miterlimit:10;stroke-width:2.14px;}.cls-2{fill:#737373;}</style><symbol id="fb-icon-everyone" data-name="fb-icon-everyone" viewBox="0 0 34.66 34.66"><circle class="cls-1" cx="17.33" cy="17.33" r="16.26"/><path class="cls-2" d="M25.79,3.46a8.76,8.76,0,0,0-.72.84,2.19,2.19,0,0,1-.38.43c-1.14,1-2.77.21-3.12.86-.19.35.25.62.07,1.47,0,.2-.11.42,0,.57s.38.13.56.12a7.46,7.46,0,0,1,1.49.11,6.23,6.23,0,0,0-1,1,4.31,4.31,0,0,0-.8,1.37,3.5,3.5,0,0,0-.13,1.47,4.15,4.15,0,0,0-1.43.61,2.79,2.79,0,0,0-.44.4,1.88,1.88,0,0,0-.49.9c0,.24-.09.51-.28.6-.38.17-.9-.61-1.27-.47s-.31,1.07-.3,1.4c.09,3-1.68,5.79-1.13,6.08.11.06.27,0,.74.1l.39.12c0,.16.07.33.1.45.08.35.84,3.27,2.74,4,1.5.54,2.49-.73,3.81-.75a2.05,2.05,0,0,1,.58.09,5.06,5.06,0,0,0-.56.93c-.13.33-.32.78-.15.95s.93-.26,1.21,0-.07.84.1.93.55-.35.78-.63.37-.44.58-.74a14.31,14.31,0,0,1,1.67,2.61A16.23,16.23,0,0,0,25.79,3.46ZM23,11.14a2.05,2.05,0,0,1-.41.3,1.43,1.43,0,0,1-.46.17A3.07,3.07,0,0,1,22.62,10,3,3,0,0,1,24,8.94,5.37,5.37,0,0,1,23,11.14Z"/><path class="cls-2" d="M22.43,28c-.15-.45.54-1,.42-1.12s-1.49,1.13-2.68.81c-.55-.15-.89-.54-1.44-1.19-.38-.45-.3-.5-.59-.79-.79-.77-1.72-.71-1.74-1s.67-.31.74-.67c.12-.55-1.21-1.47-2.66-1.77a17.77,17.77,0,0,0-1.83-.09c-1.85-.19-2.17-.68-3.14-.44-.79.2-.85.58-1.57.61a2.8,2.8,0,0,1-1.77-.63,8.27,8.27,0,0,1-2.42-2.86,4.21,4.21,0,0,0-2.67-1.71c0,.07,0,.13,0,.2A16.26,16.26,0,0,0,17.33,33.59a16.06,16.06,0,0,0,5-.8c-.06-.89-.51-1.66,0-2.51s1.58-1.1,1.49-1.49S22.6,28.53,22.43,28Z"/></symbol></defs><title>fb-icon-everyone</title><g id="Layer_1" data-name="Layer 1"><use width="34.67" height="34.67" transform="translate(0.17 0.17)" xlink:href="#fb-icon-everyone"/></g></svg>
