<svg xmlns="http://www.w3.org/2000/svg" viewBox="0 0 60 60"><defs><style>.cls-1{fill:none;stroke:#5e6771;stroke-linecap:round;stroke-linejoin:round;stroke-width:3.89px;}</style></defs><title>fb-like</title><g id="Layer_1" data-name="Layer 1"><rect class="cls-1" x="7.91" y="26.49" width="12.13" height="28.4"/><path class="cls-1" d="M20.34,29.49l4.45-5.71A12.61,12.61,0,0,0,27.48,16c0-.08,0-.16,0-.24,0-4.24,0-4.2,0-6.51a3.85,3.85,0,0,1,4.68-4,3.23,3.23,0,0,1,.51.14c4.87,1.62,5.94,9.23,5.76,14.29a2,2,0,0,0,2,2.08c1.4,0,2.81,0,4.22,0a7.33,7.33,0,0,1,7.42,7.2c0,1.41,0,2.68,0,3.8-.06,5,.1,4.25-.24,7.22-.45,4-2.86,7.44-5.23,10l-.24.25a7.9,7.9,0,0,1-5,2.24c-2.58.21-5.34.33-8.25.33a52,52,0,0,1-6.26-.33,7.22,7.22,0,0,1-6.51-7.18Z"/></g></svg>