<svg xmlns="https://www.w3.org/2000/svg" xmlns:xlink="https://www.w3.org/1999/xlink" viewBox="0 0 153 56"><defs><style>.Anon-3338,.Anon-3339{stroke:#fff;stroke-miterlimit:10;stroke-width:3px;}.Anon-3338{fill:url(#linear-gradient);}.cls-1,.cls-7{fill:#fff;}.cls-1{fill-rule:evenodd;}.cls-2{fill:url(#linear-gradient-2);}.Anon-3339{fill:url(#radial-gradient);}.cls-3{fill:#263757;}.cls-4{fill:url(#linear-gradient-3);}.cls-5{fill:url(#linear-gradient-4);}.cls-6{fill:url(#linear-gradient-5);}</style><linearGradient id="linear-gradient" x1="124.81" y1="1.63" x2="124.81" y2="54.37" gradientUnits="userSpaceOnUse"><stop offset="0" stop-color="#ff5780"/><stop offset="0.05" stop-color="#ff5780"/><stop offset="0.93" stop-color="#ff0026"/><stop offset="1" stop-color="#ff0026"/></linearGradient><linearGradient id="linear-gradient-2" x1="75.75" y1="54.37" x2="75.75" y2="1.63" gradientUnits="userSpaceOnUse"><stop offset="0" stop-color="#ff9600"/><stop offset="0.08" stop-color="#ff9600"/><stop offset="0.9" stop-color="#ffe958"/><stop offset="1" stop-color="#ffe958"/></linearGradient><radialGradient id="radial-gradient" cx="75.75" cy="28" r="26.37" gradientUnits="userSpaceOnUse"><stop offset="0.81" stop-color="#ed3700" stop-opacity="0"/><stop offset="1" stop-color="#ed3700" stop-opacity="0.15"/></radialGradient><linearGradient id="linear-gradient-3" x1="75.75" y1="24.78" x2="75.75" y2="47.34" gradientUnits="userSpaceOnUse"><stop offset="0" stop-color="#4e2010"/><stop offset="0.77" stop-color="#8f3000"/><stop offset="1" stop-color="#8f3000"/></linearGradient><linearGradient id="linear-gradient-4" x1="75.76" y1="38.55" x2="75.76" y2="47.34" gradientUnits="userSpaceOnUse"><stop offset="0" stop-color="#ff5780"/><stop offset="0.77" stop-color="#ee001d"/><stop offset="1" stop-color="#ee001d"/></linearGradient><linearGradient id="linear-gradient-5" x1="26.69" y1="3.13" x2="26.69" y2="52.87" gradientUnits="userSpaceOnUse"><stop offset="0" stop-color="#00b0ff"/><stop offset="0.05" stop-color="#00b0ff"/><stop offset="1" stop-color="#0063ff"/></linearGradient></defs><title>fb-reacts</title><g id="Layer_1" data-name="Layer 1"><circle class="Anon-3338" cx="124.81" cy="28" r="26.37"/><path class="cls-1" d="M132.41,16.13c-6.76,0-7.6,5.41-7.6,5.41s-.85-5.41-7.61-5.41c-6.5,0-8.4,6.59-7.6,10.11,2.09,9.3,15.21,15.82,15.21,15.82S137.93,35.54,140,26.24c.79-3.52-1.1-10.11-7.61-10.11"/><circle class="cls-2" cx="75.75" cy="28" r="26.37"/><circle class="Anon-3339" cx="75.75" cy="28" r="26.37"/><path class="cls-3" d="M69.73,15.39a31.69,31.69,0,0,0-5.44-3.07c-1.65-.74-3.34-1.14-3.78-.08-.2.47-.37,1.34,1.13,2a24.37,24.37,0,0,1,4.61,2.55,21.59,21.59,0,0,0-6.69,2c-1.23.7-1.21,1.47-1,2a1.21,1.21,0,0,0,1.15.79,3,3,0,0,0,1.16-.29,25,25,0,0,1,8.79-2A1.42,1.42,0,0,0,71.17,18c.33-1.1-.51-2-1.44-2.62"/><path class="cls-3" d="M81.77,15.39a32.17,32.17,0,0,1,5.45-3.07c1.64-.74,3.33-1.14,3.77-.08.2.47.37,1.34-1.13,2a24.68,24.68,0,0,0-4.61,2.55,21.57,21.57,0,0,1,6.7,2c1.22.7,1.2,1.47,1,2a1.2,1.2,0,0,1-1.14.79,3.05,3.05,0,0,1-1.17-.29,24.91,24.91,0,0,0-8.78-2A1.42,1.42,0,0,1,80.34,18c-.33-1.1.51-2,1.43-2.62"/><path class="cls-4" d="M58.17,28c0,6.49,3.54,19.31,17.58,19.31S93.33,34.52,93.33,28c0-.52-5.66-3.25-17.58-3.25S58.17,27.51,58.17,28"/><path class="cls-5" d="M63.72,42.64c2.69,2.76,6.57,4.7,12,4.7s9.36-2,12-4.72c-2-1.78-5.63-4.07-12-4.07s-10.1,2.3-12.07,4.09"/><circle class="cls-6" cx="26.69" cy="28" r="24.87"/><path class="cls-7" d="M26.69,4.63A23.37,23.37,0,1,1,3.32,28,23.39,23.39,0,0,1,26.69,4.63m0-3A26.37,26.37,0,1,0,53.06,28,26.37,26.37,0,0,0,26.69,1.63Z"/><path class="cls-7" d="M42.07,29.2A2.51,2.51,0,0,0,41,26.79a5,5,0,0,0,1-2.38c0-2.33-2.18-3-5.56-3a28.72,28.72,0,0,0-6,.7c.18-1,1.5-3.9,1.5-4.87,0-2-.48-4.51-2.33-5.5A3.25,3.25,0,0,0,28,11.3a2.8,2.8,0,0,0-2,.71,1.84,1.84,0,0,0-.19,1l.34,3.8c0,3-4.66,6.78-4.66,11.18v9.13c0,1.63,2.18,2.78,5.32,2.78H35.4c2.26,0,2.78-.4,3.36-1.46a2.09,2.09,0,0,0,0-2.21,3.42,3.42,0,0,0,2.13-2.46,2.92,2.92,0,0,0-.28-2,2.6,2.6,0,0,0,1.5-2.58M13.76,24h2.71a2.3,2.3,0,0,1,2.31,2.3V38.88a2.31,2.31,0,0,1-2.31,2.31H13.76a2.31,2.31,0,0,1-2.3-2.31V26.25a2.3,2.3,0,0,1,2.3-2.3"/></g></svg>