<?xml version="1.0" encoding="UTF-8"?>
<svg id="Layer_1" data-name="Layer 1" xmlns="http://www.w3.org/2000/svg" viewBox="0 0 110 92">
  <defs>
    <style>
      .cls-1 {
        fill: #8770ce;
        stroke-width: 0px;
      }
    </style>
  </defs>
  <path class="cls-1" d="M30.14,64.68c-8.5,0-17,0-25.5,0-1.81,0-3.32-.57-4.15-2.27-.3-.61-.46-1.35-.47-2.03C0,51.57,0,40.46,0,31.64c0-2.53,1.64-4.18,4.21-4.32.18-.01.37,0,.55,0,16.92,0,33.85,0,50.77,0,1.83,0,3.39.51,4.24,2.24.31.63.48,1.4.48,2.11.03,8.79.03,19.87.02,28.66,0,2.66-1.73,4.35-4.49,4.36-4.47.02-8.95,0-13.42,0-4.08,0-8.16,0-12.24,0ZM52.71,30.24H6.51v31.55h46.2v-31.55ZM58.23,46c0-1.12-.92-2.04-2.04-2.03-1.08.01-1.98.91-2.01,2-.02,1.1.91,2.06,2.01,2.07,1.12,0,2.04-.91,2.03-2.03ZM2.97,45.92c0,1.36-.02,2.72.02,4.08,0,.26.29.5.45.75.16-.25.46-.5.47-.75.03-2.67.03-5.33,0-8,0-.25-.3-.5-.47-.75-.16.25-.44.49-.45.75-.05,1.31-.02,2.61-.02,3.92Z"/>
  <g>
    <path class="cls-1" d="M26.96,39.62c0,.09,0,.18,0,.26-.02.93-.23,1.98-1.05,2.52-.51.33-1.02.65-1.52,1-.09.06-.17.24-.15.35.48,2.92,1.94,5.22,4.42,6.85.18.12.3.12.48,0,.44-.31.9-.59,1.35-.88.79-.52,1.6-.6,2.45-.17.7.35,1.41.69,2.09,1.09.7.41.92,1.02.63,1.79-.22.59-.48,1.16-.79,1.71-.39.69-1.06,1-1.82,1.14-.87.16-1.73.04-2.56-.22-5.34-1.66-8.54-5.24-9.57-10.73-.31-1.65-.21-3.31.18-4.94.24-1.01.71-1.9,1.65-2.43.24-.14.52-.25.79-.26.67-.04,1.34-.04,2.01,0,1.36.07,1.42,1.83,1.4,2.94Z"/>
    <path class="cls-1" d="M38.4,44.85c0,.13,0,.27,0,.4-.03.5-.38.86-.85.87-.5,0-.88-.33-.9-.85-.03-1.12-.29-2.17-.84-3.15-.78-1.39-1.92-2.35-3.39-2.94-.22-.09-.44-.24-.59-.42-.23-.29-.19-.71.04-1,.23-.3.6-.41,1-.27,1.77.62,3.16,1.73,4.18,3.29.81,1.23,1.26,2.6,1.35,4.08Z"/>
    <path class="cls-1" d="M34.33,45.14c.02.57-.33,1-.83,1.03-.51.02-.88-.35-.93-.93-.08-1.05-.59-1.81-1.58-2.22-.33-.14-.58-.35-.65-.71-.13-.67.5-1.19,1.17-.98,1.58.51,2.76,2.12,2.82,3.82Z"/>
  </g>
</svg>