<svg id="bg" xmlns="https://www.w3.org/2000/svg" xmlns:xlink="https://www.w3.org/1999/xlink" viewBox="0 0 55 55"><defs><style>.cls-1{fill:url(#linear-gradient);}</style><linearGradient id="linear-gradient" y1="27.5" x2="55" y2="27.5" gradientUnits="userSpaceOnUse"><stop offset="0.01" stop-color="#c0375b"/><stop offset="1" stop-color="#e8ae5d"/></linearGradient></defs><title>icon-linked-in</title><path class="cls-1" d="M27.5,55h0A27.5,27.5,0,0,0,55,27.5h0A27.5,27.5,0,0,0,27.5,0h0A27.5,27.5,0,0,0,0,27.5H0A27.5,27.5,0,0,0,27.5,55ZM22.33,37.73H17.49V22.17h4.84Zm7-15.56.22,2.16h.1a5.6,5.6,0,0,1,4.81-2.51C37.61,21.82,40,24,40,28.53v9.2H35.16V29.11c0-2-.7-3.38-2.45-3.38a2.67,2.67,0,0,0-2.49,1.82,3.66,3.66,0,0,0-.16,1.21v9H25.23V27.13c0-1.94-.07-3.56-.13-5Zm-9.36-6.75a2.43,2.43,0,1,1-.06,4.84,2.42,2.42,0,1,1,.06-4.84Z"/></svg>