<svg id="bg" xmlns="https://www.w3.org/2000/svg" xmlns:xlink="https://www.w3.org/1999/xlink" viewBox="0 0 55 55"><defs><style>.cls-1{fill:url(#linear-gradient);}</style><linearGradient id="linear-gradient" y1="27.5" x2="55" y2="27.5" gradientUnits="userSpaceOnUse"><stop offset="0.01" stop-color="#c0375b"/><stop offset="1" stop-color="#e8ae5d"/></linearGradient></defs><title>icon-facebook</title><path class="cls-1" d="M27.5,55h0A27.5,27.5,0,0,0,55,27.5h0A27.5,27.5,0,0,0,27.5,0h0A27.5,27.5,0,0,0,0,27.5H0A27.5,27.5,0,0,0,27.5,55ZM20.08,22.83h3.16V19.19c0-2.61,1.24-6.69,6.69-6.69h4.91V18H31.27a1.34,1.34,0,0,0-1.4,1.53v3.31h5.05l-.58,5.64H29.87V44.41H23.24V28.47H20.08Z"/></svg>