<?xml version="1.0" encoding="UTF-8"?>
<svg id="Layer_1" data-name="Layer 1" xmlns="http://www.w3.org/2000/svg" viewBox="0 0 110 92">
  <defs>
    <style>
      .cls-1 {
        fill-rule: evenodd;
      }

      .cls-1, .cls-2 {
        fill: #8770ce;
        stroke-width: 0px;
      }
    </style>
  </defs>
  <path class="cls-1" d="M24.54,73.35l.72-1.21c1.15-1.94,1.73-2.92,2.64-3.46.92-.54,2.11-.58,4.5-.66,2.24-.07,3.75-.27,5.04-.8,2.71-1.12,4.87-3.28,5.99-5.99.84-2.03.84-4.61.84-9.77v-2.21c0-7.25,0-10.87-1.63-13.53-.91-1.49-2.16-2.74-3.65-3.65-2.66-1.63-6.28-1.63-13.53-1.63h-6.64c-7.25,0-10.87,0-13.53,1.63-1.49.91-2.74,2.16-3.65,3.65-1.63,2.66-1.63,6.28-1.63,13.53v2.21c0,5.16,0,7.73.84,9.77,1.12,2.71,3.28,4.87,5.99,5.99,1.29.53,2.79.73,5.04.8,2.39.08,3.59.11,4.5.66.92.54,1.49,1.51,2.64,3.46l.72,1.21c1.07,1.81,3.74,1.81,4.81,0ZM31.82,52.57c1.53,0,2.77-1.24,2.77-2.77s-1.24-2.77-2.77-2.77-2.77,1.24-2.77,2.77,1.24,2.77,2.77,2.77ZM24.9,49.8c0,1.53-1.24,2.77-2.77,2.77s-2.77-1.24-2.77-2.77,1.24-2.77,2.77-2.77,2.77,1.24,2.77,2.77ZM12.45,52.57c1.53,0,2.77-1.24,2.77-2.77s-1.24-2.77-2.77-2.77-2.77,1.24-2.77,2.77,1.24,2.77,2.77,2.77Z"/>
  <path class="cls-2" d="M37.8,17.3c3.31,0,5.93,0,8.04.2,2.16.21,3.99.64,5.62,1.63,1.68,1.03,3.08,2.44,4.11,4.11,1,1.63,1.43,3.46,1.63,5.62.2,2.11.2,4.74.2,8.04v2.26c0,2.35,0,4.22-.1,5.74-.11,1.55-.33,2.89-.84,4.13-1.26,3.05-3.69,5.47-6.74,6.74-.08.03-.15.06-.23.09-.37.14-.68.26-.96.35.04-1.35.04-2.88.04-4.61v-2.56c0-3.45,0-6.34-.22-8.69-.23-2.46-.74-4.77-2.04-6.89-1.27-2.07-3.01-3.81-5.07-5.08-2.12-1.3-4.43-1.81-6.89-2.04-2.35-.22-5.24-.22-8.69-.22h-7.05c-2.34,0-4.43,0-6.26.07.09-.3.2-.63.34-1.03.23-.68.53-1.32.9-1.93,1.03-1.68,2.44-3.08,4.11-4.11,1.63-1,3.46-1.43,5.62-1.63,2.11-.2,4.74-.2,8.04-.2h6.44Z"/>
</svg>