<?xml version="1.0" encoding="UTF-8"?>
<svg id="Layer_1" data-name="Layer 1" xmlns="http://www.w3.org/2000/svg" viewBox="0 0 55 55">
  <defs>
    <style>
      .cls-1 {
        fill: #8770ce;
        stroke-width: 0px;
      }
    </style>
  </defs>
  <path class="cls-1" d="M27.5,55h0c15.19,0,27.5-12.31,27.5-27.5h0C55,12.31,42.69,0,27.5,0h0C12.31,0,0,12.31,0,27.5h0c0,15.19,12.31,27.5,27.5,27.5ZM22.33,37.73h-4.84v-15.57h4.84v15.57ZM29.3,22.17l.22,2.16h.1c.64-1.02,2.2-2.52,4.81-2.52,3.18,0,5.57,2.13,5.57,6.72v9.2h-4.84v-8.63c0-2.01-.7-3.37-2.45-3.37-1.34,0-2.13.92-2.48,1.81-.13.32-.16.76-.16,1.21v8.98h-4.84v-10.6c0-1.94-.06-3.56-.13-4.97h4.2ZM19.94,15.42c1.56,0,2.52,1.05,2.55,2.42,0,1.34-.99,2.42-2.61,2.42-1.53,0-2.51-1.08-2.51-2.42s1.02-2.42,2.58-2.42Z"/>
</svg>