<?xml version="1.0" encoding="UTF-8"?>
<svg id="Layer_1" data-name="Layer 1" xmlns="http://www.w3.org/2000/svg" viewBox="0 0 110 92">
  <defs>
    <style>
      .cls-1 {
        fill: #8770ce;
        stroke-width: 0px;
      }
    </style>
  </defs>
  <path class="cls-1" d="M45.3,26.68H7.3c-4.03,0-7.3,3.27-7.3,7.3v24.04c0,4.03,3.27,7.3,7.3,7.3h38c4.03,0,7.3-3.27,7.3-7.3v-24.04c0-4.03-3.27-7.3-7.3-7.3ZM26.3,49.44c-1.37,0-2.69-.46-3.73-1.35h0s0,0,0,0c0,0,0,0,0,0l-15.69-13.62c-.72-.62-.79-1.71-.17-2.42.62-.72,1.71-.79,2.42-.17l15.7,13.62c.34.3.89.51,1.48.51.59,0,1.13-.21,1.48-.52h0s15.68-13.62,15.68-13.62c.72-.62,1.8-.55,2.42.17.62.72.55,1.8-.17,2.42l-15.7,13.62c-1.03.89-2.36,1.35-3.73,1.35Z"/>
</svg>