<?xml version="1.0" encoding="UTF-8"?>
<svg id="Layer_1" data-name="Layer 1" xmlns="http://www.w3.org/2000/svg" viewBox="0 0 55 55">
  <defs>
    <style>
      .cls-1 {
        fill: #8770ce;
        stroke-width: 0px;
      }
    </style>
  </defs>
  <path class="cls-1" d="M27.5,55h0c15.19,0,27.5-12.31,27.5-27.5h0C55,12.31,42.69,0,27.5,0h0C12.31,0,0,12.31,0,27.5h0c0,15.19,12.31,27.5,27.5,27.5ZM20.08,22.83h3.15v-3.65c0-2.61,1.24-6.69,6.69-6.69l4.91.02v5.47h-3.57c-.58,0-1.41.29-1.41,1.54v3.31h5.05l-.58,5.64h-4.47v15.95h-6.63v-15.95h-3.15v-5.64Z"/>
</svg>