<svg id="bg" xmlns="http://www.w3.org/2000/svg" xmlns:xlink="http://www.w3.org/1999/xlink" viewBox="0 0 61 106"><defs><style>.cls-1,.cls-2,.cls-3,.cls-4{fill:none;stroke-miterlimit:10;}.cls-1{stroke-width:2.5px;stroke:url(#_ÂÁ_Ï_ÌÌ_È_ËÂÌÚ_179);}.cls-2,.cls-3,.cls-4{stroke-width:5.69px;}.cls-2{stroke:url(#_ÂÁ_Ï_ÌÌ_È_ËÂÌÚ_179-2);}.cls-3{stroke:url(#_ÂÁ_Ï_ÌÌ_È_ËÂÌÚ_179-3);}.cls-4{stroke:url(#_ÂÁ_Ï_ÌÌ_È_ËÂÌÚ_179-4);}</style><linearGradient id="_ÂÁ_Ï_ÌÌ_È_ËÂÌÚ_179" x1="39.36" y1="59.83" x2="49.96" y2="59.83" gradientUnits="userSpaceOnUse"><stop offset="0.01" stop-color="#c0375b"/><stop offset="1" stop-color="#e8ae5d"/></linearGradient><linearGradient id="_ÂÁ_Ï_ÌÌ_È_ËÂÌÚ_179-2" x1="9.3" y1="52.54" x2="60.89" y2="52.54" xlink:href="#_ÂÁ_Ï_ÌÌ_È_ËÂÌÚ_179"/><linearGradient id="_ÂÁ_Ï_ÌÌ_È_ËÂÌÚ_179-3" x1="1.38" y1="29.08" x2="42.17" y2="29.08" xlink:href="#_ÂÁ_Ï_ÌÌ_È_ËÂÌÚ_179"/><linearGradient id="_ÂÁ_Ï_ÌÌ_È_ËÂÌÚ_179-4" x1="0" y1="19.23" x2="35.98" y2="19.23" xlink:href="#_ÂÁ_Ï_ÌÌ_È_ËÂÌÚ_179"/></defs><title>kyra</title><path class="cls-1" d="M40.48,83A78.11,78.11,0,0,0,45,71.85,80.58,80.58,0,0,0,47.92,36.3"/><path class="cls-2" d="M32.69,39.16l24.38-6.5a99.87,99.87,0,0,1-3.63,44,97.57,97.57,0,0,1-10,21.64L12,.87"/><line class="cls-3" x1="2.12" y1="34.33" x2="41.43" y2="23.83"/><line class="cls-4" x1="0.73" y1="23.83" x2="35.25" y2="14.62"/></svg>