<?xml version="1.0" standalone="no"?>
<!DOCTYPE svg PUBLIC "-//W3C//DTD SVG 1.1//EN" "http://www.w3.org/Graphics/SVG/1.1/DTD/svg11.dtd" >
<svg xmlns="https://www.w3.org/2000/svg" xmlns:xlink="https://www.w3.org/1999/xlink" version="1.1">
<metadata>
Created by FontForge 20190801 at Tue Jun  5 17:51:53 2018
 By Jimmy Wärting
(c) 2015-2017 Apple Inc. All rights reserved.
</metadata>
<defs>
<font id="SFProText-Bold" horiz-adv-x="1800" >
  <font-face 
    font-family="SF Pro Text"
    font-weight="700"
    font-stretch="normal"
    units-per-em="2048"
    panose-1="0 0 8 0 0 0 0 0 0 0"
    ascent="1638"
    descent="-410"
    x-height="1102"
    cap-height="1443"
    bbox="-941 -591 2805 2229"
    underline-thickness="197"
    underline-position="-375"
    stemh="251"
    stemv="295"
    unicode-range="U+0020-1F189"
  />
<missing-glyph horiz-adv-x="2048" 
d="M100 -494v198h1848v-198h-1848zM100 -45v198h1848v-198h-1848zM100 404v199h1848v-199h-1848zM100 853v199h1848v-199h-1848zM100 1303v198h1848v-198h-1848zM100 1752v198h1848v-198h-1848z" />
    <glyph glyph-name="uni24B6" unicode="A&#x20dd;" 
d="M824 687h153l-69 240h-15zM751 407h-197l226 693h241l225 -693h-196l-40 135h-220zM900 125c332 0 591 267 591 595s-259 595 -591 595s-590 -267 -590 -595s258 -595 590 -595zM900 -55c-431 0 -775 344 -775 775c0 432 344 776 775 776s775 -344 775 -776
c0 -431 -344 -775 -775 -775z" />
    <glyph glyph-name="uni24B7" unicode="B&#x20dd;" 
d="M631 382v692h343c133 0 216 -64 216 -170c0 -80 -54 -136 -132 -150v-9c98 -11 163 -72 163 -172c0 -115 -99 -191 -240 -191h-350zM817 944v-148h79c74 0 109 27 109 76c0 45 -34 72 -89 72h-99zM817 683v-164h87c85 0 122 29 122 82c0 50 -38 82 -104 82h-105zM900 125
c332 0 591 267 591 595s-259 595 -591 595s-590 -267 -590 -595s258 -595 590 -595zM900 -55c-431 0 -775 344 -775 775c0 432 344 776 775 776s775 -344 775 -776c0 -431 -344 -775 -775 -775z" />
    <glyph glyph-name="uni24B8" unicode="C&#x20dd;" 
d="M1030 636h186c-12 -157 -136 -266 -316 -266c-194 0 -338 135 -338 357c0 223 144 358 338 358c182 0 306 -110 317 -269h-185c-5 60 -60 104 -129 104c-86 0 -143 -71 -143 -193c0 -121 57 -192 143 -192c67 0 122 43 127 101zM900 125c332 0 591 267 591 595
s-259 595 -591 595s-590 -267 -590 -595s258 -595 590 -595zM900 -55c-431 0 -775 344 -775 775c0 432 344 776 775 776s775 -344 775 -776c0 -431 -344 -775 -775 -775z" />
    <glyph glyph-name="uni24B9" unicode="D&#x20dd;" 
d="M630 1074h298c213 0 324 -123 324 -346c0 -222 -111 -346 -324 -346h-298v692zM822 918v-380h74c108 0 155 59 155 189c0 131 -47 191 -155 191h-74zM900 125c332 0 591 267 591 595s-259 595 -591 595s-590 -267 -590 -595s258 -595 590 -595zM900 -55
c-431 0 -775 344 -775 775c0 432 344 776 775 776s775 -344 775 -776c0 -431 -344 -775 -775 -775z" />
    <glyph glyph-name="uni24BA" unicode="E&#x20dd;" 
d="M1158 536v-154h-495v692h495v-154h-306v-123h287v-133h-287v-128h306zM900 125c332 0 591 267 591 595s-259 595 -591 595s-590 -267 -590 -595s258 -595 590 -595zM900 -55c-431 0 -775 344 -775 775c0 432 344 776 775 776s775 -344 775 -776
c0 -431 -344 -775 -775 -775z" />
    <glyph glyph-name="uni24BB" unicode="F&#x20dd;" 
d="M878 382h-198v692h493v-156h-295v-133h268v-156h-268v-247zM900 125c332 0 591 267 591 595s-259 595 -591 595s-590 -267 -590 -595s258 -595 590 -595zM900 -55c-431 0 -775 344 -775 775c0 432 344 776 775 776s775 -344 775 -776c0 -431 -344 -775 -775 -775z" />
    <glyph glyph-name="uni24BC" unicode="G&#x20dd;" 
d="M1033 613v28h-127v125h309v-121c0 -156 -116 -275 -314 -275c-202 0 -339 143 -339 357s137 358 339 358c170 0 297 -97 316 -245h-190c-7 54 -56 91 -123 91c-87 0 -144 -80 -144 -204s58 -208 144 -208c84 0 129 39 129 94zM900 125c332 0 591 267 591 595
s-259 595 -591 595s-590 -267 -590 -595s258 -595 590 -595zM900 -55c-431 0 -775 344 -775 775c0 432 344 776 775 776s775 -344 775 -776c0 -431 -344 -775 -775 -775z" />
    <glyph glyph-name="uni24BD" unicode="H&#x20dd;" 
d="M1210 382h-187v265h-245v-265h-187v692h187v-263h245v263h187v-692zM900 125c332 0 591 267 591 595s-259 595 -591 595s-590 -267 -590 -595s258 -595 590 -595zM900 -55c-431 0 -775 344 -775 775c0 432 344 776 775 776s775 -344 775 -776c0 -431 -344 -775 -775 -775
z" />
    <glyph glyph-name="uni24BE" unicode="I&#x20dd;" 
d="M1007 382h-214v692h214v-692zM900 125c332 0 591 267 591 595s-259 595 -591 595s-590 -267 -590 -595s258 -595 590 -595zM900 -55c-431 0 -775 344 -775 775c0 432 344 776 775 776s775 -344 775 -776c0 -431 -344 -775 -775 -775z" />
    <glyph glyph-name="uni24BF" unicode="J&#x20dd;" 
d="M602 621h194c0 -52 27 -80 74 -80c49 0 73 30 73 89v433h201v-437c0 -167 -103 -267 -270 -267c-171 0 -272 107 -272 262zM900 125c332 0 591 267 591 595s-259 595 -591 595s-590 -267 -590 -595s258 -595 590 -595zM900 -55c-431 0 -775 344 -775 775
c0 432 344 776 775 776s775 -344 775 -776c0 -431 -344 -775 -775 -775z" />
    <glyph glyph-name="uni24C0" unicode="&#x212a;&#x20dd;" 
d="M1234 1074l-229 -314l235 -378h-225l-158 254l-64 -74v-180h-182v692h182v-274h14l214 274h213zM900 125c332 0 591 267 591 595s-259 595 -591 595s-590 -267 -590 -595s258 -595 590 -595zM900 -55c-431 0 -775 344 -775 775c0 432 344 776 775 776s775 -344 775 -776
c0 -431 -344 -775 -775 -775z" />
    <glyph glyph-name="uni24C1" unicode="L&#x20dd;" 
d="M1182 563v-170h-488v692h204v-522h284zM900 125c332 0 591 267 591 595s-259 595 -591 595s-590 -267 -590 -595s258 -595 590 -595zM900 -55c-431 0 -775 344 -775 775c0 432 344 776 775 776s775 -344 775 -776c0 -431 -344 -775 -775 -775z" />
    <glyph glyph-name="uni24C2" unicode="M&#x20dd;" 
d="M698 382h-151v692h190l162 -448h5l162 448h189v-692h-152v420h-15l-140 -381h-96l-139 381h-15v-420zM900 125c332 0 591 267 591 595s-259 595 -591 595s-590 -267 -590 -595s258 -595 590 -595zM900 -55c-431 0 -775 344 -775 775c0 432 344 776 775 776
s775 -344 775 -776c0 -431 -344 -775 -775 -775z" />
    <glyph glyph-name="uni24C3" unicode="N&#x20dd;" 
d="M769 382h-171v692h144l276 -379h14v379h170v-692h-142l-278 384h-13v-384zM900 125c332 0 591 267 591 595s-259 595 -591 595s-590 -267 -590 -595s258 -595 590 -595zM900 -55c-431 0 -775 344 -775 775c0 432 344 776 775 776s775 -344 775 -776
c0 -431 -344 -775 -775 -775z" />
    <glyph glyph-name="uni24C4" unicode="O&#x20dd;" 
d="M900 535c78 0 141 64 141 192c0 130 -63 193 -141 193s-141 -63 -141 -193c0 -128 63 -192 141 -192zM900 370c-190 0 -339 129 -339 357c0 229 149 358 339 358s339 -129 339 -358c0 -228 -149 -357 -339 -357zM900 125c332 0 591 267 591 595s-259 595 -591 595
s-590 -267 -590 -595s258 -595 590 -595zM900 -55c-431 0 -775 344 -775 775c0 432 344 776 775 776s775 -344 775 -776c0 -431 -344 -775 -775 -775z" />
    <glyph glyph-name="uni24C5" unicode="P&#x20dd;" 
d="M972 1074c159 0 258 -103 258 -253c0 -149 -99 -249 -260 -249h-111v-190h-202v692h315zM1035 821c0 66 -34 100 -98 100h-89v-199h89c64 0 98 34 98 99zM900 125c332 0 591 267 591 595s-259 595 -591 595s-590 -267 -590 -595s258 -595 590 -595zM900 -55
c-431 0 -775 344 -775 775c0 432 344 776 775 776s775 -344 775 -776c0 -431 -344 -775 -775 -775z" />
    <glyph glyph-name="uni24C6" unicode="Q&#x20dd;" 
d="M1219 322h-190l-35 60c-29 -8 -61 -12 -94 -12c-190 0 -339 129 -339 357c0 229 149 358 339 358s339 -129 339 -358c0 -121 -42 -214 -111 -275zM900 535c11 0 21 1 31 4l-54 96h110l22 -27c20 29 32 69 32 119c0 130 -63 193 -141 193s-141 -63 -141 -193
c0 -128 63 -192 141 -192zM900 125c332 0 591 267 591 595s-259 595 -591 595s-590 -267 -590 -595s258 -595 590 -595zM900 -55c-431 0 -775 344 -775 775c0 432 344 776 775 776s775 -344 775 -776c0 -431 -344 -775 -775 -775z" />
    <glyph glyph-name="uni24C7" unicode="R&#x20dd;" 
d="M936 1074c175 0 275 -83 275 -225c0 -97 -56 -167 -135 -193l149 -274h-208l-117 238h-93v-238h-183v692h312zM807 754h105c62 0 100 29 100 84c0 56 -37 87 -98 87h-107v-171zM900 125c332 0 591 267 591 595s-259 595 -591 595s-590 -267 -590 -595s258 -595 590 -595z
M900 -55c-431 0 -775 344 -775 775c0 432 344 776 775 776s775 -344 775 -776c0 -431 -344 -775 -775 -775z" />
    <glyph glyph-name="uni24C8" unicode="S&#x20dd;" 
d="M601 585h190c6 -42 50 -69 114 -69c65 0 107 27 107 68c0 33 -26 49 -109 64l-90 16c-129 22 -199 92 -199 199c0 134 114 222 287 222c163 0 276 -82 285 -209h-184c-6 41 -44 66 -101 66c-58 0 -95 -25 -95 -64c0 -31 27 -50 99 -61l97 -17c133 -23 198 -89 198 -199
c0 -141 -118 -230 -302 -230c-179 0 -291 81 -297 214zM900 125c332 0 591 267 591 595s-259 595 -591 595s-590 -267 -590 -595s258 -595 590 -595zM900 -55c-431 0 -775 344 -775 775c0 432 344 776 775 776s775 -344 775 -776c0 -431 -344 -775 -775 -775z" />
    <glyph glyph-name="uni24C9" unicode="T&#x20dd;" 
d="M1002 359h-204v526h-195v167h594v-167h-195v-526zM900 125c332 0 591 267 591 595s-259 595 -591 595s-590 -267 -590 -595s258 -595 590 -595zM900 -55c-431 0 -775 344 -775 775c0 432 344 776 775 776s775 -344 775 -776c0 -431 -344 -775 -775 -775z" />
    <glyph glyph-name="uni24CA" unicode="U&#x20dd;" 
d="M900 512c67 0 111 39 111 104v436h196v-454c0 -144 -121 -251 -307 -251c-185 0 -306 107 -306 251v454h195v-436c0 -65 45 -104 111 -104zM900 125c332 0 591 267 591 595s-259 595 -591 595s-590 -267 -590 -595s258 -595 590 -595zM900 -55c-431 0 -775 344 -775 775
c0 432 344 776 775 776s775 -344 775 -776c0 -431 -344 -775 -775 -775z" />
    <glyph glyph-name="uni24CB" unicode="V&#x20dd;" 
d="M767 354l-213 692h221l120 -496h11l120 496h220l-213 -692h-266zM900 125c332 0 591 267 591 595s-259 595 -591 595s-590 -267 -590 -595s258 -595 590 -595zM900 -55c-431 0 -775 344 -775 775c0 432 344 776 775 776s775 -344 775 -776c0 -431 -344 -775 -775 -775z
" />
    <glyph glyph-name="uni24CC" unicode="W&#x20dd;" 
d="M897 783l-104 -424h-169l-162 693h179l81 -462h9l101 462h137l101 -462h9l81 462h178l-161 -693h-169l-105 424h-6zM900 125c332 0 591 267 591 595s-259 595 -591 595s-590 -267 -590 -595s258 -595 590 -595zM900 -55c-431 0 -775 344 -775 775c0 432 344 776 775 776
s775 -344 775 -776c0 -431 -344 -775 -775 -775z" />
    <glyph glyph-name="uni24CD" unicode="X&#x20dd;" 
d="M1234 1074l-216 -346l215 -346h-212l-120 222h-10l-119 -222h-216l219 347l-218 345h222l117 -222h10l118 222h210zM900 125c332 0 591 267 591 595s-259 595 -591 595s-590 -267 -590 -595s258 -595 590 -595zM900 -55c-431 0 -775 344 -775 775c0 432 344 776 775 776
s775 -344 775 -776c0 -431 -344 -775 -775 -775z" />
    <glyph glyph-name="uni24CE" unicode="Y&#x20dd;" 
d="M1005 366h-209v224l-238 468h220l120 -273h6l120 273h218l-237 -467v-225zM900 125c332 0 591 267 591 595s-259 595 -591 595s-590 -267 -590 -595s258 -595 590 -595zM900 -55c-431 0 -775 344 -775 775c0 432 344 776 775 776s775 -344 775 -776
c0 -431 -344 -775 -775 -775z" />
    <glyph glyph-name="uni24CF" unicode="Z&#x20dd;" 
d="M627 382v130l298 391v10h-297v161h540v-130l-298 -391v-10h309v-161h-552zM900 125c332 0 591 267 591 595s-259 595 -591 595s-590 -267 -590 -595s258 -595 590 -595zM900 -55c-431 0 -775 344 -775 775c0 432 344 776 775 776s775 -344 775 -776
c0 -431 -344 -775 -775 -775z" />
    <glyph glyph-name="uni24EA" unicode="&#x23;&#x20dd;" 
d="M900 529c62 0 103 60 103 198s-41 197 -103 197s-102 -59 -102 -197s40 -198 102 -198zM898 370c-174 0 -290 133 -290 357s116 357 290 357s294 -133 294 -357s-120 -357 -294 -357zM900 125c332 0 591 267 591 595s-259 595 -591 595s-590 -267 -590 -595
s258 -595 590 -595zM900 -55c-431 0 -775 344 -775 775c0 432 344 776 775 776s775 -344 775 -776c0 -431 -344 -775 -775 -775z" />
    <glyph glyph-name="uni2460" unicode="&#x31;&#x20dd;" 
d="M1035 382h-201v510h-10l-157 -106v177l167 111h201v-692zM900 125c332 0 591 267 591 595s-259 595 -591 595s-590 -267 -590 -595s258 -595 590 -595zM900 -55c-431 0 -775 344 -775 775c0 432 344 776 775 776s775 -344 775 -776c0 -431 -344 -775 -775 -775z" />
    <glyph glyph-name="uni2461" unicode="&#x32;&#x20dd;" 
d="M816 845h-186v3c0 134 98 237 272 237c158 0 263 -86 263 -206c0 -79 -50 -139 -131 -215l-121 -114v-8h263v-161h-534v127l249 235c48 46 77 78 77 118c0 39 -31 65 -74 65c-50 0 -79 -33 -78 -78v-3zM900 125c332 0 591 267 591 595s-259 595 -591 595
s-590 -267 -590 -595s258 -595 590 -595zM900 -55c-431 0 -775 344 -775 775c0 432 344 776 775 776s775 -344 775 -776c0 -431 -344 -775 -775 -775z" />
    <glyph glyph-name="uni2462" unicode="&#x33;&#x20dd;" 
d="M825 659v149h70c49 0 84 28 84 69c0 37 -35 62 -84 62c-54 0 -89 -33 -91 -75h-183c5 137 101 221 277 221c165 0 270 -75 272 -185c1 -80 -70 -140 -132 -149v-10c74 -6 149 -65 150 -163c1 -129 -120 -207 -292 -207c-174 0 -281 92 -283 222h183c2 -43 41 -72 99 -73
c60 0 99 29 99 70c-1 41 -37 69 -97 69h-72zM900 125c332 0 591 267 591 595s-259 595 -591 595s-590 -267 -590 -595s258 -595 590 -595zM900 -55c-431 0 -775 344 -775 775c0 432 344 776 775 776s775 -344 775 -776c0 -431 -344 -775 -775 -775z" />
    <glyph glyph-name="uni2463" unicode="&#x34;&#x20dd;" 
d="M824 1074h271v-428h95v-152h-95v-112h-168v112h-346v155c75 145 153 275 243 425zM753 646h174v287h-14c-63 -108 -113 -193 -160 -285v-2zM900 125c332 0 591 267 591 595s-259 595 -591 595s-590 -267 -590 -595s258 -595 590 -595zM900 -55c-431 0 -775 344 -775 775
c0 432 344 776 775 776s775 -344 775 -776c0 -431 -344 -775 -775 -775z" />
    <glyph glyph-name="uni2464" unicode="&#x35;&#x20dd;" 
d="M631 591h185c8 -41 50 -63 95 -63c51 0 97 37 97 95c0 53 -44 90 -98 90c-44 0 -75 -23 -88 -47h-177l27 414h481v-147h-330l-12 -147h9c19 33 74 65 150 65c132 0 229 -83 229 -222c0 -154 -113 -253 -290 -253c-163 0 -275 90 -278 215zM900 125c332 0 591 267 591 595
s-259 595 -591 595s-590 -267 -590 -595s258 -595 590 -595zM900 -55c-431 0 -775 344 -775 775c0 432 344 776 775 776s775 -344 775 -776c0 -431 -344 -775 -775 -775z" />
    <glyph glyph-name="uni2465" unicode="&#x36;&#x20dd;" 
d="M911 370c-181 0 -313 117 -313 357c0 218 120 357 310 357c147 0 267 -85 282 -205h-201c-7 32 -39 55 -80 55c-76 0 -118 -76 -116 -191h10c29 61 90 94 168 94c131 0 228 -93 228 -221c0 -144 -119 -246 -288 -246zM909 521c54 0 92 41 92 92c0 52 -36 91 -92 91
c-55 0 -92 -40 -92 -90c0 -52 39 -93 92 -93zM900 125c332 0 591 267 591 595s-259 595 -591 595s-590 -267 -590 -595s258 -595 590 -595zM900 -55c-431 0 -775 344 -775 775c0 432 344 776 775 776s775 -344 775 -776c0 -431 -344 -775 -775 -775z" />
    <glyph glyph-name="uni2466" unicode="&#x37;&#x20dd;" 
d="M638 1070h543v-162l-274 -531h-213l284 525v7h-340v161zM900 125c332 0 591 267 591 595s-259 595 -591 595s-590 -267 -590 -595s258 -595 590 -595zM900 -55c-431 0 -775 344 -775 775c0 432 344 776 775 776s775 -344 775 -776c0 -431 -344 -775 -775 -775z" />
    <glyph glyph-name="uni2467" unicode="&#x38;&#x20dd;" 
d="M900 506c59 0 102 36 102 86c0 51 -42 88 -102 88c-59 0 -102 -38 -102 -88s43 -86 102 -86zM900 803c49 0 84 31 84 74c0 42 -36 73 -84 73s-84 -31 -84 -73c0 -43 36 -74 84 -74zM899 370c-185 0 -304 80 -304 207c0 88 62 152 156 166v9c-83 24 -127 73 -127 147
c0 112 109 186 276 186s276 -74 276 -186c0 -73 -44 -124 -127 -147v-9c95 -14 156 -78 156 -166c0 -127 -120 -207 -306 -207zM900 125c332 0 591 267 591 595s-259 595 -591 595s-590 -267 -590 -595s258 -595 590 -595zM900 -55c-431 0 -775 344 -775 775
c0 432 344 776 775 776s775 -344 775 -776c0 -431 -344 -775 -775 -775z" />
    <glyph glyph-name="uni2468" unicode="&#x39;&#x20dd;" 
d="M889 370c-146 0 -264 84 -281 202h201c7 -30 42 -51 83 -51c74 0 120 77 113 190h-9c-30 -61 -90 -94 -169 -94c-130 0 -227 93 -227 220c0 145 119 247 288 247c203 0 313 -146 313 -357c0 -219 -121 -357 -312 -357zM890 754c54 0 91 38 91 88c0 51 -37 91 -91 91
c-55 0 -93 -40 -93 -90c0 -52 38 -89 93 -89zM900 125c332 0 591 267 591 595s-259 595 -591 595s-590 -267 -590 -595s258 -595 590 -595zM900 -55c-431 0 -775 344 -775 775c0 432 344 776 775 776s775 -344 775 -776c0 -431 -344 -775 -775 -775z" />
    <glyph glyph-name="plus.uc.whitecircle" unicode="&#x2b;&#x20dd;" 
d="M987 641v-210h-173v210h-206v171h206v207h173v-207h205v-171h-205zM900 125c332 0 591 267 591 595s-259 595 -591 595s-590 -267 -590 -595s258 -595 590 -595zM900 -55c-431 0 -775 344 -775 775c0 432 344 776 775 776s775 -344 775 -776c0 -431 -344 -775 -775 -775z
" />
    <glyph glyph-name="minus.uc.whitecircle" unicode="&#x2212;&#x20dd;" 
d="M1165 636h-530v178h530v-178zM900 125c332 0 591 267 591 595s-259 595 -591 595s-590 -267 -590 -595s258 -595 590 -595zM900 -55c-431 0 -775 344 -775 775c0 432 344 776 775 776s775 -344 775 -776c0 -431 -344 -775 -775 -775z" />
    <glyph glyph-name="multiply.uc.whitecircle" unicode="&#xd7;&#x20dd;" 
d="M900 851l159 155l123 -126l-159 -155l159 -156l-123 -124l-159 155l-160 -155l-121 124l159 156l-160 156l122 125zM900 125c332 0 591 267 591 595s-259 595 -591 595s-590 -267 -590 -595s258 -595 590 -595zM900 -55c-431 0 -775 344 -775 775c0 432 344 776 775 776
s775 -344 775 -776c0 -431 -344 -775 -775 -775z" />
    <glyph glyph-name="divide.uc.whitecircle" unicode="&#xf7;&#x20dd;" 
d="M1165 656h-530v138h530v-138zM803 949c0 53 42 90 97 90c56 0 99 -37 99 -90c0 -50 -43 -87 -99 -87c-55 0 -97 37 -97 87zM803 502c0 52 42 89 97 89c56 0 99 -37 99 -89c0 -51 -43 -88 -99 -88c-55 0 -97 37 -97 88zM900 125c332 0 591 267 591 595s-259 595 -591 595
s-590 -267 -590 -595s258 -595 590 -595zM900 -55c-431 0 -775 344 -775 775c0 432 344 776 775 776s775 -344 775 -776c0 -431 -344 -775 -775 -775z" />
    <glyph glyph-name="equal.uc.whitecircle" unicode="&#x3d;&#x20dd;" 
d="M1173 514h-545v156h545v-156zM1173 779h-545v155h545v-155zM900 125c332 0 591 267 591 595s-259 595 -591 595s-590 -267 -590 -595s258 -595 590 -595zM900 -55c-431 0 -775 344 -775 775c0 432 344 776 775 776s775 -344 775 -776c0 -431 -344 -775 -775 -775z" />
    <glyph glyph-name="greater.uc.whitecircle" unicode="&#x3e;&#x20dd;" 
d="M1187 778v-112l-521 -252v189l284 118v8l-284 114v194zM900 125c332 0 591 267 591 595s-259 595 -591 595s-590 -267 -590 -595s258 -595 590 -595zM900 -55c-431 0 -775 344 -775 775c0 432 344 776 775 776s775 -344 775 -776c0 -431 -344 -775 -775 -775z" />
    <glyph glyph-name="less.uc.whitecircle" unicode="&#x3c;&#x20dd;" 
d="M614 666v112l521 259v-194l-285 -114v-8l285 -118v-189zM900 125c332 0 591 267 591 595s-259 595 -591 595s-590 -267 -590 -595s258 -595 590 -595zM900 -55c-431 0 -775 344 -775 775c0 432 344 776 775 776s775 -344 775 -776c0 -431 -344 -775 -775 -775z" />
    <glyph glyph-name="numbersign.whitecircle" unicode="&#x30;&#x20dd;" 
d="M1194 777h-99l-20 -94h99l-26 -133h-100l-35 -170h-139l35 170h-93l-35 -170h-139l36 170h-97l26 133h97l20 94h-97l25 134h97l33 161h139l-34 -161h94l32 161h139l-32 -161h99zM853 788l-26 -125h119l25 125h-118zM900 125c332 0 591 267 591 595s-259 595 -591 595
s-590 -267 -590 -595s258 -595 590 -595zM900 -55c-431 0 -775 344 -775 775c0 432 344 776 775 776s775 -344 775 -776c0 -431 -344 -775 -775 -775z" />
    <glyph glyph-name="uni25BC.whitecircle" unicode="&#x25bc;&#x20dd;" 
d="M1228 947l-328 -571l-327 571h655zM900 125c332 0 591 267 591 595s-259 595 -591 595s-590 -267 -590 -595s258 -595 590 -595zM900 -55c-431 0 -775 344 -775 775c0 432 344 776 775 776s775 -344 775 -776c0 -431 -344 -775 -775 -775z" />
    <glyph glyph-name="uni25B2.whitecircle" unicode="&#x25b2;&#x20dd;" 
d="M1228 504h-655l327 570zM900 125c332 0 591 267 591 595s-259 595 -591 595s-590 -267 -590 -595s258 -595 590 -595zM900 -55c-431 0 -775 344 -775 775c0 432 344 776 775 776s775 -344 775 -776c0 -431 -344 -775 -775 -775z" />
    <glyph glyph-name="uni25C0.whitecircle" unicode="&#x25c0;&#x20dd;" 
d="M1119 399l-568 329l568 328v-657zM900 125c332 0 591 267 591 595s-259 595 -591 595s-590 -267 -590 -595s258 -595 590 -595zM900 -55c-431 0 -775 344 -775 775c0 432 344 776 775 776s775 -344 775 -776c0 -431 -344 -775 -775 -775z" />
    <glyph glyph-name="uni25B6.whitecircle" unicode="&#x25b6;&#x20dd;" 
d="M682 399v657l568 -328zM900 125c332 0 591 267 591 595s-259 595 -591 595s-590 -267 -590 -595s258 -595 590 -595zM900 -55c-431 0 -775 344 -775 775c0 432 344 776 775 776s775 -344 775 -776c0 -431 -344 -775 -775 -775z" />
    <glyph glyph-name="question.whitecircle" unicode="&#x3f;&#x20dd;" 
d="M777 461c0 57 44 91 115 91c70 0 114 -34 114 -91c0 -55 -43 -90 -114 -90s-115 35 -115 90zM800 605c-2 5 -2 25 -2 31c-2 67 32 114 87 149c56 37 82 58 82 92c0 40 -32 59 -69 59c-44 0 -71 -30 -72 -69h-175c-2 150 111 218 263 218c142 0 249 -73 249 -200
c0 -80 -42 -125 -102 -164c-75 -50 -92 -63 -92 -104v-12h-169zM900 125c332 0 591 267 591 595s-259 595 -591 595s-590 -267 -590 -595s258 -595 590 -595zM900 -55c-431 0 -775 344 -775 775c0 432 344 776 775 776s775 -344 775 -776c0 -431 -344 -775 -775 -775z" />
    <glyph glyph-name="exclam.whitecircle" unicode="&#x21;&#x20dd;" 
d="M789 461c0 57 44 92 115 92s114 -35 114 -92c0 -55 -43 -90 -114 -90s-115 35 -115 90zM798 1074h213l-23 -456h-168zM900 125c332 0 591 267 591 595s-259 595 -591 595s-590 -267 -590 -595s258 -595 590 -595zM900 -55c-431 0 -775 344 -775 775
c0 432 344 776 775 776s775 -344 775 -776c0 -431 -344 -775 -775 -775z" />
    <glyph glyph-name="uni2717.whitecircle" unicode="&#x2717;&#x20dd;" 
d="M904 846l226 222l119 -122l-225 -223l225 -222l-119 -123l-226 221l-227 -222l-119 123l226 223l-225 223l118 123zM900 125c332 0 591 267 591 595s-259 595 -591 595s-590 -267 -590 -595s258 -595 590 -595zM900 -55c-431 0 -775 344 -775 775c0 432 344 776 775 776
s775 -344 775 -776c0 -431 -344 -775 -775 -775z" />
    <glyph glyph-name="uni2713.whitecircle" unicode="&#x2713;&#x20dd;" 
d="M1328 907l-543 -532l-311 308l125 126l188 -187l419 415zM900 125c332 0 591 267 591 595s-259 595 -591 595s-590 -267 -590 -595s258 -595 590 -595zM900 -55c-431 0 -775 344 -775 775c0 432 344 776 775 776s775 -344 775 -776c0 -431 -344 -775 -775 -775z" />
    <glyph glyph-name="uni1F130" unicode="A&#x20de;" 
d="M824 678h153l-69 240h-15zM751 398h-197l226 693h241l225 -693h-196l-40 135h-220zM413 1472h975c144 0 260 -115 260 -257v-986c0 -142 -116 -257 -260 -257h-975c-144 0 -261 115 -261 257v986c0 142 117 257 261 257zM1468 1174c0 71 -59 127 -133 127h-870
c-73 0 -133 -55 -133 -127v-904c0 -70 61 -127 133 -127h870c73 0 133 57 133 127v904z" />
    <glyph glyph-name="uni1F131" unicode="B&#x20de;" 
d="M631 382v692h343c133 0 216 -64 216 -170c0 -80 -54 -136 -132 -150v-9c98 -11 163 -72 163 -172c0 -115 -99 -191 -240 -191h-350zM817 944v-148h79c74 0 109 27 109 76c0 45 -34 72 -89 72h-99zM817 683v-164h87c85 0 122 29 122 82c0 50 -38 82 -104 82h-105z
M413 1472h975c144 0 260 -115 260 -257v-986c0 -142 -116 -257 -260 -257h-975c-144 0 -261 115 -261 257v986c0 142 117 257 261 257zM1468 1174c0 71 -59 127 -133 127h-870c-73 0 -133 -55 -133 -127v-904c0 -70 61 -127 133 -127h870c73 0 133 57 133 127v904z" />
    <glyph glyph-name="uni1F132" unicode="C&#x20de;" 
d="M1030 636h186c-12 -157 -136 -266 -316 -266c-194 0 -338 135 -338 357c0 223 144 358 338 358c182 0 306 -110 317 -269h-185c-5 60 -60 104 -129 104c-86 0 -143 -71 -143 -193c0 -121 57 -192 143 -192c67 0 122 43 127 101zM413 1472h975c144 0 260 -115 260 -257
v-986c0 -142 -116 -257 -260 -257h-975c-144 0 -261 115 -261 257v986c0 142 117 257 261 257zM1468 1174c0 71 -59 127 -133 127h-870c-73 0 -133 -55 -133 -127v-904c0 -70 61 -127 133 -127h870c73 0 133 57 133 127v904z" />
    <glyph glyph-name="uni1F133" unicode="D&#x20de;" 
d="M618 1074h298c214 0 324 -123 324 -346c0 -222 -110 -346 -324 -346h-298v692zM810 918v-380h75c107 0 154 59 154 189c0 131 -47 191 -154 191h-75zM413 1472h975c144 0 260 -115 260 -257v-986c0 -142 -116 -257 -260 -257h-975c-144 0 -261 115 -261 257v986
c0 142 117 257 261 257zM1468 1174c0 71 -59 127 -133 127h-870c-73 0 -133 -55 -133 -127v-904c0 -70 61 -127 133 -127h870c73 0 133 57 133 127v904z" />
    <glyph glyph-name="uni1F134" unicode="E&#x20de;" 
d="M1158 536v-154h-495v692h495v-154h-306v-123h287v-133h-287v-128h306zM413 1472h975c144 0 260 -115 260 -257v-986c0 -142 -116 -257 -260 -257h-975c-144 0 -261 115 -261 257v986c0 142 117 257 261 257zM1468 1174c0 71 -59 127 -133 127h-870
c-73 0 -133 -55 -133 -127v-904c0 -70 61 -127 133 -127h870c73 0 133 57 133 127v904z" />
    <glyph glyph-name="uni1F135" unicode="F&#x20de;" 
d="M878 382h-198v692h493v-156h-295v-133h268v-156h-268v-247zM413 1472h975c144 0 260 -115 260 -257v-986c0 -142 -116 -257 -260 -257h-975c-144 0 -261 115 -261 257v986c0 142 117 257 261 257zM1468 1174c0 71 -59 127 -133 127h-870c-73 0 -133 -55 -133 -127v-904
c0 -70 61 -127 133 -127h870c73 0 133 57 133 127v904z" />
    <glyph glyph-name="uni1F136" unicode="G&#x20de;" 
d="M1033 613v28h-127v125h309v-121c0 -156 -116 -275 -314 -275c-202 0 -339 143 -339 357s137 358 339 358c170 0 297 -97 316 -245h-190c-7 54 -56 91 -123 91c-87 0 -144 -80 -144 -204s58 -208 144 -208c84 0 129 39 129 94zM413 1472h975c144 0 260 -115 260 -257v-986
c0 -142 -116 -257 -260 -257h-975c-144 0 -261 115 -261 257v986c0 142 117 257 261 257zM1468 1174c0 71 -59 127 -133 127h-870c-73 0 -133 -55 -133 -127v-904c0 -70 61 -127 133 -127h870c73 0 133 57 133 127v904z" />
    <glyph glyph-name="uni1F137" unicode="H&#x20de;" 
d="M1210 382h-187v265h-245v-265h-187v692h187v-263h245v263h187v-692zM413 1472h975c144 0 260 -115 260 -257v-986c0 -142 -116 -257 -260 -257h-975c-144 0 -261 115 -261 257v986c0 142 117 257 261 257zM1468 1174c0 71 -59 127 -133 127h-870
c-73 0 -133 -55 -133 -127v-904c0 -70 61 -127 133 -127h870c73 0 133 57 133 127v904z" />
    <glyph glyph-name="uni1F138" unicode="I&#x20de;" 
d="M1007 382h-214v692h214v-692zM413 1472h975c144 0 260 -115 260 -257v-986c0 -142 -116 -257 -260 -257h-975c-144 0 -261 115 -261 257v986c0 142 117 257 261 257zM1468 1174c0 71 -59 127 -133 127h-870c-73 0 -133 -55 -133 -127v-904c0 -70 61 -127 133 -127h870
c73 0 133 57 133 127v904z" />
    <glyph glyph-name="uni1F139" unicode="J&#x20de;" 
d="M602 621h194c0 -52 27 -80 74 -80c49 0 73 30 73 89v433h201v-437c0 -167 -103 -267 -270 -267c-171 0 -272 107 -272 262zM413 1472h975c144 0 260 -115 260 -257v-986c0 -142 -116 -257 -260 -257h-975c-144 0 -261 115 -261 257v986c0 142 117 257 261 257zM1468 1174
c0 71 -59 127 -133 127h-870c-73 0 -133 -55 -133 -127v-904c0 -70 61 -127 133 -127h870c73 0 133 57 133 127v904z" />
    <glyph glyph-name="uni1F13A" unicode="&#x212a;&#x20de;" 
d="M1234 1074l-229 -314l235 -378h-225l-158 254l-64 -74v-180h-182v692h182v-274h14l214 274h213zM413 1472h975c144 0 260 -115 260 -257v-986c0 -142 -116 -257 -260 -257h-975c-144 0 -261 115 -261 257v986c0 142 117 257 261 257zM1468 1174c0 71 -59 127 -133 127
h-870c-73 0 -133 -55 -133 -127v-904c0 -70 61 -127 133 -127h870c73 0 133 57 133 127v904z" />
    <glyph glyph-name="uni1F13B" unicode="L&#x20de;" 
d="M1187 563v-170h-488v692h204v-522h284zM413 1472h975c144 0 260 -115 260 -257v-986c0 -142 -116 -257 -260 -257h-975c-144 0 -261 115 -261 257v986c0 142 117 257 261 257zM1468 1174c0 71 -59 127 -133 127h-870c-73 0 -133 -55 -133 -127v-904
c0 -70 61 -127 133 -127h870c73 0 133 57 133 127v904z" />
    <glyph glyph-name="uni1F13C" unicode="M&#x20de;" 
d="M698 382h-151v692h190l162 -448h5l162 448h189v-692h-152v420h-15l-140 -381h-96l-139 381h-15v-420zM413 1472h975c144 0 260 -115 260 -257v-986c0 -142 -116 -257 -260 -257h-975c-144 0 -261 115 -261 257v986c0 142 117 257 261 257zM1468 1174
c0 71 -59 127 -133 127h-870c-73 0 -133 -55 -133 -127v-904c0 -70 61 -127 133 -127h870c73 0 133 57 133 127v904z" />
    <glyph glyph-name="uni1F13D" unicode="N&#x20de;" 
d="M769 382h-171v692h144l276 -379h14v379h170v-692h-142l-278 384h-13v-384zM413 1472h975c144 0 260 -115 260 -257v-986c0 -142 -116 -257 -260 -257h-975c-144 0 -261 115 -261 257v986c0 142 117 257 261 257zM1468 1174c0 71 -59 127 -133 127h-870
c-73 0 -133 -55 -133 -127v-904c0 -70 61 -127 133 -127h870c73 0 133 57 133 127v904z" />
    <glyph glyph-name="uni1F13E" unicode="O&#x20de;" 
d="M900 535c78 0 141 64 141 192c0 130 -63 193 -141 193s-141 -63 -141 -193c0 -128 63 -192 141 -192zM900 370c-190 0 -339 129 -339 357c0 229 149 358 339 358s339 -129 339 -358c0 -228 -149 -357 -339 -357zM413 1472h975c144 0 260 -115 260 -257v-986
c0 -142 -116 -257 -260 -257h-975c-144 0 -261 115 -261 257v986c0 142 117 257 261 257zM1468 1174c0 71 -59 127 -133 127h-870c-73 0 -133 -55 -133 -127v-904c0 -70 61 -127 133 -127h870c73 0 133 57 133 127v904z" />
    <glyph glyph-name="uni1F13F" unicode="P&#x20de;" 
d="M972 1074c159 0 258 -103 258 -253c0 -149 -99 -249 -260 -249h-111v-190h-202v692h315zM1035 821c0 66 -34 100 -98 100h-89v-199h89c64 0 98 34 98 99zM413 1472h975c144 0 260 -115 260 -257v-986c0 -142 -116 -257 -260 -257h-975c-144 0 -261 115 -261 257v986
c0 142 117 257 261 257zM1468 1174c0 71 -59 127 -133 127h-870c-73 0 -133 -55 -133 -127v-904c0 -70 61 -127 133 -127h870c73 0 133 57 133 127v904z" />
    <glyph glyph-name="uni1F140" unicode="Q&#x20de;" 
d="M1219 322h-190l-35 60c-29 -8 -61 -12 -94 -12c-190 0 -339 129 -339 357c0 229 149 358 339 358s339 -129 339 -358c0 -121 -42 -214 -111 -275zM900 535c11 0 21 1 31 4l-54 96h110l22 -27c20 29 32 69 32 119c0 130 -63 193 -141 193s-141 -63 -141 -193
c0 -128 63 -192 141 -192zM413 1472h975c144 0 260 -115 260 -257v-986c0 -142 -116 -257 -260 -257h-975c-144 0 -261 115 -261 257v986c0 142 117 257 261 257zM1468 1174c0 71 -59 127 -133 127h-870c-73 0 -133 -55 -133 -127v-904c0 -70 61 -127 133 -127h870
c73 0 133 57 133 127v904z" />
    <glyph glyph-name="uni1F141" unicode="R&#x20de;" 
d="M936 1074c175 0 275 -83 275 -225c0 -97 -56 -167 -135 -193l149 -274h-208l-117 238h-93v-238h-183v692h312zM807 754h105c62 0 100 29 100 84c0 56 -37 87 -98 87h-107v-171zM413 1472h975c144 0 260 -115 260 -257v-986c0 -142 -116 -257 -260 -257h-975
c-144 0 -261 115 -261 257v986c0 142 117 257 261 257zM1468 1174c0 71 -59 127 -133 127h-870c-73 0 -133 -55 -133 -127v-904c0 -70 61 -127 133 -127h870c73 0 133 57 133 127v904z" />
    <glyph glyph-name="uni1F142" unicode="S&#x20de;" 
d="M601 585h190c6 -42 50 -69 114 -69c65 0 107 27 107 68c0 33 -26 49 -109 64l-90 16c-129 22 -199 92 -199 199c0 134 114 222 287 222c163 0 276 -82 285 -209h-184c-6 41 -44 66 -101 66c-58 0 -95 -25 -95 -64c0 -31 27 -50 99 -61l97 -17c133 -23 198 -89 198 -199
c0 -141 -118 -230 -302 -230c-179 0 -291 81 -297 214zM413 1472h975c144 0 260 -115 260 -257v-986c0 -142 -116 -257 -260 -257h-975c-144 0 -261 115 -261 257v986c0 142 117 257 261 257zM1468 1174c0 71 -59 127 -133 127h-870c-73 0 -133 -55 -133 -127v-904
c0 -70 61 -127 133 -127h870c73 0 133 57 133 127v904z" />
    <glyph glyph-name="uni1F143" unicode="T&#x20de;" 
d="M1002 368h-204v526h-195v167h594v-167h-195v-526zM413 1472h975c144 0 260 -115 260 -257v-986c0 -142 -116 -257 -260 -257h-975c-144 0 -261 115 -261 257v986c0 142 117 257 261 257zM1468 1174c0 71 -59 127 -133 127h-870c-73 0 -133 -55 -133 -127v-904
c0 -70 61 -127 133 -127h870c73 0 133 57 133 127v904z" />
    <glyph glyph-name="uni1F144" unicode="U&#x20de;" 
d="M900 521c67 0 111 39 111 104v436h196v-454c0 -144 -121 -251 -307 -251c-185 0 -306 107 -306 251v454h195v-436c0 -65 45 -104 111 -104zM413 1472h975c144 0 260 -115 260 -257v-986c0 -142 -116 -257 -260 -257h-975c-144 0 -261 115 -261 257v986
c0 142 117 257 261 257zM1468 1174c0 71 -59 127 -133 127h-870c-73 0 -133 -55 -133 -127v-904c0 -70 61 -127 133 -127h870c73 0 133 57 133 127v904z" />
    <glyph glyph-name="uni1F145" unicode="V&#x20de;" 
d="M767 363l-213 692h221l120 -496h11l120 496h220l-213 -692h-266zM413 1472h975c144 0 260 -115 260 -257v-986c0 -142 -116 -257 -260 -257h-975c-144 0 -261 115 -261 257v986c0 142 117 257 261 257zM1468 1174c0 71 -59 127 -133 127h-870c-73 0 -133 -55 -133 -127
v-904c0 -70 61 -127 133 -127h870c73 0 133 57 133 127v904z" />
    <glyph glyph-name="uni1F146" unicode="W&#x20de;" 
d="M897 792l-104 -424h-169l-162 693h179l81 -462h9l101 462h137l101 -462h9l81 462h178l-161 -693h-169l-105 424h-6zM413 1472h975c144 0 260 -115 260 -257v-986c0 -142 -116 -257 -260 -257h-975c-144 0 -261 115 -261 257v986c0 142 117 257 261 257zM1468 1174
c0 71 -59 127 -133 127h-870c-73 0 -133 -55 -133 -127v-904c0 -70 61 -127 133 -127h870c73 0 133 57 133 127v904z" />
    <glyph glyph-name="uni1F147" unicode="X&#x20de;" 
d="M1234 1074l-216 -346l215 -346h-212l-120 222h-10l-119 -222h-216l219 347l-218 345h222l117 -222h10l118 222h210zM413 1472h975c144 0 260 -115 260 -257v-986c0 -142 -116 -257 -260 -257h-975c-144 0 -261 115 -261 257v986c0 142 117 257 261 257zM1468 1174
c0 71 -59 127 -133 127h-870c-73 0 -133 -55 -133 -127v-904c0 -70 61 -127 133 -127h870c73 0 133 57 133 127v904z" />
    <glyph glyph-name="uni1F148" unicode="Y&#x20de;" 
d="M1005 368h-209v224l-238 469h220l120 -274h6l120 274h218l-237 -468v-225zM413 1472h975c144 0 260 -115 260 -257v-986c0 -142 -116 -257 -260 -257h-975c-144 0 -261 115 -261 257v986c0 142 117 257 261 257zM1468 1174c0 71 -59 127 -133 127h-870
c-73 0 -133 -55 -133 -127v-904c0 -70 61 -127 133 -127h870c73 0 133 57 133 127v904z" />
    <glyph glyph-name="uni1F149" unicode="Z&#x20de;" 
d="M627 382v130l298 391v10h-297v161h540v-130l-298 -391v-10h309v-161h-552zM413 1472h975c144 0 260 -115 260 -257v-986c0 -142 -116 -257 -260 -257h-975c-144 0 -261 115 -261 257v986c0 142 117 257 261 257zM1468 1174c0 71 -59 127 -133 127h-870
c-73 0 -133 -55 -133 -127v-904c0 -70 61 -127 133 -127h870c73 0 133 57 133 127v904z" />
    <glyph glyph-name="zero.whitesquare" unicode="&#x30;&#x20de;" 
d="M900 529c62 0 103 60 103 198s-41 197 -103 197s-102 -59 -102 -197s40 -198 102 -198zM898 370c-174 0 -290 133 -290 357s116 357 290 357s294 -133 294 -357s-120 -357 -294 -357zM413 1472h975c144 0 260 -115 260 -257v-986c0 -142 -116 -257 -260 -257h-975
c-144 0 -261 115 -261 257v986c0 142 117 257 261 257zM1468 1174c0 71 -59 127 -133 127h-870c-73 0 -133 -55 -133 -127v-904c0 -70 61 -127 133 -127h870c73 0 133 57 133 127v904z" />
    <glyph glyph-name="one.whitesquare" unicode="&#x31;&#x20de;" 
d="M1040 382h-201v510h-10l-157 -106v177l167 111h201v-692zM413 1472h975c144 0 260 -115 260 -257v-986c0 -142 -116 -257 -260 -257h-975c-144 0 -261 115 -261 257v986c0 142 117 257 261 257zM1468 1174c0 71 -59 127 -133 127h-870c-73 0 -133 -55 -133 -127v-904
c0 -70 61 -127 133 -127h870c73 0 133 57 133 127v904z" />
    <glyph glyph-name="two.whitesquare" unicode="&#x32;&#x20de;" 
d="M816 845h-186v3c0 134 98 237 272 237c158 0 263 -86 263 -206c0 -79 -50 -139 -131 -215l-121 -114v-8h263v-161h-534v127l249 235c48 46 77 78 77 118c0 39 -31 65 -74 65c-50 0 -79 -33 -78 -78v-3zM413 1472h975c144 0 260 -115 260 -257v-986
c0 -142 -116 -257 -260 -257h-975c-144 0 -261 115 -261 257v986c0 142 117 257 261 257zM1468 1174c0 71 -59 127 -133 127h-870c-73 0 -133 -55 -133 -127v-904c0 -70 61 -127 133 -127h870c73 0 133 57 133 127v904z" />
    <glyph glyph-name="three.whitesquare" unicode="&#x33;&#x20de;" 
d="M825 659v149h70c49 0 84 28 84 69c0 37 -35 62 -84 62c-54 0 -89 -33 -91 -75h-183c5 137 101 221 277 221c165 0 270 -75 272 -185c1 -80 -70 -140 -132 -149v-10c74 -6 149 -65 150 -163c1 -129 -120 -207 -292 -207c-174 0 -281 92 -283 222h183c2 -43 41 -72 99 -73
c60 0 99 29 99 70c-1 41 -37 69 -97 69h-72zM413 1472h975c144 0 260 -115 260 -257v-986c0 -142 -116 -257 -260 -257h-975c-144 0 -261 115 -261 257v986c0 142 117 257 261 257zM1468 1174c0 71 -59 127 -133 127h-870c-73 0 -133 -55 -133 -127v-904
c0 -70 61 -127 133 -127h870c73 0 133 57 133 127v904z" />
    <glyph glyph-name="four.whitesquare" unicode="&#x34;&#x20de;" 
d="M834 1074h271v-428h95v-152h-95v-112h-168v112h-346v155c75 145 153 275 243 425zM763 646h174v287h-14c-63 -108 -113 -193 -160 -285v-2zM413 1472h975c144 0 260 -115 260 -257v-986c0 -142 -116 -257 -260 -257h-975c-144 0 -261 115 -261 257v986
c0 142 117 257 261 257zM1468 1174c0 71 -59 127 -133 127h-870c-73 0 -133 -55 -133 -127v-904c0 -70 61 -127 133 -127h870c73 0 133 57 133 127v904z" />
    <glyph glyph-name="five.whitesquare" unicode="&#x35;&#x20de;" 
d="M631 591h185c8 -41 50 -63 95 -63c51 0 97 37 97 95c0 53 -44 90 -98 90c-44 0 -75 -23 -88 -47h-177l27 414h481v-147h-330l-12 -147h9c19 33 74 65 150 65c132 0 229 -83 229 -222c0 -154 -113 -253 -290 -253c-163 0 -275 90 -278 215zM413 1472h975
c144 0 260 -115 260 -257v-986c0 -142 -116 -257 -260 -257h-975c-144 0 -261 115 -261 257v986c0 142 117 257 261 257zM1468 1174c0 71 -59 127 -133 127h-870c-73 0 -133 -55 -133 -127v-904c0 -70 61 -127 133 -127h870c73 0 133 57 133 127v904z" />
    <glyph glyph-name="six.whitesquare" unicode="&#x36;&#x20de;" 
d="M934 370c-194 0 -334 117 -334 358c0 220 128 359 332 359c157 0 283 -86 299 -205h-201c-9 32 -47 54 -97 54c-89 0 -139 -76 -138 -192h11c32 62 100 95 186 95c143 0 249 -94 249 -222c0 -144 -127 -247 -307 -247zM932 521c64 0 111 41 111 93s-45 92 -111 92
s-111 -41 -111 -91c0 -53 47 -94 111 -94zM413 1472h975c144 0 260 -115 260 -257v-986c0 -142 -116 -257 -260 -257h-975c-144 0 -261 115 -261 257v986c0 142 117 257 261 257zM1468 1174c0 71 -59 127 -133 127h-870c-73 0 -133 -55 -133 -127v-904
c0 -70 61 -127 133 -127h870c73 0 133 57 133 127v904z" />
    <glyph glyph-name="seven.whitesquare" unicode="&#x37;&#x20de;" 
d="M633 1074h543v-162l-274 -530h-213l284 524v8h-340v160zM413 1472h975c144 0 260 -115 260 -257v-986c0 -142 -116 -257 -260 -257h-975c-144 0 -261 115 -261 257v986c0 142 117 257 261 257zM1468 1174c0 71 -59 127 -133 127h-870c-73 0 -133 -55 -133 -127v-904
c0 -70 61 -127 133 -127h870c73 0 133 57 133 127v904z" />
    <glyph glyph-name="eight.whitesquare" unicode="&#x38;&#x20de;" 
d="M900 506c59 0 102 36 102 86c0 51 -42 88 -102 88c-59 0 -102 -38 -102 -88s43 -86 102 -86zM900 803c49 0 84 31 84 74c0 42 -36 73 -84 73s-84 -31 -84 -73c0 -43 36 -74 84 -74zM899 370c-185 0 -304 80 -304 207c0 88 62 152 156 166v9c-83 24 -127 73 -127 147
c0 112 109 186 276 186s276 -74 276 -186c0 -73 -44 -124 -127 -147v-9c95 -14 156 -78 156 -166c0 -127 -120 -207 -306 -207zM413 1472h975c144 0 260 -115 260 -257v-986c0 -142 -116 -257 -260 -257h-975c-144 0 -261 115 -261 257v986c0 142 117 257 261 257z
M1468 1174c0 71 -59 127 -133 127h-870c-73 0 -133 -55 -133 -127v-904c0 -70 61 -127 133 -127h870c73 0 133 57 133 127v904z" />
    <glyph glyph-name="nine.whitesquare" unicode="&#x39;&#x20de;" 
d="M907 370c-155 0 -279 85 -298 203h202c10 -31 50 -52 99 -52c87 0 140 78 135 192h-10c-32 -62 -100 -95 -186 -95c-144 0 -249 94 -249 222c0 144 127 247 307 247c214 0 334 -146 334 -358c0 -220 -128 -359 -334 -359zM909 755c65 0 111 39 111 88
c0 52 -46 93 -111 93s-111 -41 -111 -91c0 -52 46 -90 111 -90zM413 1472h975c144 0 260 -115 260 -257v-986c0 -142 -116 -257 -260 -257h-975c-144 0 -261 115 -261 257v986c0 142 117 257 261 257zM1468 1174c0 71 -59 127 -133 127h-870c-73 0 -133 -55 -133 -127v-904
c0 -70 61 -127 133 -127h870c73 0 133 57 133 127v904z" />
    <glyph glyph-name="plus.uc.whitesquare" unicode="&#x2b;&#x20de;" 
d="M987 641v-210h-173v210h-206v171h206v207h173v-207h205v-171h-205zM413 1472h975c144 0 260 -115 260 -257v-986c0 -142 -116 -257 -260 -257h-975c-144 0 -261 115 -261 257v986c0 142 117 257 261 257zM1468 1174c0 71 -59 127 -133 127h-870c-73 0 -133 -55 -133 -127
v-904c0 -70 61 -127 133 -127h870c73 0 133 57 133 127v904z" />
    <glyph glyph-name="minus.uc.whitesquare" unicode="&#x2212;&#x20de;" 
d="M1165 636h-530v178h530v-178zM413 1472h975c144 0 260 -115 260 -257v-986c0 -142 -116 -257 -260 -257h-975c-144 0 -261 115 -261 257v986c0 142 117 257 261 257zM1468 1174c0 71 -59 127 -133 127h-870c-73 0 -133 -55 -133 -127v-904c0 -70 61 -127 133 -127h870
c73 0 133 57 133 127v904z" />
    <glyph glyph-name="multiply.uc.whitesquare" unicode="&#xd7;&#x20de;" 
d="M900 851l159 156l123 -125l-160 -156l160 -156l-123 -126l-159 156l-160 -156l-122 126l159 156l-159 156l122 125zM413 1472h975c144 0 260 -115 260 -257v-986c0 -142 -116 -257 -260 -257h-975c-144 0 -261 115 -261 257v986c0 142 117 257 261 257zM1468 1174
c0 71 -59 127 -133 127h-870c-73 0 -133 -55 -133 -127v-904c0 -70 61 -127 133 -127h870c73 0 133 57 133 127v904z" />
    <glyph glyph-name="divide.uc.whitesquare" unicode="&#xf7;&#x20de;" 
d="M1165 656h-530v138h530v-138zM803 949c0 53 42 90 97 90c56 0 99 -37 99 -90c0 -50 -43 -87 -99 -87c-55 0 -97 37 -97 87zM803 502c0 52 42 89 97 89c56 0 99 -37 99 -89c0 -51 -43 -88 -99 -88c-55 0 -97 37 -97 88zM413 1472h975c144 0 260 -115 260 -257v-986
c0 -142 -116 -257 -260 -257h-975c-144 0 -261 115 -261 257v986c0 142 117 257 261 257zM1468 1174c0 71 -59 127 -133 127h-870c-73 0 -133 -55 -133 -127v-904c0 -70 61 -127 133 -127h870c73 0 133 57 133 127v904z" />
    <glyph glyph-name="equal.uc.whitesquare" unicode="&#x3d;&#x20de;" 
d="M1173 514h-545v156h545v-156zM1173 779h-545v155h545v-155zM413 1472h975c144 0 260 -115 260 -257v-986c0 -142 -116 -257 -260 -257h-975c-144 0 -261 115 -261 257v986c0 142 117 257 261 257zM1468 1174c0 71 -59 127 -133 127h-870c-73 0 -133 -55 -133 -127v-904
c0 -70 61 -127 133 -127h870c73 0 133 57 133 127v904z" />
    <glyph glyph-name="greater.uc.whitesquare" unicode="&#x3e;&#x20de;" 
d="M1187 778v-112l-521 -252v189l284 118v8l-284 114v194zM413 1472h975c144 0 260 -115 260 -257v-986c0 -142 -116 -257 -260 -257h-975c-144 0 -261 115 -261 257v986c0 142 117 257 261 257zM1468 1174c0 71 -59 127 -133 127h-870c-73 0 -133 -55 -133 -127v-904
c0 -70 61 -127 133 -127h870c73 0 133 57 133 127v904z" />
    <glyph glyph-name="less.uc.whitesquare" unicode="&#x3c;&#x20de;" 
d="M614 666v112l521 259v-194l-285 -114v-8l285 -118v-189zM413 1472h975c144 0 260 -115 260 -257v-986c0 -142 -116 -257 -260 -257h-975c-144 0 -261 115 -261 257v986c0 142 117 257 261 257zM1468 1174c0 71 -59 127 -133 127h-870c-73 0 -133 -55 -133 -127v-904
c0 -70 61 -127 133 -127h870c73 0 133 57 133 127v904z" />
    <glyph glyph-name="numbersign.whitesquare" unicode="&#x23;&#x20de;" 
d="M1194 777h-99l-20 -94h99l-26 -133h-100l-35 -170h-139l35 170h-93l-35 -170h-139l36 170h-97l26 133h97l20 94h-97l25 134h97l33 161h139l-34 -161h94l32 161h139l-32 -161h99zM853 788l-26 -125h119l25 125h-118zM413 1472h975c144 0 260 -115 260 -257v-986
c0 -142 -116 -257 -260 -257h-975c-144 0 -261 115 -261 257v986c0 142 117 257 261 257zM1468 1174c0 71 -59 127 -133 127h-870c-73 0 -133 -55 -133 -127v-904c0 -70 61 -127 133 -127h870c73 0 133 57 133 127v904z" />
    <glyph glyph-name="uni25BC.whitesquare" unicode="&#x25bc;&#x20de;" 
d="M1229 947l-328 -571l-328 571h656zM413 1472h975c144 0 260 -115 260 -257v-986c0 -142 -116 -257 -260 -257h-975c-144 0 -261 115 -261 257v986c0 142 117 257 261 257zM1468 1174c0 71 -59 127 -133 127h-870c-73 0 -133 -55 -133 -127v-904c0 -70 61 -127 133 -127
h870c73 0 133 57 133 127v904z" />
    <glyph glyph-name="uni25B2.whitesquare" unicode="&#x25b2;&#x20de;" 
d="M1228 504h-655l327 570zM413 1472h975c144 0 260 -115 260 -257v-986c0 -142 -116 -257 -260 -257h-975c-144 0 -261 115 -261 257v986c0 142 117 257 261 257zM1468 1174c0 71 -59 127 -133 127h-870c-73 0 -133 -55 -133 -127v-904c0 -70 61 -127 133 -127h870
c73 0 133 57 133 127v904z" />
    <glyph glyph-name="uni25C0.whitesquare" unicode="&#x25c0;&#x20de;" 
d="M1119 399l-568 329l568 328v-657zM413 1472h975c144 0 260 -115 260 -257v-986c0 -142 -116 -257 -260 -257h-975c-144 0 -261 115 -261 257v986c0 142 117 257 261 257zM1468 1174c0 71 -59 127 -133 127h-870c-73 0 -133 -55 -133 -127v-904c0 -70 61 -127 133 -127
h870c73 0 133 57 133 127v904z" />
    <glyph glyph-name="uni25B6.whitesquare" unicode="&#x25b6;&#x20de;" 
d="M682 399v657l568 -328zM413 1472h975c144 0 260 -115 260 -257v-986c0 -142 -116 -257 -260 -257h-975c-144 0 -261 115 -261 257v986c0 142 117 257 261 257zM1468 1174c0 71 -59 127 -133 127h-870c-73 0 -133 -55 -133 -127v-904c0 -70 61 -127 133 -127h870
c73 0 133 57 133 127v904z" />
    <glyph glyph-name="question.whitesquare" unicode="&#x3f;&#x20de;" 
d="M777 461c0 57 44 91 115 91c70 0 114 -34 114 -91c0 -55 -43 -90 -114 -90s-115 35 -115 90zM651 867c-2 150 111 218 263 218c142 0 249 -73 249 -200c0 -80 -42 -125 -102 -164c-75 -50 -92 -63 -92 -104v-12h-169c-2 5 -2 25 -2 31c-2 67 32 114 87 149
c56 37 82 58 82 92c0 40 -32 59 -69 59c-44 0 -71 -30 -72 -69h-175zM413 1472h975c144 0 260 -115 260 -257v-986c0 -142 -116 -257 -260 -257h-975c-144 0 -261 115 -261 257v986c0 142 117 257 261 257zM1468 1174c0 71 -59 127 -133 127h-870c-73 0 -133 -55 -133 -127
v-904c0 -70 61 -127 133 -127h870c73 0 133 57 133 127v904z" />
    <glyph glyph-name="exclam.whitesquare" unicode="&#x21;&#x20de;" 
d="M789 461c0 57 44 92 115 92s114 -35 114 -92c0 -55 -43 -90 -114 -90s-115 35 -115 90zM798 1074h213l-23 -456h-168zM413 1472h975c144 0 260 -115 260 -257v-986c0 -142 -116 -257 -260 -257h-975c-144 0 -261 115 -261 257v986c0 142 117 257 261 257zM1468 1174
c0 71 -59 127 -133 127h-870c-73 0 -133 -55 -133 -127v-904c0 -70 61 -127 133 -127h870c73 0 133 57 133 127v904z" />
    <glyph glyph-name="uni2717.whitesquare" unicode="&#x2717;&#x20de;" 
d="M904 846l226 222l119 -122l-225 -223l225 -222l-119 -123l-226 221l-227 -222l-119 123l226 223l-225 223l118 123zM413 1472h975c144 0 260 -115 260 -257v-986c0 -142 -116 -257 -260 -257h-975c-144 0 -261 115 -261 257v986c0 142 117 257 261 257zM1468 1174
c0 71 -59 127 -133 127h-870c-73 0 -133 -55 -133 -127v-904c0 -70 61 -127 133 -127h870c73 0 133 57 133 127v904z" />
    <glyph glyph-name="uni2713.whitesquare" unicode="&#x2713;&#x20de;" 
d="M1328 907l-543 -532l-311 308l125 126l188 -187l419 415zM413 1472h975c144 0 260 -115 260 -257v-986c0 -142 -116 -257 -260 -257h-975c-144 0 -261 115 -261 257v986c0 142 117 257 261 257zM1468 1174c0 71 -59 127 -133 127h-870c-73 0 -133 -55 -133 -127v-904
c0 -70 61 -127 133 -127h870c73 0 133 57 133 127v904z" />
    <glyph glyph-name="uni1F150" unicode="A&#x20dd;&#x25cf;" 
d="M985 669h-169l79 282h10zM743 377l43 145h229l43 -145h220l-245 753h-265l-245 -753h220zM900 -53c-426 0 -774 348 -774 775c0 426 348 774 774 774s775 -348 775 -774c0 -427 -349 -775 -775 -775z" />
    <glyph glyph-name="uni1F151" unicode="B&#x20dd;&#x25cf;" 
d="M601 352h380c156 0 264 85 264 210c0 103 -64 171 -173 187v4c86 19 138 81 138 164c0 116 -89 187 -236 187h-373v-752zM805 960h106c59 0 96 -30 96 -78c0 -53 -39 -80 -117 -80h-85v158zM804 678h113c72 0 113 -33 113 -88c0 -58 -43 -87 -132 -87h-94v175zM900 -53
c-426 0 -774 348 -774 775c0 426 348 774 774 774s775 -348 775 -774c0 -427 -349 -775 -775 -775z" />
    <glyph glyph-name="uni1F152" unicode="C&#x20dd;&#x25cf;" 
d="M1037 626c-6 -58 -63 -102 -133 -102c-90 0 -150 74 -150 202s60 202 150 202c71 0 129 -47 135 -107h206c-11 173 -147 293 -344 293c-211 0 -367 -147 -367 -388c0 -242 156 -388 367 -388c194 0 330 119 343 288h-207zM900 -53c-426 0 -774 348 -774 775
c0 426 348 774 774 774s775 -348 775 -774c0 -427 -349 -775 -775 -775z" />
    <glyph glyph-name="uni1F153" unicode="D&#x20dd;&#x25cf;" 
d="M598 1104v-752h325c231 0 353 130 353 376c0 247 -122 376 -353 376h-325zM808 938h79c118 0 169 -63 169 -211c0 -147 -51 -209 -169 -209h-79v420zM900 -53c-426 0 -774 348 -774 775c0 426 348 774 774 774s775 -348 775 -774c0 -427 -349 -775 -775 -775z" />
    <glyph glyph-name="uni1F154" unicode="E&#x20dd;&#x25cf;" 
d="M1179 513h-336v144h314v146h-314v139h336v162h-544v-752h544v161zM900 -53c-426 0 -774 348 -774 775c0 426 348 774 774 774s775 -348 775 -774c0 -427 -349 -775 -775 -775z" />
    <glyph glyph-name="uni1F155" unicode="F&#x20dd;&#x25cf;" 
d="M873 352v266h290v172h-290v144h320v170h-540v-752h220zM900 -53c-426 0 -774 348 -774 775c0 426 348 774 774 774s775 -348 775 -774c0 -427 -349 -775 -775 -775z" />
    <glyph glyph-name="uni1F156" unicode="G&#x20dd;&#x25cf;" 
d="M1039 615c0 -58 -46 -106 -134 -106c-90 0 -151 86 -151 217c0 129 60 211 151 211c74 0 122 -35 128 -85h212c-21 157 -158 262 -342 262c-220 0 -369 -156 -369 -388s148 -388 368 -388c209 0 341 136 341 305v132h-335v-146h131v-14zM900 -53
c-426 0 -774 348 -774 775c0 426 348 774 774 774s775 -348 775 -774c0 -427 -349 -775 -775 -775z" />
    <glyph glyph-name="uni1F157" unicode="H&#x20dd;&#x25cf;" 
d="M1237 352v752h-208v-283h-257v283h-208v-752h208v284h257v-284h208zM900 -53c-426 0 -774 348 -774 775c0 426 348 774 774 774s775 -348 775 -774c0 -427 -349 -775 -775 -775z" />
    <glyph glyph-name="uni1F158" unicode="I&#x20dd;&#x25cf;" 
d="M1019 352v752h-237v-752h237zM900 -53c-426 0 -774 348 -774 775c0 426 348 774 774 774s775 -348 775 -774c0 -427 -349 -775 -775 -775z" />
    <glyph glyph-name="uni1F159" unicode="J&#x20dd;&#x25cf;" 
d="M573 617c0 -177 117 -289 298 -289c184 0 295 110 295 291v475h-224v-472c0 -60 -26 -90 -76 -90c-48 0 -75 29 -75 85h-218zM900 -53c-426 0 -774 348 -774 775c0 426 348 774 774 774s775 -348 775 -774c0 -427 -349 -775 -775 -775z" />
    <glyph glyph-name="uni1F15A" unicode="&#x212a;&#x20dd;&#x25cf;" 
d="M1262 1104h-239l-231 -293h-9v293h-203v-752h203v197l64 73l170 -270h251l-257 409zM900 -53c-426 0 -774 348 -774 775c0 426 348 774 774 774s775 -348 775 -774c0 -427 -349 -775 -775 -775z" />
    <glyph glyph-name="uni1F15B" unicode="L&#x20dd;&#x25cf;" 
d="M1201 553h-307v562h-226v-752h533v190zM900 -53c-426 0 -774 348 -774 775c0 426 348 774 774 774s775 -348 775 -774c0 -427 -349 -775 -775 -775z" />
    <glyph glyph-name="uni1F15C" unicode="M&#x20dd;&#x25cf;" 
d="M683 352v456h13l149 -412h109l151 410h13v-454h169v752h-208l-177 -485h-3l-176 485h-209v-752h169zM900 -53c-426 0 -774 348 -774 775c0 426 348 774 774 774s775 -348 775 -774c0 -427 -349 -775 -775 -775z" />
    <glyph glyph-name="uni1F15D" unicode="N&#x20dd;&#x25cf;" 
d="M762 352v412h9l299 -412h160v752h-191v-408h-9l-299 408h-160v-752h191zM900 -53c-426 0 -774 348 -774 775c0 426 348 774 774 774s775 -348 775 -774c0 -427 -349 -775 -775 -775z" />
    <glyph glyph-name="uni1F15E" unicode="O&#x20dd;&#x25cf;" 
d="M900 521c-82 0 -150 68 -150 205s68 205 150 205c83 0 150 -68 150 -205s-67 -205 -150 -205zM900 338c207 0 369 140 369 388s-162 388 -369 388c-206 0 -368 -140 -368 -388s162 -388 368 -388zM900 -53c-426 0 -774 348 -774 775c0 426 348 774 774 774
s775 -348 775 -774c0 -427 -349 -775 -775 -775z" />
    <glyph glyph-name="uni1F15F" unicode="P&#x20dd;&#x25cf;" 
d="M971 1104h-344v-752h225v205h116c173 0 285 106 285 270c0 168 -112 277 -282 277zM1040 827c0 -69 -38 -108 -108 -108h-96v218h96c69 0 108 -40 108 -110zM900 -53c-426 0 -774 348 -774 775c0 426 348 774 774 774s775 -348 775 -774c0 -427 -349 -775 -775 -775z" />
    <glyph glyph-name="uni1F160" unicode="Q&#x20dd;&#x25cf;" 
d="M1251 288l-100 142c73 66 118 166 118 296c0 248 -162 388 -369 388c-206 0 -368 -140 -368 -388s162 -388 368 -388c36 0 70 4 102 13l35 -63h214zM900 521c-82 0 -150 68 -150 205s68 205 150 205c83 0 150 -68 150 -205c0 -52 -12 -93 -32 -124l-23 28h-126l59 -106
c-9 -2 -18 -3 -28 -3zM900 -53c-426 0 -774 348 -774 775c0 426 348 774 774 774s775 -348 775 -774c0 -427 -349 -775 -775 -775z" />
    <glyph glyph-name="uni1F161" unicode="R&#x20dd;&#x25cf;" 
d="M792 754v186h118c69 0 107 -33 107 -94c0 -57 -40 -92 -109 -92h-116zM933 1104h-340v-752h205v256h95l125 -256h234l-162 295c90 33 143 110 143 211c0 157 -110 246 -300 246zM900 -53c-426 0 -774 348 -774 775c0 426 348 774 774 774s775 -348 775 -774
c0 -427 -349 -775 -775 -775z" />
    <glyph glyph-name="uni1F162" unicode="S&#x20dd;&#x25cf;" 
d="M574 577c7 -147 129 -236 324 -236c200 0 329 98 329 250c0 121 -71 194 -217 218l-105 18c-76 12 -105 32 -105 65c0 41 39 67 101 67c60 0 100 -28 107 -71h203c-9 139 -131 229 -310 229c-188 0 -313 -96 -313 -242c0 -117 77 -193 217 -217l98 -18
c88 -15 115 -32 115 -67c0 -43 -43 -71 -113 -71c-68 0 -115 30 -120 75h-211zM900 -53c-426 0 -774 348 -774 775c0 426 348 774 774 774s775 -348 775 -774c0 -427 -349 -775 -775 -775z" />
    <glyph glyph-name="uni1F163" unicode="T&#x20dd;&#x25cf;" 
d="M1013 329v567h211v185h-647v-185h211v-567h225zM900 -53c-426 0 -774 348 -774 775c0 426 348 774 774 774s775 -348 775 -774c0 -427 -349 -775 -775 -775z" />
    <glyph glyph-name="uni1F164" unicode="U&#x20dd;&#x25cf;" 
d="M900 501c-71 0 -115 42 -115 108v473h-219v-504c0 -157 132 -261 334 -261s335 105 335 261v504h-219v-473c0 -66 -45 -108 -116 -108zM900 -53c-426 0 -774 348 -774 775c0 426 348 774 774 774s775 -348 775 -774c0 -427 -349 -775 -775 -775z" />
    <glyph glyph-name="uni1F165" unicode="V&#x20dd;&#x25cf;" 
d="M1044 324l232 752h-242l-128 -537h-11l-128 537h-243l233 -752h287zM900 -53c-426 0 -774 348 -774 775c0 426 348 774 774 774s775 -348 775 -774c0 -427 -349 -775 -775 -775z" />
    <glyph glyph-name="uni1F166" unicode="W&#x20dd;&#x25cf;" 
d="M899 783h3l112 -454h189l177 752h-202l-85 -497h-5l-109 497h-157l-109 -497h-5l-85 497h-202l178 -752h188zM900 -53c-426 0 -774 348 -774 775c0 426 348 774 774 774s775 -348 775 -774c0 -427 -349 -775 -775 -775z" />
    <glyph glyph-name="uni1F167" unicode="X&#x20dd;&#x25cf;" 
d="M1266 1104h-233l-125 -240h-10l-126 240h-246l236 -374l-237 -378h239l128 239h9l129 -239h234l-233 375zM900 -53c-426 0 -774 348 -774 775c0 426 348 774 774 774s775 -348 775 -774c0 -427 -349 -775 -775 -775z" />
    <glyph glyph-name="uni1F168" unicode="Y&#x20dd;&#x25cf;" 
d="M784 336h233v245l260 507h-245l-130 -294h-4l-129 294h-245l260 -507v-245zM900 -53c-426 0 -774 348 -774 775c0 426 348 774 774 774s775 -348 775 -774c0 -427 -349 -775 -775 -775z" />
    <glyph glyph-name="uni1F169" unicode="Z&#x20dd;&#x25cf;" 
d="M602 352h602v181h-328v5l317 422v144h-590v-182h316v-3l-317 -423v-144zM900 -53c-426 0 -774 348 -774 775c0 426 348 774 774 774s775 -348 775 -774c0 -427 -349 -775 -775 -775z" />
    <glyph glyph-name="uni24FF" unicode="&#x30;&#x20dd;&#x25cf;" 
d="M898 506c-67 0 -105 70 -105 221s38 220 105 220c68 0 105 -69 105 -220s-37 -221 -105 -221zM896 338c195 0 322 146 322 389s-127 389 -322 389c-194 0 -317 -146 -317 -389s123 -389 317 -389zM900 -53c-426 0 -774 348 -774 775c0 426 348 774 774 774
s775 -348 775 -774c0 -427 -349 -775 -775 -775z" />
    <glyph glyph-name="uni278A" unicode="&#x31;&#x20dd;&#x25cf;" 
d="M1049 351v752h-221l-183 -121v-200l176 117h5v-548h223zM900 -53c-426 0 -774 348 -774 775c0 426 348 774 774 774s775 -348 775 -774c0 -427 -349 -775 -775 -775z" />
    <glyph glyph-name="uni278B" unicode="&#x32;&#x20dd;&#x25cf;" 
d="M802 849v5c0 55 31 94 88 94c48 0 83 -29 83 -71c0 -49 -33 -86 -96 -146l-263 -240v-141h583v180h-294v3l139 127c87 80 139 145 139 235c0 124 -116 220 -279 220c-191 0 -301 -114 -301 -261v-5h201zM900 -53c-426 0 -774 348 -774 775c0 426 348 774 774 774
s775 -348 775 -774c0 -427 -349 -775 -775 -775z" />
    <glyph glyph-name="uni278C" unicode="&#x33;&#x20dd;&#x25cf;" 
d="M812 657h82c63 0 104 -31 105 -77c0 -45 -41 -77 -106 -77c-63 1 -105 33 -109 80h-201c3 -140 122 -244 310 -244c185 0 319 87 318 228c-2 103 -82 169 -161 177v6c66 10 141 74 140 162c-2 120 -118 203 -295 203c-194 0 -297 -92 -304 -243h203c2 48 37 81 97 81
c52 0 89 -29 90 -70c0 -43 -37 -72 -92 -72h-77v-154zM900 -53c-426 0 -774 348 -774 775c0 426 348 774 774 774s775 -348 775 -774c0 -427 -349 -775 -775 -775z" />
    <glyph glyph-name="uni278D" unicode="&#x34;&#x20dd;&#x25cf;" 
d="M813 1103c-124 -201 -195 -324 -263 -461v-170h372v-121h189v121h102v170h-102v461h-298zM922 642h-179v1c50 96 103 182 170 299h9v-300zM900 -53c-426 0 -774 348 -774 775c0 426 348 774 774 774s775 -348 775 -774c0 -427 -349 -775 -775 -775z" />
    <glyph glyph-name="uni278E" unicode="&#x35;&#x20dd;&#x25cf;" 
d="M602 579c3 -140 124 -235 303 -235c192 0 316 107 316 277c0 151 -107 242 -251 242c-81 0 -140 -32 -162 -69h-5l12 156h356v159h-525l-29 -448h189c15 29 51 55 101 55c61 0 108 -40 108 -103c0 -66 -51 -106 -107 -106c-53 0 -99 26 -108 72h-198zM900 -53
c-426 0 -774 348 -774 775c0 426 348 774 774 774s775 -348 775 -774c0 -427 -349 -775 -775 -775z" />
    <glyph glyph-name="uni278F" unicode="&#x36;&#x20dd;&#x25cf;" 
d="M934 340c197 0 337 111 337 268c0 139 -117 241 -274 241c-95 0 -170 -37 -206 -104h-11c-2 131 55 214 155 214c55 0 98 -26 109 -62h216c-19 128 -155 220 -328 220c-222 0 -362 -150 -362 -389c0 -260 153 -388 364 -388zM933 499c-72 0 -125 47 -125 106
c0 58 50 103 125 103c74 0 125 -45 125 -104s-54 -105 -125 -105zM900 -53c-426 0 -774 348 -774 775c0 426 348 774 774 774s775 -348 775 -774c0 -427 -349 -775 -775 -775z" />
    <glyph glyph-name="uni2790" unicode="&#x37;&#x20dd;&#x25cf;" 
d="M610 1099v-181h366v-2l-309 -569h237l297 573v179h-591zM900 -53c-426 0 -774 348 -774 775c0 426 348 774 774 774s775 -348 775 -774c0 -427 -349 -775 -775 -775z" />
    <glyph glyph-name="uni2791" unicode="&#x38;&#x20dd;&#x25cf;" 
d="M898 801c-55 0 -94 35 -94 85c0 51 38 87 94 87c57 0 95 -36 95 -87c0 -50 -39 -85 -95 -85zM898 482c-67 0 -114 41 -114 99c0 57 47 99 114 99s115 -42 115 -99c0 -58 -48 -99 -115 -99zM898 338c203 0 332 87 332 227c0 95 -63 163 -167 180v3c90 27 135 83 135 163
c0 124 -118 204 -300 204s-299 -80 -299 -204c0 -81 44 -136 135 -163v-3c-104 -17 -167 -85 -167 -180c0 -139 129 -227 331 -227zM900 -53c-426 0 -774 348 -774 775c0 426 348 774 774 774s775 -348 775 -774c0 -427 -349 -775 -775 -775z" />
    <glyph glyph-name="uni2792" unicode="&#x39;&#x20dd;&#x25cf;" 
d="M906 340c224 0 365 150 365 390c0 231 -133 387 -365 387c-197 0 -336 -111 -336 -267c0 -139 116 -241 273 -241c96 0 170 36 206 104h11c6 -129 -54 -214 -152 -214c-54 0 -100 25 -111 60h-217c21 -128 156 -219 326 -219zM908 754c-74 0 -125 42 -125 102
c0 57 52 102 125 102s124 -45 124 -104c0 -56 -51 -100 -124 -100zM900 -53c-426 0 -774 348 -774 775c0 426 348 774 774 774s775 -348 775 -774c0 -427 -349 -775 -775 -775z" />
    <glyph glyph-name="plus.uc.blackcircle" unicode="&#x2b;&#x20dd;&#x25cf;" 
d="M996 632h222v188h-222v223h-192v-223h-222v-188h222v-226h192v226zM900 -53c-426 0 -774 348 -774 775c0 426 348 774 774 774s775 -348 775 -774c0 -427 -349 -775 -775 -775z" />
    <glyph glyph-name="minus.uc.blackcircle" unicode="&#x2212;&#x20dd;&#x25cf;" 
d="M1189 626v196h-578v-196h578zM900 -53c-426 0 -774 348 -774 775c0 426 348 774 774 774s775 -348 775 -774c0 -427 -349 -775 -775 -775z" />
    <glyph glyph-name="multiply.uc.blackcircle" unicode="&#xd7;&#x20dd;&#x25cf;" 
d="M900 863l-173 169l-135 -139l172 -168l-172 -168l135 -138l173 167l172 -167l136 138l-173 168l173 168l-136 139zM900 -53c-426 0 -774 348 -774 775c0 426 348 774 774 774s775 -348 775 -774c0 -427 -349 -775 -775 -775z" />
    <glyph glyph-name="divide.uc.blackcircle" unicode="&#xf7;&#x20dd;&#x25cf;" 
d="M792 966c0 -56 47 -97 108 -97s109 41 109 97c0 58 -47 99 -109 99c-61 0 -108 -41 -108 -99zM1189 648v153h-578v-153h578zM792 484c0 -56 47 -97 108 -97c62 0 109 41 109 97c0 58 -47 99 -109 99c-61 0 -108 -41 -108 -99zM900 -53c-426 0 -774 348 -774 775
c0 426 348 774 774 774s775 -348 775 -774c0 -427 -349 -775 -775 -775z" />
    <glyph glyph-name="equal.uc.blackcircle" unicode="&#x3d;&#x20dd;&#x25cf;" 
d="M1196 783v170h-592v-170h592zM1196 494v169h-592v-169h592zM900 -53c-426 0 -774 348 -774 775c0 426 348 774 774 774s775 -348 775 -774c0 -427 -349 -775 -775 -775z" />
    <glyph glyph-name="greater.uc.blackcircle" unicode="&#x3e;&#x20dd;&#x25cf;" 
d="M1207 783l-569 283v-205l308 -136v-3l-308 -140v-198l569 275v124zM900 -53c-426 0 -774 348 -774 775c0 426 348 774 774 774s775 -348 775 -774c0 -427 -349 -775 -775 -775z" />
    <glyph glyph-name="less.uc.blackcircle" unicode="&#x3c;&#x20dd;&#x25cf;" 
d="M590 659l568 -275v198l-307 140v3l307 136v205l-568 -283v-124zM900 -53c-426 0 -774 348 -774 775c0 426 348 774 774 774s775 -348 775 -774c0 -427 -349 -775 -775 -775z" />
    <glyph glyph-name="numbersign.blackcircle" unicode="&#x23;&#x20dd;&#x25cf;" 
d="M844 798h135l-29 -144h-135zM1218 778l29 150h-108l35 174h-158l-34 -174h-93l37 174h-159l-34 -174h-105l-29 -150h105l-20 -93h-105l-29 -152h103l-37 -183h157l39 183h91l-38 -183h158l37 183h109l29 152h-106c1 10 17 82 19 93h107zM900 -53
c-426 0 -774 348 -774 775c0 426 348 774 774 774s775 -348 775 -774c0 -427 -349 -775 -775 -775z" />
    <glyph glyph-name="uni25BC.blackcircle" unicode="&#x25bc;&#x20dd;&#x25cf;" 
d="M1250 981h-698l348 -604zM900 -53c-426 0 -774 348 -774 775c0 426 348 774 774 774s775 -348 775 -774c0 -427 -349 -775 -775 -775z" />
    <glyph glyph-name="uni25B2.blackcircle" unicode="&#x25b2;&#x20dd;&#x25cf;" 
d="M1250 488l-350 604l-348 -604h698zM900 -53c-426 0 -774 348 -774 775c0 426 348 774 774 774s775 -348 775 -774c0 -427 -349 -775 -775 -775z" />
    <glyph glyph-name="uni25C0.blackcircle" unicode="&#x25c0;&#x20dd;&#x25cf;" 
d="M1137 386v697l-605 -348zM900 -53c-426 0 -774 348 -774 775c0 426 348 774 774 774s775 -348 775 -774c0 -427 -349 -775 -775 -775z" />
    <glyph glyph-name="uni25B6.blackcircle" unicode="&#x25b6;&#x20dd;&#x25cf;" 
d="M663 386l605 349l-605 348v-697zM900 -53c-426 0 -774 348 -774 775c0 426 348 774 774 774s775 -348 775 -774c0 -427 -349 -775 -775 -775z" />
    <glyph glyph-name="question.blackcircle" unicode="&#x3f;&#x20dd;&#x25cf;" 
d="M760 429c0 -64 48 -102 127 -102c80 0 127 39 127 102s-48 102 -127 102s-127 -38 -127 -102zM784 592h190v15c0 45 17 58 86 101c82 55 122 92 122 188c0 138 -118 220 -271 220c-167 0 -288 -74 -288 -240v-2l199 3c0 47 27 80 74 80c40 0 73 -21 73 -66
c0 -55 -65 -72 -115 -124c-45 -36 -75 -78 -72 -138c0 -10 0 -31 2 -37zM901 -53c-426 0 -774 348 -774 775c0 426 348 774 774 774s775 -348 775 -774c0 -427 -349 -775 -775 -775z" />
    <glyph glyph-name="exclam.blackcircle" unicode="&#x21;&#x20dd;&#x25cf;" 
d="M783 1105l24 -500h189l25 500h-238zM776 429c0 -62 48 -101 127 -101s126 39 126 101c0 63 -48 102 -126 102c-79 0 -127 -38 -127 -102zM900 -53c-426 0 -774 348 -774 775c0 426 348 774 774 774s775 -348 775 -774c0 -427 -349 -775 -775 -775z" />
    <glyph glyph-name="uni2717.blackcircle" unicode="&#x2717;&#x20dd;&#x25cf;" 
d="M901 855l-244 241l-130 -133l245 -241l-245 -241l130 -134l244 240l244 -239l130 134l-244 240l244 240l-130 133zM900 -53c-426 0 -774 348 -774 775c0 426 348 774 774 774s775 -348 775 -774c0 -427 -349 -775 -775 -775z" />
    <glyph glyph-name="uni2713.blackcircle" unicode="&#x2713;&#x20dd;&#x25cf;" 
d="M772 358l593 582l-135 143l-456 -451l-205 203l-137 -139zM900 -53c-426 0 -774 348 -774 775c0 426 348 774 774 774s775 -348 775 -774c0 -427 -349 -775 -775 -775z" />
    <glyph glyph-name="uni1F170" unicode="A&#x20de;&#x25a0;" 
d="M985 660h-169l79 282h10zM743 368l43 145h229l43 -145h220l-245 753h-265l-245 -753h220zM413 1472h975c144 0 260 -115 260 -257v-986c0 -142 -116 -257 -260 -257h-975c-144 0 -261 115 -261 257v986c0 142 117 257 261 257z" />
    <glyph glyph-name="uni1F171" unicode="B&#x20de;&#x25a0;" 
d="M601 352h380c153 0 264 84 264 210c0 106 -68 172 -173 187v4c83 18 138 78 138 164c0 117 -90 187 -236 187h-373v-752zM805 960h106c60 0 96 -30 96 -78c0 -52 -38 -80 -117 -80h-85v158zM804 678h113c73 0 113 -33 113 -88c0 -57 -41 -87 -132 -87h-94v175zM413 1472
h975c144 0 260 -115 260 -257v-986c0 -142 -116 -257 -260 -257h-975c-144 0 -261 115 -261 257v986c0 142 117 257 261 257z" />
    <glyph glyph-name="uni1F172" unicode="C&#x20de;&#x25a0;" 
d="M1037 626c-6 -58 -63 -102 -133 -102c-90 0 -150 74 -150 202s60 202 150 202c71 0 129 -47 135 -107h206c-11 173 -147 293 -344 293c-211 0 -367 -147 -367 -388c0 -242 156 -388 367 -388c194 0 330 119 343 288h-207zM413 1472h975c144 0 260 -115 260 -257v-986
c0 -142 -116 -257 -260 -257h-975c-144 0 -261 115 -261 257v986c0 142 117 257 261 257z" />
    <glyph glyph-name="uni1F173" unicode="D&#x20de;&#x25a0;" 
d="M587 1104v-752h324c235 0 354 133 354 376c0 244 -119 376 -354 376h-324zM796 938h80c118 0 168 -64 168 -211c0 -146 -50 -209 -168 -209h-80v420zM413 1472h975c144 0 260 -115 260 -257v-986c0 -142 -116 -257 -260 -257h-975c-144 0 -261 115 -261 257v986
c0 142 117 257 261 257z" />
    <glyph glyph-name="uni1F174" unicode="E&#x20de;&#x25a0;" 
d="M1179 513h-336v144h314v146h-314v139h336v162h-544v-752h544v161zM413 1472h975c144 0 260 -115 260 -257v-986c0 -142 -116 -257 -260 -257h-975c-144 0 -261 115 -261 257v986c0 142 117 257 261 257z" />
    <glyph glyph-name="uni1F175" unicode="F&#x20de;&#x25a0;" 
d="M873 352v266h290v172h-290v144h320v170h-540v-752h220zM413 1472h975c144 0 260 -115 260 -257v-986c0 -142 -116 -257 -260 -257h-975c-144 0 -261 115 -261 257v986c0 142 117 257 261 257z" />
    <glyph glyph-name="uni1F176" unicode="G&#x20de;&#x25a0;" 
d="M1039 615c0 -58 -46 -106 -134 -106c-90 0 -151 86 -151 217c0 129 60 211 151 211c74 0 122 -35 128 -85h212c-21 157 -158 262 -342 262c-220 0 -369 -156 -369 -388s148 -388 368 -388c209 0 341 136 341 305v132h-335v-146h131v-14zM413 1472h975
c144 0 260 -115 260 -257v-986c0 -142 -116 -257 -260 -257h-975c-144 0 -261 115 -261 257v986c0 142 117 257 261 257z" />
    <glyph glyph-name="uni1F177" unicode="H&#x20de;&#x25a0;" 
d="M1237 352v752h-208v-283h-257v283h-208v-752h208v284h257v-284h208zM413 1472h975c144 0 260 -115 260 -257v-986c0 -142 -116 -257 -260 -257h-975c-144 0 -261 115 -261 257v986c0 142 117 257 261 257z" />
    <glyph glyph-name="uni1F178" unicode="I&#x20de;&#x25a0;" 
d="M1019 352v752h-237v-752h237zM413 1472h975c144 0 260 -115 260 -257v-986c0 -142 -116 -257 -260 -257h-975c-144 0 -261 115 -261 257v986c0 142 117 257 261 257z" />
    <glyph glyph-name="uni1F179" unicode="J&#x20de;&#x25a0;" 
d="M573 617c0 -172 111 -289 298 -289c182 0 295 108 295 291v475h-224v-472c0 -60 -26 -90 -76 -90c-48 0 -75 29 -75 85h-218zM413 1472h975c144 0 260 -115 260 -257v-986c0 -142 -116 -257 -260 -257h-975c-144 0 -261 115 -261 257v986c0 142 117 257 261 257z" />
    <glyph glyph-name="uni1F17A" unicode="&#x212a;&#x20de;&#x25a0;" 
d="M1262 1104h-239l-231 -293h-9v293h-203v-752h203v197l64 73l170 -270h251c-49 64 -207 345 -257 409zM413 1472h975c144 0 260 -115 260 -257v-986c0 -142 -116 -257 -260 -257h-975c-144 0 -261 115 -261 257v986c0 142 117 257 261 257z" />
    <glyph glyph-name="uni1F17B" unicode="L&#x20de;&#x25a0;" 
d="M1206 553h-307v562h-226v-752h533v190zM413 1472h975c144 0 260 -115 260 -257v-986c0 -142 -116 -257 -260 -257h-975c-144 0 -261 115 -261 257v986c0 142 117 257 261 257z" />
    <glyph glyph-name="uni1F17C" unicode="M&#x20de;&#x25a0;" 
d="M683 352v456h13l149 -412h109l151 410h13v-454h169v752h-208l-177 -485h-3l-176 485h-209v-752h169zM413 1472h975c144 0 260 -115 260 -257v-986c0 -142 -116 -257 -260 -257h-975c-144 0 -261 115 -261 257v986c0 142 117 257 261 257z" />
    <glyph glyph-name="uni1F17D" unicode="N&#x20de;&#x25a0;" 
d="M762 352v412h9l299 -412h160v752h-191v-408h-9l-299 408h-160v-752h191zM413 1472h975c144 0 260 -115 260 -257v-986c0 -142 -116 -257 -260 -257h-975c-144 0 -261 115 -261 257v986c0 142 117 257 261 257z" />
    <glyph glyph-name="uni1F17E" unicode="O&#x20de;&#x25a0;" 
d="M900 521c-82 0 -150 68 -150 205s68 205 150 205c83 0 150 -68 150 -205s-67 -205 -150 -205zM900 338c207 0 369 140 369 388s-162 388 -369 388c-206 0 -368 -140 -368 -388s162 -388 368 -388zM413 1472h975c144 0 260 -115 260 -257v-986c0 -142 -116 -257 -260 -257
h-975c-144 0 -261 115 -261 257v986c0 142 117 257 261 257z" />
    <glyph glyph-name="uni1F17F" unicode="P&#x20de;&#x25a0;" 
d="M971 1104h-344v-752h225v205h116c176 0 285 109 285 270c0 165 -108 277 -282 277zM1040 827c0 -69 -38 -108 -108 -108h-96v218h96c68 0 108 -39 108 -110zM413 1472h975c144 0 260 -115 260 -257v-986c0 -142 -116 -257 -260 -257h-975c-144 0 -261 115 -261 257v986
c0 142 117 257 261 257z" />
    <glyph glyph-name="uni1F180" unicode="Q&#x20de;&#x25a0;" 
d="M1251 288l-100 142c73 66 118 166 118 296c0 248 -162 388 -369 388c-206 0 -368 -140 -368 -388s162 -388 368 -388c36 0 70 4 102 13l35 -63h214zM900 521c-82 0 -150 68 -150 205s68 205 150 205c83 0 150 -68 150 -205c0 -52 -12 -93 -32 -124l-23 28h-126l59 -106
c-9 -2 -18 -3 -28 -3zM413 1472h975c144 0 260 -115 260 -257v-986c0 -142 -116 -257 -260 -257h-975c-144 0 -261 115 -261 257v986c0 142 117 257 261 257z" />
    <glyph glyph-name="uni1F181" unicode="R&#x20de;&#x25a0;" 
d="M792 754v186h118c67 0 107 -32 107 -94c0 -58 -41 -92 -109 -92h-116zM933 1104h-340v-752h205v256h95l125 -256h234l-162 295c86 31 143 106 143 211c0 156 -108 246 -300 246zM413 1472h975c144 0 260 -115 260 -257v-986c0 -142 -116 -257 -260 -257h-975
c-144 0 -261 115 -261 257v986c0 142 117 257 261 257z" />
    <glyph glyph-name="uni1F182" unicode="S&#x20de;&#x25a0;" 
d="M574 577c7 -147 129 -236 324 -236c200 0 329 98 329 250c0 121 -71 194 -217 218l-105 18c-76 12 -105 32 -105 65c0 41 39 67 101 67c60 0 100 -28 107 -71h203c-9 139 -131 229 -310 229c-188 0 -313 -96 -313 -242c0 -117 77 -193 217 -217l98 -18
c88 -15 115 -32 115 -67c0 -43 -43 -71 -113 -71c-68 0 -115 30 -120 75h-211zM413 1472h975c144 0 260 -115 260 -257v-986c0 -142 -116 -257 -260 -257h-975c-144 0 -261 115 -261 257v986c0 142 117 257 261 257z" />
    <glyph glyph-name="uni1F183" unicode="T&#x20de;&#x25a0;" 
d="M1013 338v567h211v185h-647v-185h211v-567h225zM413 1472h975c144 0 260 -115 260 -257v-986c0 -142 -116 -257 -260 -257h-975c-144 0 -261 115 -261 257v986c0 142 117 257 261 257z" />
    <glyph glyph-name="uni1F184" unicode="U&#x20de;&#x25a0;" 
d="M900 510c-71 0 -115 42 -115 108v473h-219v-504c0 -157 132 -261 334 -261s335 105 335 261v504h-219v-473c0 -66 -45 -108 -116 -108zM413 1472h975c144 0 260 -115 260 -257v-986c0 -142 -116 -257 -260 -257h-975c-144 0 -261 115 -261 257v986c0 142 117 257 261 257
z" />
    <glyph glyph-name="uni1F185" unicode="V&#x20de;&#x25a0;" 
d="M1044 333l232 752h-242l-128 -537h-11l-128 537h-243l233 -752h287zM413 1472h975c144 0 260 -115 260 -257v-986c0 -142 -116 -257 -260 -257h-975c-144 0 -261 115 -261 257v986c0 142 117 257 261 257z" />
    <glyph glyph-name="uni1F186" unicode="W&#x20de;&#x25a0;" 
d="M899 792h3l112 -454h189l177 752h-202l-85 -497h-5l-109 497h-157l-109 -497h-5l-85 497h-202l178 -752h188zM413 1472h975c144 0 260 -115 260 -257v-986c0 -142 -116 -257 -260 -257h-975c-144 0 -261 115 -261 257v986c0 142 117 257 261 257z" />
    <glyph glyph-name="uni1F187" unicode="X&#x20de;&#x25a0;" 
d="M1266 1104h-233l-125 -240h-10l-126 240h-246l236 -374l-237 -378h239l128 239h9l129 -239h234l-233 375zM413 1472h975c144 0 260 -115 260 -257v-986c0 -142 -116 -257 -260 -257h-975c-144 0 -261 115 -261 257v986c0 142 117 257 261 257z" />
    <glyph glyph-name="uni1F188" unicode="Y&#x20de;&#x25a0;" 
d="M784 338h233v245l260 507h-245l-130 -294h-4l-129 294h-245l260 -507v-245zM413 1472h975c144 0 260 -115 260 -257v-986c0 -142 -116 -257 -260 -257h-975c-144 0 -261 115 -261 257v986c0 142 117 257 261 257z" />
    <glyph glyph-name="uni1F189" unicode="Z&#x20de;&#x25a0;" 
d="M602 352h602v181h-328v5l317 422v144h-590v-182h316v-3l-317 -423v-144zM413 1472h975c144 0 260 -115 260 -257v-986c0 -142 -116 -257 -260 -257h-975c-144 0 -261 115 -261 257v986c0 142 117 257 261 257z" />
    <glyph glyph-name="zero.blacksquare" unicode="&#x30;&#x20de;&#x25a0;" 
d="M898 506c-67 0 -105 70 -105 221s38 220 105 220c68 0 105 -69 105 -220s-37 -221 -105 -221zM896 338c195 0 322 146 322 389s-127 389 -322 389c-194 0 -317 -146 -317 -389s123 -389 317 -389zM413 1472h975c144 0 260 -115 260 -257v-986c0 -142 -116 -257 -260 -257
h-975c-144 0 -261 115 -261 257v986c0 142 117 257 261 257z" />
    <glyph glyph-name="one.blacksquare" unicode="&#x31;&#x20de;&#x25a0;" 
d="M1054 351v752h-221l-183 -121v-200l176 117h5v-548h223zM413 1472h975c144 0 260 -115 260 -257v-986c0 -142 -116 -257 -260 -257h-975c-144 0 -261 115 -261 257v986c0 142 117 257 261 257z" />
    <glyph glyph-name="two.blacksquare" unicode="&#x32;&#x20de;&#x25a0;" 
d="M802 849v5c0 55 31 94 88 94c48 0 83 -29 83 -71c0 -49 -33 -86 -96 -146l-263 -240v-141h583v180h-294v3l139 127c87 80 139 145 139 235c0 124 -116 220 -279 220c-191 0 -301 -114 -301 -261v-5h201zM413 1472h975c144 0 260 -115 260 -257v-986
c0 -142 -116 -257 -260 -257h-975c-144 0 -261 115 -261 257v986c0 142 117 257 261 257z" />
    <glyph glyph-name="three.blacksquare" unicode="&#x33;&#x20de;&#x25a0;" 
d="M812 657h82c63 0 104 -31 105 -77c0 -45 -41 -77 -106 -77c-63 1 -105 33 -109 80h-201c3 -140 122 -244 310 -244c185 0 319 87 318 228c-2 103 -82 169 -161 177v6c66 10 141 74 140 162c-2 120 -118 203 -295 203c-194 0 -297 -92 -304 -243h203c2 48 37 81 97 81
c52 0 89 -29 90 -70c0 -43 -37 -72 -92 -72h-77v-154zM413 1472h975c144 0 260 -115 260 -257v-986c0 -142 -116 -257 -260 -257h-975c-144 0 -261 115 -261 257v986c0 142 117 257 261 257z" />
    <glyph glyph-name="four.blacksquare" unicode="&#x34;&#x20de;&#x25a0;" 
d="M823 1103c-124 -201 -195 -324 -263 -461v-170h372v-121h189v121h102v170h-102v461h-298zM932 642h-179v1c50 96 103 182 170 299h9v-300zM413 1472h975c144 0 260 -115 260 -257v-986c0 -142 -116 -257 -260 -257h-975c-144 0 -261 115 -261 257v986
c0 142 117 257 261 257z" />
    <glyph glyph-name="five.blacksquare" unicode="&#x35;&#x20de;&#x25a0;" 
d="M602 582c3 -140 124 -238 303 -238c192 0 316 107 316 277c0 151 -107 242 -251 242c-81 0 -140 -32 -162 -69h-5c3 30 9 126 12 156h356v159h-525l-29 -451h189c15 30 51 58 101 58c61 0 108 -40 108 -103c0 -66 -51 -106 -107 -106c-53 0 -99 27 -108 75h-198z
M413 1472h975c144 0 260 -115 260 -257v-986c0 -142 -116 -257 -260 -257h-975c-144 0 -261 115 -261 257v986c0 142 117 257 261 257z" />
    <glyph glyph-name="six.blacksquare" unicode="&#x36;&#x20de;&#x25a0;" 
d="M914 340c186 0 317 111 317 267c0 138 -108 240 -253 240c-88 0 -155 -36 -188 -103h-10c-3 129 46 212 133 212c47 0 84 -25 93 -62h215c-17 129 -148 221 -310 221c-209 0 -341 -150 -341 -388c0 -260 145 -387 344 -387zM912 499c-62 0 -106 47 -106 105
c0 57 42 102 106 102s107 -44 107 -103c0 -58 -45 -104 -107 -104zM413 1472h975c144 0 260 -115 260 -257v-986c0 -142 -116 -257 -260 -257h-975c-144 0 -261 115 -261 257v986c0 142 117 257 261 257z" />
    <glyph glyph-name="seven.blacksquare" unicode="&#x37;&#x20de;&#x25a0;" 
d="M605 1103v-180h366v-3l-309 -569h237l297 573v179h-591zM413 1472h975c144 0 260 -115 260 -257v-986c0 -142 -116 -257 -260 -257h-975c-144 0 -261 115 -261 257v986c0 142 117 257 261 257z" />
    <glyph glyph-name="eight.blacksquare" unicode="&#x38;&#x20de;&#x25a0;" 
d="M898 801c-55 0 -94 35 -94 85c0 51 38 87 94 87c57 0 95 -36 95 -87c0 -50 -39 -85 -95 -85zM898 482c-67 0 -114 41 -114 99c0 57 47 99 114 99s115 -42 115 -99c0 -58 -48 -99 -115 -99zM898 338c203 0 332 87 332 227c0 95 -63 163 -167 180v3c90 27 135 83 135 163
c0 124 -118 204 -300 204s-299 -80 -299 -204c0 -81 44 -136 135 -163v-3c-104 -17 -167 -85 -167 -180c0 -139 129 -227 331 -227zM413 1472h975c144 0 260 -115 260 -257v-986c0 -142 -116 -257 -260 -257h-975c-144 0 -261 115 -261 257v986c0 142 117 257 261 257z" />
    <glyph glyph-name="nine.blacksquare" unicode="&#x39;&#x20de;&#x25a0;" 
d="M887 340c211 0 344 150 344 388c0 230 -122 387 -345 387c-185 0 -316 -111 -316 -267c0 -138 107 -240 253 -240c87 0 155 36 188 104h10c6 -128 -46 -213 -131 -213c-47 0 -86 25 -95 60h-216c19 -128 148 -219 308 -219zM888 753c-63 0 -106 42 -106 101
c0 57 43 102 107 102c62 0 105 -46 105 -103c0 -56 -43 -100 -106 -100zM413 1472h975c144 0 260 -115 260 -257v-986c0 -142 -116 -257 -260 -257h-975c-144 0 -261 115 -261 257v986c0 142 117 257 261 257z" />
    <glyph glyph-name="plus.uc.blacksquare" unicode="&#x2b;&#x20de;&#x25a0;" 
d="M996 632h222v188h-222v223h-192v-223h-222v-188h222v-226h192v226zM413 1472h975c144 0 260 -115 260 -257v-986c0 -142 -116 -257 -260 -257h-975c-144 0 -261 115 -261 257v986c0 142 117 257 261 257z" />
    <glyph glyph-name="minus.uc.blacksquare" unicode="&#x2212;&#x20de;&#x25a0;" 
d="M1189 626v196h-578v-196h578zM413 1472h975c144 0 260 -115 260 -257v-986c0 -142 -116 -257 -260 -257h-975c-144 0 -261 115 -261 257v986c0 142 117 257 261 257z" />
    <glyph glyph-name="multiply.uc.blacksquare" unicode="&#xd7;&#x20de;&#x25a0;" 
d="M900 863l-173 169l-135 -139l172 -168l-172 -168l135 -138l173 167l172 -167l136 138l-173 168l173 168l-136 139zM413 1472h975c144 0 260 -115 260 -257v-986c0 -142 -116 -257 -260 -257h-975c-144 0 -261 115 -261 257v986c0 142 117 257 261 257z" />
    <glyph glyph-name="divide.uc.blacksquare" unicode="&#xf7;&#x20de;&#x25a0;" 
d="M792 966c0 -56 47 -97 108 -97s109 41 109 97c0 58 -47 99 -109 99c-61 0 -108 -41 -108 -99zM1189 648v153h-578v-153h578zM792 484c0 -56 47 -97 108 -97c62 0 109 41 109 97c0 58 -47 99 -109 99c-61 0 -108 -41 -108 -99zM413 1472h975c144 0 260 -115 260 -257v-986
c0 -142 -116 -257 -260 -257h-975c-144 0 -261 115 -261 257v986c0 142 117 257 261 257z" />
    <glyph glyph-name="equal.uc.blacksquare" unicode="&#x3d;&#x20de;&#x25a0;" 
d="M1196 783v170h-592v-170h592zM1196 494v169h-592v-169h592zM413 1472h975c144 0 260 -115 260 -257v-986c0 -142 -116 -257 -260 -257h-975c-144 0 -261 115 -261 257v986c0 142 117 257 261 257z" />
    <glyph glyph-name="greater.uc.blacksquare" unicode="&#x3e;&#x20de;&#x25a0;" 
d="M1207 783l-569 283v-205l308 -136v-3l-308 -140v-198l569 275v124zM413 1472h975c144 0 260 -115 260 -257v-986c0 -142 -116 -257 -260 -257h-975c-144 0 -261 115 -261 257v986c0 142 117 257 261 257z" />
    <glyph glyph-name="less.uc.blacksquare" unicode="&#x3c;&#x20de;&#x25a0;" 
d="M590 659l568 -275v198c-60 27 -247 113 -307 140v3l307 136v205l-568 -283v-124zM413 1472h975c144 0 260 -115 260 -257v-986c0 -142 -116 -257 -260 -257h-975c-144 0 -261 115 -261 257v986c0 142 117 257 261 257z" />
    <glyph glyph-name="numbersign.blacksquare" unicode="&#x23;&#x20de;&#x25a0;" 
d="M844 798h135l-29 -144h-135zM1218 778l29 150h-108l35 174h-158l-34 -174h-93l37 174h-159l-34 -174h-105l-29 -150h105l-20 -93h-105l-29 -152h103l-37 -183h157l39 183h91l-38 -183h158l37 183h109l29 152h-106c1 10 17 82 19 93h107zM413 1472h975
c144 0 260 -115 260 -257v-986c0 -142 -116 -257 -260 -257h-975c-144 0 -261 115 -261 257v986c0 142 117 257 261 257z" />
    <glyph glyph-name="uni25BC.blacksquare" unicode="&#x25bc;&#x20de;&#x25a0;" 
d="M1250 979h-698l348 -605zM413 1472h975c144 0 260 -115 260 -257v-986c0 -142 -116 -257 -260 -257h-975c-144 0 -261 115 -261 257v986c0 142 117 257 261 257z" />
    <glyph glyph-name="uni25B2.blacksquare" unicode="&#x25b2;&#x20de;&#x25a0;" 
d="M1250 488l-350 604l-348 -604h698zM413 1472h975c144 0 260 -115 260 -257v-986c0 -142 -116 -257 -260 -257h-975c-144 0 -261 115 -261 257v986c0 142 117 257 261 257z" />
    <glyph glyph-name="uni25C0.blacksquare" unicode="&#x25c0;&#x20de;&#x25a0;" 
d="M1137 386v697l-605 -348zM413 1472h975c144 0 260 -115 260 -257v-986c0 -142 -116 -257 -260 -257h-975c-144 0 -261 115 -261 257v986c0 142 117 257 261 257z" />
    <glyph glyph-name="uni25B6.blacksquare" unicode="&#x25b6;&#x20de;&#x25a0;" 
d="M663 386l605 349l-605 348v-697zM413 1472h975c144 0 260 -115 260 -257v-986c0 -142 -116 -257 -260 -257h-975c-144 0 -261 115 -261 257v986c0 142 117 257 261 257z" />
    <glyph glyph-name="question.blacksquare" unicode="&#x3f;&#x20de;&#x25a0;" 
d="M760 429c0 -64 48 -102 127 -102c80 0 127 39 127 102s-48 102 -127 102s-127 -38 -127 -102zM911 1116c-167 0 -288 -74 -288 -240v-2l199 3c0 47 27 80 74 80c40 0 73 -21 73 -66c0 -55 -65 -72 -115 -124c-45 -36 -75 -78 -72 -138c0 -10 0 -31 2 -37h190v15
c0 45 17 58 86 101c82 55 122 92 122 188c0 138 -118 220 -271 220zM413 1472h975c144 0 260 -115 260 -257v-986c0 -142 -116 -257 -260 -257h-975c-144 0 -261 115 -261 257v986c0 142 117 257 261 257z" />
    <glyph glyph-name="exclam.blacksquare" unicode="&#x21;&#x20de;&#x25a0;" 
d="M783 1105l24 -500h189l25 500h-238zM776 429c0 -62 48 -101 127 -101s126 39 126 101c0 63 -48 102 -126 102c-79 0 -127 -38 -127 -102zM413 1472h975c144 0 260 -115 260 -257v-986c0 -142 -116 -257 -260 -257h-975c-144 0 -261 115 -261 257v986
c0 142 117 257 261 257z" />
    <glyph glyph-name="uni2717.blacksquare" unicode="&#x2717;&#x20de;&#x25a0;" 
d="M527 963l245 -241l-245 -241l130 -134l244 240l244 -239l130 134l-244 240l244 240l-130 133l-244 -240l-244 241zM413 1472h975c144 0 260 -115 260 -257v-986c0 -142 -116 -257 -260 -257h-975c-144 0 -261 115 -261 257v986c0 142 117 257 261 257z" />
    <glyph glyph-name="uni2713.blacksquare" unicode="&#x2713;&#x20de;&#x25a0;" 
d="M772 358l593 582l-135 143l-456 -451l-205 203l-137 -139zM413 1472h975c144 0 260 -115 260 -257v-986c0 -142 -116 -257 -260 -257h-975c-144 0 -261 115 -261 257v986c0 142 117 257 261 257z" />
    <glyph glyph-name=".notdef" horiz-adv-x="2048" 
d="M100 -494v198h1848v-198h-1848zM100 -45v198h1848v-198h-1848zM100 404v199h1848v-199h-1848zM100 853v199h1848v-199h-1848zM100 1303v198h1848v-198h-1848zM100 1752v198h1848v-198h-1848z" />
    <glyph glyph-name=".null" horiz-adv-x="0" 
 />
    <glyph glyph-name="nonmarkingreturn" horiz-adv-x="0" 
 />
    <glyph glyph-name="space" unicode=" " horiz-adv-x="528" 
 />
    <glyph glyph-name="A" unicode="A" horiz-adv-x="1500" 
d="M1102 0l-109 344h-507l-111 -344h-303l501 1443h355l501 -1443h-327zM732 1143l-181 -566h378l-179 566h-18z" />
    <glyph glyph-name="Agrave" unicode="&#xc0;" horiz-adv-x="1500" 
d="M1102 0l-109 344h-507l-111 -344h-303l501 1443h355l501 -1443h-327zM732 1143l-181 -566h378l-179 566h-18zM638 1590l-253 325h298l172 -325h-217z" />
    <glyph glyph-name="Aacute" unicode="&#xc1;" horiz-adv-x="1500" 
d="M1102 0l-109 344h-507l-111 -344h-303l501 1443h355l501 -1443h-327zM732 1143l-181 -566h378l-179 566h-18zM862 1590h-217l172 325h298z" />
    <glyph glyph-name="Adieresis" unicode="&#xc4;" horiz-adv-x="1500" 
d="M1102 0l-109 344h-507l-111 -344h-303l501 1443h355l501 -1443h-327zM732 1143l-181 -566h378l-179 566h-18zM509 1601c-85 0 -155 69 -155 156c0 88 70 157 155 157c86 0 156 -69 156 -157c0 -87 -70 -156 -156 -156zM991 1601c-86 0 -156 69 -156 156
c0 88 70 157 156 157s155 -69 155 -157c0 -87 -69 -156 -155 -156z" />
    <glyph glyph-name="Adieresismacron" unicode="&#x1de;" horiz-adv-x="1500" 
d="M1102 0l-109 344h-507l-111 -344h-303l501 1443h355l501 -1443h-327zM732 1143l-181 -566h378l-179 566h-18zM516 1879c88 0 153 -63 153 -150s-65 -150 -153 -150c-89 0 -154 63 -154 150s65 150 154 150zM377 2164h746v-168h-746v168zM984 1879c89 0 154 -63 154 -150
s-65 -150 -154 -150c-88 0 -153 63 -153 150s65 150 153 150z" />
    <glyph glyph-name="Aring" unicode="&#x212b;" horiz-adv-x="1500" 
d="M1102 0l-109 344h-507l-111 -344h-303l501 1443h355l501 -1443h-327zM732 1143l-181 -566h378l-179 566h-18zM750 1535c-115 0 -210 89 -210 206c0 116 95 206 210 206s210 -90 210 -206c0 -117 -95 -206 -210 -206zM750 1651c52 0 93 38 93 90s-41 89 -93 89
s-93 -37 -93 -89s41 -90 93 -90z" />
    <glyph glyph-name="Aring" unicode="&#xc5;" horiz-adv-x="1500" 
d="M1102 0l-109 344h-507l-111 -344h-303l501 1443h355l501 -1443h-327zM732 1143l-181 -566h378l-179 566h-18zM750 1535c-115 0 -210 89 -210 206c0 116 95 206 210 206s210 -90 210 -206c0 -117 -95 -206 -210 -206zM750 1651c52 0 93 38 93 90s-41 89 -93 89
s-93 -37 -93 -89s41 -90 93 -90z" />
    <glyph glyph-name="Aringacute" unicode="&#x1fa;" horiz-adv-x="1500" 
d="M1102 0l-109 344h-507l-111 -344h-303l501 1443h355l501 -1443h-327zM732 1143l-181 -566h378l-179 566h-18zM751 1531c-123 0 -217 89 -217 211c0 120 93 208 217 208c122 0 215 -88 215 -208c0 -122 -93 -211 -215 -211zM750 1655c50 0 86 37 86 85c0 49 -37 85 -86 85
c-50 0 -86 -37 -86 -85s36 -85 86 -85zM741 2214h264l-135 -191h-237z" />
    <glyph glyph-name="Atilde" unicode="&#xc3;" horiz-adv-x="1500" 
d="M1102 0l-109 344h-507l-111 -344h-303l501 1443h355l501 -1443h-327zM732 1143l-181 -566h378l-179 566h-18zM898 1578c-162 0 -193 138 -278 138c-52 0 -77 -48 -77 -134h-181c0 201 100 319 246 319c162 0 191 -145 281 -145c54 0 77 54 77 140h181
c0 -198 -101 -318 -249 -318z" />
    <glyph glyph-name="Abrevegrave" unicode="&#x1eb0;" horiz-adv-x="1500" 
d="M1102 0l-109 344h-507l-111 -344h-303l501 1443h355l501 -1443h-327zM732 1143l-181 -566h378l-179 566h-18zM1150 1910c0 -193 -153 -331 -400 -331s-400 138 -400 331h208c2 -95 76 -159 192 -159s190 64 192 159h208zM881 1925h-225l-229 254h270z" />
    <glyph glyph-name="Adotmacron" unicode="&#x1e0;" horiz-adv-x="1500" 
d="M1102 0l-109 344h-507l-111 -344h-303l501 1443h355l501 -1443h-327zM732 1143l-181 -566h378l-179 566h-18zM750 1575c-91 0 -156 64 -156 150c0 85 65 148 156 148s156 -63 156 -148c0 -86 -65 -150 -156 -150zM1123 2164v-168h-746v168h746z" />
    <glyph glyph-name="Aringbelow" unicode="&#x1e00;" horiz-adv-x="1500" 
d="M1102 0l-109 344h-507l-111 -344h-303l501 1443h355l501 -1443h-327zM732 1143l-181 -566h378l-179 566h-18zM739 -524c-133 0 -245 101 -245 238c0 139 112 240 245 240s245 -101 245 -240c0 -137 -112 -238 -245 -238zM739 -389c59 0 107 44 107 103
c0 61 -48 105 -107 105s-107 -44 -107 -105c0 -59 48 -103 107 -103z" />
    <glyph glyph-name="Acircumflex" unicode="&#xc2;" horiz-adv-x="1500" 
d="M1102 0l-109 344h-507l-111 -344h-303l501 1443h355l501 -1443h-327zM732 1143l-181 -566h378l-179 566h-18zM614 1915h272l284 -325h-265l-146 181h-18l-146 -181h-265z" />
    <glyph glyph-name="Acircumflexdotbelow" unicode="&#x1eac;" horiz-adv-x="1500" 
d="M1102 0l-109 344h-507l-111 -344h-303l501 1443h355l501 -1443h-327zM732 1143l-181 -566h378l-179 566h-18zM614 1915h272l284 -325h-265l-146 181h-18l-146 -181h-265zM739 -452c-90 0 -165 74 -165 166c0 93 75 167 165 167c91 0 165 -74 165 -167
c0 -92 -74 -166 -165 -166z" />
    <glyph glyph-name="Acircumflexacute" unicode="&#x1ea4;" horiz-adv-x="1500" 
d="M1102 0l-109 344h-507l-111 -344h-303l501 1443h355l501 -1443h-327zM732 1143l-181 -566h378l-179 566h-18zM605 1848h290l278 -269h-272l-141 143h-20l-141 -143h-272zM987 1885l183 294h272l-212 -294h-243z" />
    <glyph glyph-name="Acircumflextilde" unicode="&#x1eaa;" horiz-adv-x="1500" 
d="M1102 0l-109 344h-507l-111 -344h-303l501 1443h355l501 -1443h-327zM732 1143l-181 -566h378l-179 566h-18zM899 1898c-161 0 -183 123 -280 123c-50 0 -83 -37 -86 -107h-174c0 176 100 279 242 279c161 0 183 -123 280 -123c46 0 82 32 87 109h173
c0 -175 -100 -281 -242 -281zM605 1843h290l278 -264h-272l-141 143h-20l-141 -143h-272z" />
    <glyph glyph-name="Acircumflexgrave" unicode="&#x1ea6;" horiz-adv-x="1500" 
d="M1102 0l-109 344h-507l-111 -344h-303l501 1443h355l501 -1443h-327zM732 1143l-181 -566h378l-179 566h-18zM605 1848h290l278 -269h-272l-141 143h-20l-141 -143h-272zM1277 1885h-243l-212 294h273z" />
    <glyph glyph-name="Acircumflexhookabove" unicode="&#x1ea8;" horiz-adv-x="1500" 
d="M1102 0l-109 344h-507l-111 -344h-303l501 1443h355l501 -1443h-327zM732 1143l-181 -566h378l-179 566h-18zM605 1848h290l278 -269h-272l-141 143h-20l-141 -143h-272zM895 2028v147c29 11 81 19 137 19c142 0 234 -77 234 -197c0 -106 -60 -188 -168 -231l-105 103
c60 23 89 61 89 102c0 44 -37 72 -94 72c-36 0 -71 -6 -93 -15z" />
    <glyph glyph-name="Abreve" unicode="&#x102;" horiz-adv-x="1500" 
d="M1102 0l-109 344h-507l-111 -344h-303l501 1443h355l501 -1443h-327zM732 1143l-181 -566h378l-179 566h-18zM355 1913h208c2 -95 71 -161 187 -161s185 66 187 161h208c0 -194 -148 -333 -395 -333s-395 139 -395 333z" />
    <glyph glyph-name="Abreveacute" unicode="&#x1eae;" horiz-adv-x="1500" 
d="M1102 0l-109 344h-507l-111 -344h-303l501 1443h355l501 -1443h-327zM732 1143l-181 -566h378l-179 566h-18zM350 1910h208c2 -95 76 -159 192 -159s190 64 192 159h208c0 -193 -153 -331 -400 -331s-400 138 -400 331zM619 1925l184 254h270l-229 -254h-225z" />
    <glyph glyph-name="Abrevetilde" unicode="&#x1eb4;" horiz-adv-x="1500" 
d="M1102 0l-109 344h-507l-111 -344h-303l501 1443h355l501 -1443h-327zM732 1143l-181 -566h378l-179 566h-18zM368 1858h197c2 -58 71 -116 185 -116s183 58 185 116h197c0 -148 -145 -279 -382 -279s-382 131 -382 279zM904 1912c-152 0 -190 117 -282 117
c-48 0 -79 -35 -81 -92h-174c0 156 93 256 229 256c152 0 190 -116 282 -116c44 0 79 29 82 94h173c0 -157 -93 -259 -229 -259z" />
    <glyph glyph-name="Abrevehookabove" unicode="&#x1eb2;" horiz-adv-x="1500" 
d="M1102 0l-109 344h-507l-111 -344h-303l501 1443h355l501 -1443h-327zM732 1143l-181 -566h378l-179 566h-18zM551 2065v141c33 13 80 23 132 23c148 0 243 -76 243 -197c0 -104 -65 -186 -185 -232l-86 105c62 23 94 62 94 103c0 45 -40 75 -100 75c-35 0 -72 -7 -98 -18
zM361 1874h188c5 -89 78 -145 201 -145s196 56 201 145h188c0 -183 -149 -310 -389 -310s-389 127 -389 310z" />
    <glyph glyph-name="Abrevedotbelow" unicode="&#x1eb6;" horiz-adv-x="1500" 
d="M1102 0l-109 344h-507l-111 -344h-303l501 1443h355l501 -1443h-327zM732 1143l-181 -566h378l-179 566h-18zM355 1913h208c2 -95 71 -161 187 -161s185 66 187 161h208c0 -194 -148 -333 -395 -333s-395 139 -395 333zM739 -452c-90 0 -165 74 -165 166
c0 93 75 167 165 167c91 0 165 -74 165 -167c0 -92 -74 -166 -165 -166z" />
    <glyph glyph-name="Ainvertedbreve" unicode="&#x202;" horiz-adv-x="1500" 
d="M1102 0l-109 344h-507l-111 -344h-303l501 1443h355l501 -1443h-327zM732 1143l-181 -566h378l-179 566h-18zM1145 1580h-208c-2 95 -71 161 -187 161s-185 -66 -187 -161h-208c0 193 148 333 395 333s395 -140 395 -333z" />
    <glyph glyph-name="Acaron" unicode="&#x1cd;" horiz-adv-x="1500" 
d="M1102 0l-109 344h-507l-111 -344h-303l501 1443h355l501 -1443h-327zM732 1143l-181 -566h378l-179 566h-18zM886 1590h-272l-284 325h265l146 -180h18l146 180h265z" />
    <glyph glyph-name="Adotaccent" unicode="&#x226;" horiz-adv-x="1500" 
d="M1102 0l-109 344h-507l-111 -344h-303l501 1443h355l501 -1443h-327zM732 1143l-181 -566h378l-179 566h-18zM750 1594c-90 0 -165 73 -165 166s75 167 165 167c91 0 165 -74 165 -167s-74 -166 -165 -166z" />
    <glyph glyph-name="Adotbelow" unicode="&#x1ea0;" horiz-adv-x="1500" 
d="M1102 0l-109 344h-507l-111 -344h-303l501 1443h355l501 -1443h-327zM732 1143l-181 -566h378l-179 566h-18zM739 -452c-90 0 -165 74 -165 166c0 93 75 167 165 167c91 0 165 -74 165 -167c0 -92 -74 -166 -165 -166z" />
    <glyph glyph-name="Ahookabove" unicode="&#x1ea2;" horiz-adv-x="1500" 
d="M1102 0l-109 344h-507l-111 -344h-303l501 1443h355l501 -1443h-327zM732 1143l-181 -566h378l-179 566h-18zM543 1826v154c35 12 91 25 155 25c148 0 250 -83 250 -210c0 -111 -76 -201 -200 -248l-92 114c63 23 107 63 107 106c0 46 -43 78 -109 78
c-43 0 -85 -8 -111 -19z" />
    <glyph glyph-name="Adblgrave" unicode="&#x200;" horiz-adv-x="1500" 
d="M1102 0l-109 344h-507l-111 -344h-303l501 1443h355l501 -1443h-327zM732 1143l-181 -566h378l-179 566h-18zM1052 1590h-199l-163 325h254zM673 1590h-202l-230 325h274z" />
    <glyph glyph-name="Amacron" unicode="&#x100;" horiz-adv-x="1500" 
d="M1102 0l-109 344h-507l-111 -344h-303l501 1443h355l501 -1443h-327zM732 1143l-181 -566h378l-179 566h-18zM1113 1844v-181h-726v181h726z" />
    <glyph glyph-name="Aogonek" unicode="&#x104;" horiz-adv-x="1500" 
d="M551 577h378l-179 566h-18zM1429 0h-31c-131 -23 -209 -102 -209 -184c0 -60 41 -104 127 -104c20 0 43 3 69 9v-167c-46 -14 -100 -21 -145 -21c-165 0 -275 93 -275 228c0 83 45 173 136 243l-108 340h-507l-111 -344h-303l501 1443h355z" />
    <glyph glyph-name="Aogonek.mini" horiz-adv-x="1500" 
d="M551 577h378l-179 566h-18zM1429 0h-31c-131 -23 -214 -85 -214 -163c0 -50 32 -91 117 -91c20 0 43 2 69 9v-167c-46 -14 -93 -22 -139 -22c-164 0 -271 81 -271 210c0 83 41 160 141 227l-108 341h-507l-111 -344h-303l501 1443h355z" />
    <glyph glyph-name="Aringbelow.mini" horiz-adv-x="1500" 
d="M1102 0l-109 344h-507l-111 -344h-303l501 1443h355l501 -1443h-327zM732 1143l-181 -566h378l-179 566h-18zM739 -494c-115 0 -210 89 -210 206c0 116 95 206 210 206s210 -90 210 -206c0 -117 -95 -206 -210 -206zM739 -378c52 0 93 38 93 90s-41 89 -93 89
s-93 -37 -93 -89s41 -90 93 -90z" />
    <glyph glyph-name="A.mini" horiz-adv-x="1490" 
d="M1094 0l-117 333h-485l-119 -333h-301l486 1286h375l486 -1286h-325zM730 1037l-170 -487h350l-167 487h-13z" />
    <glyph glyph-name="Adieresismacron.mini" horiz-adv-x="1490" 
d="M1094 0l-117 333h-485l-119 -333h-301l486 1286h375l486 -1286h-325zM730 1037l-170 -487h350l-167 487h-13zM372 1764v178h746v-178h-746zM526 1398c-82 0 -141 55 -141 131c0 77 59 131 141 131s141 -54 141 -131c0 -76 -59 -131 -141 -131zM964 1398
c-82 0 -141 55 -141 131c0 77 59 131 141 131s141 -54 141 -131c0 -76 -59 -131 -141 -131z" />
    <glyph glyph-name="Aringacute.mini" horiz-adv-x="1490" 
d="M1094 0l-117 333h-485l-119 -333h-301l486 1286h375l486 -1286h-325zM730 1037l-170 -487h350l-167 487h-13zM660 1552c0 -48 36 -84 84 -84c49 0 85 36 85 84c0 47 -36 83 -85 83c-48 -1 -84 -37 -84 -83zM745 1353c-117 0 -205 85 -205 200c0 114 88 198 205 198
s204 -84 204 -198c0 -115 -88 -200 -204 -200zM708 1950h255l-97 -131h-222z" />
    <glyph glyph-name="Abrevegrave.mini" horiz-adv-x="1490" 
d="M1094 0l-117 333h-485l-119 -333h-301l486 1286h375l486 -1286h-325zM730 1037l-170 -487h350l-167 487h-13zM345 1705h208c1 -86 71 -147 192 -147s191 61 192 147h208c0 -171 -141 -314 -400 -314s-400 143 -400 314zM872 1715h-242l-190 235h283z" />
    <glyph glyph-name="Adotmacron.mini" horiz-adv-x="1490" 
d="M1094 0l-117 333h-485l-119 -333h-301l486 1286h375l486 -1286h-325zM730 1037l-170 -487h350l-167 487h-13zM745 1395c-88 0 -150 59 -150 141s62 140 150 140s150 -58 150 -140s-62 -141 -150 -141zM1118 1770h-746v172h746v-172z" />
    <glyph glyph-name="Acircumflexacute.mini" horiz-adv-x="1490" 
d="M1094 0l-117 333h-485l-119 -333h-301l486 1286h375l486 -1286h-325zM730 1037l-170 -487h350l-167 487h-13zM895 1661l284 -263h-283l-141 138h-20l-141 -138h-283l284 263h300zM984 1706l159 244h283l-188 -244h-254z" />
    <glyph glyph-name="Acircumflextilde.mini" horiz-adv-x="1490" 
d="M1094 0l-117 333h-485l-119 -333h-301l486 1286h375l486 -1286h-325zM730 1037l-170 -487h350l-167 487h-13zM900 1644l279 -246h-284l-140 135h-20l-140 -135h-284l279 246h310zM903 1690c-158 0 -202 100 -291 100c-53 0 -81 -34 -83 -77h-180c0 140 87 237 237 237
c160 0 206 -100 292 -100c55 0 80 27 83 89h180c0 -150 -87 -249 -238 -249z" />
    <glyph glyph-name="Acircumflexgrave.mini" horiz-adv-x="1490" 
d="M1094 0l-117 333h-485l-119 -333h-301l486 1286h375l486 -1286h-325zM730 1037l-170 -487h350l-167 487h-13zM895 1661l284 -263h-283l-141 138h-20l-141 -138h-283l284 263h300zM1251 1706h-254l-188 244h283z" />
    <glyph glyph-name="Acircumflexhookabove.mini" horiz-adv-x="1490" 
d="M1094 0l-117 333h-485l-119 -333h-301l486 1286h375l486 -1286h-325zM730 1037l-170 -487h350l-167 487h-13zM895 1661l284 -263h-283l-141 138h-20l-141 -138h-283l284 263h300zM905 1798v132c29 11 88 20 144 20c140 0 235 -76 235 -198c0 -100 -69 -185 -155 -214
l-104 101c47 18 76 57 76 96c0 46 -36 78 -96 78c-36 0 -78 -6 -100 -15z" />
    <glyph glyph-name="Abreveacute.mini" horiz-adv-x="1490" 
d="M1094 0l-117 333h-485l-119 -333h-301l486 1286h375l486 -1286h-325zM730 1037l-170 -487h350l-167 487h-13zM345 1705h208c1 -86 71 -147 192 -147s191 61 192 147h208c0 -171 -141 -314 -400 -314s-400 143 -400 314zM609 1715l149 235h283l-190 -235h-242z" />
    <glyph glyph-name="Abrevehookabove.mini" horiz-adv-x="1490" 
d="M1094 0l-117 333h-485l-119 -333h-301l486 1286h375l486 -1286h-325zM730 1037l-170 -487h350l-167 487h-13zM358 1674h200c1 -65 67 -125 187 -125s186 60 187 125h200c0 -145 -136 -283 -387 -283s-387 138 -387 283zM565 1807v117c38 16 88 26 137 26
c119 0 204 -58 204 -155c0 -86 -79 -165 -165 -178l-70 90c29 5 78 32 78 70c0 35 -30 49 -84 49c-47 0 -75 -8 -100 -19z" />
    <glyph glyph-name="Abrevetilde.mini" horiz-adv-x="1490" 
d="M1094 0l-117 333h-485l-119 -333h-301l486 1286h375l486 -1286h-325zM730 1037l-170 -487h350l-167 487h-13zM358 1656h200c1 -48 67 -104 187 -104s186 56 187 104h200c0 -128 -137 -265 -387 -265s-387 137 -387 265zM903 1693c-149 0 -201 100 -287 100
c-52 0 -82 -24 -84 -69h-174c0 127 83 226 228 226c146 0 204 -100 288 -100c53 0 81 28 84 86h174c0 -134 -81 -243 -229 -243z" />
    <glyph glyph-name="B" unicode="B" horiz-adv-x="1420" 
d="M823 0h-648v1443h631c280 0 447 -137 447 -360c0 -153 -113 -286 -261 -308v-18c191 -14 330 -158 330 -344c0 -253 -191 -413 -499 -413zM477 1212v-367h227c163 0 252 67 252 183c0 115 -83 184 -227 184h-252zM477 231h269c174 0 268 73 268 208
c0 132 -97 202 -275 202h-262v-410z" />
    <glyph glyph-name="Blinebelow" unicode="&#x1e06;" horiz-adv-x="1420" 
d="M823 0h-648v1443h631c280 0 447 -137 447 -360c0 -153 -113 -286 -261 -308v-18c191 -14 330 -158 330 -344c0 -253 -191 -413 -499 -413zM477 1212v-367h227c163 0 252 67 252 183c0 115 -83 184 -227 184h-252zM477 231h269c174 0 268 73 268 208
c0 132 -97 202 -275 202h-262v-410zM1006 -195v-181h-726v181h726z" />
    <glyph glyph-name="Bdotbelow" unicode="&#x1e04;" horiz-adv-x="1420" 
d="M823 0h-648v1443h631c280 0 447 -137 447 -360c0 -153 -113 -286 -261 -308v-18c191 -14 330 -158 330 -344c0 -253 -191 -413 -499 -413zM477 1212v-367h227c163 0 252 67 252 183c0 115 -83 184 -227 184h-252zM477 231h269c174 0 268 73 268 208
c0 132 -97 202 -275 202h-262v-410zM643 -452c-90 0 -165 74 -165 166c0 93 75 167 165 167c91 0 165 -74 165 -167c0 -92 -74 -166 -165 -166z" />
    <glyph glyph-name="Bdotaccent" unicode="&#x1e02;" horiz-adv-x="1420" 
d="M823 0h-648v1443h631c280 0 447 -137 447 -360c0 -153 -113 -286 -261 -308v-18c191 -14 330 -158 330 -344c0 -253 -191 -413 -499 -413zM477 1212v-367h227c163 0 252 67 252 183c0 115 -83 184 -227 184h-252zM477 231h269c174 0 268 73 268 208
c0 132 -97 202 -275 202h-262v-410zM643 1594c-90 0 -165 73 -165 166s75 167 165 167c91 0 165 -74 165 -167s-74 -166 -165 -166z" />
    <glyph glyph-name="C" unicode="C" horiz-adv-x="1518" 
d="M788 -37c-418 0 -677 289 -677 759c0 469 258 758 677 758c342 0 604 -227 626 -541h-294c-29 166 -160 275 -332 275c-227 0 -368 -188 -368 -492s141 -493 369 -493c173 0 303 102 332 261h294c-25 -312 -279 -527 -627 -527z" />
    <glyph glyph-name="Cacute" unicode="&#x106;" horiz-adv-x="1518" 
d="M788 -37c-418 0 -677 289 -677 759c0 469 258 758 677 758c342 0 604 -227 626 -541h-294c-29 166 -160 275 -332 275c-227 0 -368 -188 -368 -492s141 -493 369 -493c173 0 303 102 332 261h294c-25 -312 -279 -527 -627 -527zM900 1590h-217l172 325h298z" />
    <glyph glyph-name="Ccaron" unicode="&#x10c;" horiz-adv-x="1518" 
d="M788 -37c-418 0 -677 289 -677 759c0 469 258 758 677 758c342 0 604 -227 626 -541h-294c-29 166 -160 275 -332 275c-227 0 -368 -188 -368 -492s141 -493 369 -493c173 0 303 102 332 261h294c-25 -312 -279 -527 -627 -527zM924 1590h-272l-284 325h265l146 -180h18
l146 180h265z" />
    <glyph glyph-name="Ccircumflex" unicode="&#x108;" horiz-adv-x="1518" 
d="M788 -37c-418 0 -677 289 -677 759c0 469 258 758 677 758c342 0 604 -227 626 -541h-294c-29 166 -160 275 -332 275c-227 0 -368 -188 -368 -492s141 -493 369 -493c173 0 303 102 332 261h294c-25 -312 -279 -527 -627 -527zM652 1915h272l284 -325h-265l-146 181h-18
l-146 -181h-265z" />
    <glyph glyph-name="Cdotaccent" unicode="&#x10a;" horiz-adv-x="1518" 
d="M788 -37c-418 0 -677 289 -677 759c0 469 258 758 677 758c342 0 604 -227 626 -541h-294c-29 166 -160 275 -332 275c-227 0 -368 -188 -368 -492s141 -493 369 -493c173 0 303 102 332 261h294c-25 -312 -279 -527 -627 -527zM788 1594c-90 0 -165 73 -165 166
s75 167 165 167c91 0 165 -74 165 -167s-74 -166 -165 -166z" />
    <glyph glyph-name="Ccedilla" unicode="&#xc7;" horiz-adv-x="1518" 
d="M1121 490h294c-23 -286 -238 -490 -540 -522l-47 -74c121 -8 205 -71 205 -179c0 -140 -119 -206 -282 -206c-52 0 -106 7 -146 17v138c15 -5 62 -13 109 -13c59 0 119 13 119 57c0 40 -44 53 -131 53h-66v118l56 89c-361 42 -581 321 -581 754c0 469 258 758 677 758
c342 0 604 -227 626 -541h-294c-29 166 -160 275 -332 275c-227 0 -368 -188 -368 -492s141 -493 369 -493c173 0 303 102 332 261z" />
    <glyph glyph-name="Ccedillaacute" unicode="&#x1e08;" horiz-adv-x="1518" 
d="M1153 1915l-253 -325h-217l172 325h298zM1121 490h294c-23 -286 -238 -490 -540 -522l-47 -74c121 -8 205 -71 205 -179c0 -140 -119 -206 -282 -206c-52 0 -106 7 -146 17v138c15 -5 62 -13 109 -13c59 0 119 13 119 57c0 40 -44 53 -131 53h-66v118l56 89
c-361 42 -581 321 -581 754c0 469 258 758 677 758c342 0 604 -227 626 -541h-294c-29 166 -160 275 -332 275c-227 0 -368 -188 -368 -492s141 -493 369 -493c173 0 303 102 332 261z" />
    <glyph glyph-name="Ccedilla.mini" horiz-adv-x="1518" 
d="M1121 490h294c-23 -287 -239 -492 -544 -523l-42 -58c119 -8 190 -65 190 -162c0 -113 -103 -179 -273 -179c-50 0 -103 6 -134 16v124c26 -5 68 -10 109 -10c63 0 107 14 107 52c0 39 -33 53 -115 53h-71v80l54 85c-364 40 -585 319 -585 754c0 469 258 758 677 758
c342 0 604 -227 626 -541h-294c-29 166 -160 275 -332 275c-227 0 -368 -188 -368 -492s141 -493 369 -493c173 0 303 102 332 261z" />
    <glyph glyph-name="Ccedillaacute.mini" horiz-adv-x="1518" 
d="M1153 1915l-253 -325h-217l172 325h298zM1121 490h294c-23 -287 -239 -492 -544 -523l-42 -58c119 -8 190 -65 190 -162c0 -113 -103 -179 -273 -179c-50 0 -103 6 -134 16v124c26 -5 68 -10 109 -10c63 0 107 14 107 52c0 39 -33 53 -115 53h-71v80l54 85
c-364 40 -585 319 -585 754c0 469 258 758 677 758c342 0 604 -227 626 -541h-294c-29 166 -160 275 -332 275c-227 0 -368 -188 -368 -492s141 -493 369 -493c173 0 303 102 332 261z" />
    <glyph glyph-name="D" unicode="D" horiz-adv-x="1531" 
d="M175 1443h568c429 0 677 -259 677 -711c0 -469 -245 -732 -677 -732h-568v1443zM477 1185v-927h218c267 0 417 164 417 469c0 292 -155 458 -417 458h-218z" />
    <glyph glyph-name="Ddotaccent" unicode="&#x1e0a;" horiz-adv-x="1531" 
d="M175 1443h568c429 0 677 -259 677 -711c0 -469 -245 -732 -677 -732h-568v1443zM477 1185v-927h218c267 0 417 164 417 469c0 292 -155 458 -417 458h-218zM649 1594c-90 0 -165 73 -165 166s75 167 165 167c91 0 165 -74 165 -167s-74 -166 -165 -166z" />
    <glyph glyph-name="Dcircumflexbelow" unicode="&#x1e12;" horiz-adv-x="1531" 
d="M175 1443h568c429 0 677 -259 677 -711c0 -469 -245 -732 -677 -732h-568v1443zM477 1185v-927h218c267 0 417 164 417 469c0 292 -155 458 -417 458h-218zM513 -129h272l284 -325h-265l-146 181h-18l-146 -181h-265z" />
    <glyph glyph-name="Dcommaaccent" unicode="&#x1e10;" horiz-adv-x="1531" 
d="M175 1443h568c429 0 677 -259 677 -711c0 -469 -245 -732 -677 -732h-568v1443zM477 1185v-927h218c267 0 417 164 417 469c0 292 -155 458 -417 458h-218zM624 -494h-213l97 365h282z" />
    <glyph glyph-name="Dlinebelow" unicode="&#x1e0e;" horiz-adv-x="1531" 
d="M175 1443h568c429 0 677 -259 677 -711c0 -469 -245 -732 -677 -732h-568v1443zM477 1185v-927h218c267 0 417 164 417 469c0 292 -155 458 -417 458h-218zM1012 -195v-181h-726v181h726z" />
    <glyph glyph-name="Dcaron" unicode="&#x10e;" horiz-adv-x="1531" 
d="M175 1443h568c429 0 677 -259 677 -711c0 -469 -245 -732 -677 -732h-568v1443zM477 1185v-927h218c267 0 417 164 417 469c0 292 -155 458 -417 458h-218zM785 1590h-272l-284 325h265l146 -180h18l146 180h265z" />
    <glyph glyph-name="Ddotbelow" unicode="&#x1e0c;" horiz-adv-x="1531" 
d="M175 1443h568c429 0 677 -259 677 -711c0 -469 -245 -732 -677 -732h-568v1443zM477 1185v-927h218c267 0 417 164 417 469c0 292 -155 458 -417 458h-218zM649 -452c-90 0 -165 74 -165 166c0 93 75 167 165 167c91 0 165 -74 165 -167c0 -92 -74 -166 -165 -166z" />
    <glyph glyph-name="Dcroat" unicode="&#x110;" horiz-adv-x="1531" 
d="M477 258h218c267 0 417 164 417 469c0 292 -155 458 -417 458h-218v-339h258v-228h-258v-360zM175 1443h568c429 0 677 -259 677 -711c0 -469 -245 -732 -677 -732h-568v618h-125v228h125v597z" />
    <glyph glyph-name="Dcommaaccent.mini" horiz-adv-x="1531" 
d="M175 1443h568c429 0 677 -259 677 -711c0 -469 -245 -732 -677 -732h-568v1443zM477 1185v-927h218c267 0 417 164 417 469c0 292 -155 458 -417 458h-218zM643 -432h-245l101 292h296z" />
    <glyph glyph-name="E" unicode="E" horiz-adv-x="1274" 
d="M1131 258v-258h-956v1443h956v-258h-654v-337h617v-239h-617v-351h654z" />
    <glyph glyph-name="Egrave" unicode="&#xc8;" horiz-adv-x="1274" 
d="M1131 258v-258h-956v1443h956v-258h-654v-337h617v-239h-617v-351h654zM541 1590l-253 325h298l172 -325h-217z" />
    <glyph glyph-name="Edblgrave" unicode="&#x204;" horiz-adv-x="1274" 
d="M1131 258v-258h-956v1443h956v-258h-654v-337h617v-239h-617v-351h654zM955 1590h-199l-163 325h254zM576 1590h-202l-230 325h274z" />
    <glyph glyph-name="Eacute" unicode="&#xc9;" horiz-adv-x="1274" 
d="M1131 258v-258h-956v1443h956v-258h-654v-337h617v-239h-617v-351h654zM765 1590h-217l172 325h298z" />
    <glyph glyph-name="Ecircumflex" unicode="&#xca;" horiz-adv-x="1274" 
d="M1131 258v-258h-956v1443h956v-258h-654v-337h617v-239h-617v-351h654zM517 1915h272l284 -325h-265l-146 181h-18l-146 -181h-265z" />
    <glyph glyph-name="Ecircumflexhookabove" unicode="&#x1ec2;" horiz-adv-x="1274" 
d="M1131 258v-258h-956v1443h956v-258h-654v-337h617v-239h-617v-351h654zM508 1848h290l278 -269h-272l-141 143h-20l-141 -143h-272zM798 2028v147c29 11 81 19 137 19c142 0 234 -77 234 -197c0 -106 -60 -188 -168 -231l-105 103c60 23 89 61 89 102c0 44 -37 72 -94 72
c-36 0 -71 -6 -93 -15z" />
    <glyph glyph-name="Ecircumflexgrave" unicode="&#x1ec0;" horiz-adv-x="1274" 
d="M1131 258v-258h-956v1443h956v-258h-654v-337h617v-239h-617v-351h654zM508 1848h290l278 -269h-272l-141 143h-20l-141 -143h-272zM1180 1885h-243l-212 294h273z" />
    <glyph glyph-name="Ecircumflextilde" unicode="&#x1ec4;" horiz-adv-x="1274" 
d="M1131 258v-258h-956v1443h956v-258h-654v-337h617v-239h-617v-351h654zM802 1898c-161 0 -183 123 -280 123c-50 0 -83 -37 -86 -107h-174c0 176 100 279 242 279c161 0 183 -123 280 -123c46 0 82 32 87 109h173c0 -175 -100 -281 -242 -281zM508 1843h290l278 -264
h-272l-141 143h-20l-141 -143h-272z" />
    <glyph glyph-name="Ecircumflexdotbelow" unicode="&#x1ec6;" horiz-adv-x="1274" 
d="M1131 258v-258h-956v1443h956v-258h-654v-337h617v-239h-617v-351h654zM517 1915h272l284 -325h-265l-146 181h-18l-146 -181h-265zM653 -452c-90 0 -165 74 -165 166c0 93 75 167 165 167c91 0 165 -74 165 -167c0 -92 -74 -166 -165 -166z" />
    <glyph glyph-name="Ecircumflexacute" unicode="&#x1ebe;" horiz-adv-x="1274" 
d="M1131 258v-258h-956v1443h956v-258h-654v-337h617v-239h-617v-351h654zM508 1848h290l278 -269h-272l-141 143h-20l-141 -143h-272zM890 1885l183 294h272l-212 -294h-243z" />
    <glyph glyph-name="Edieresis" unicode="&#xcb;" horiz-adv-x="1274" 
d="M1131 258v-258h-956v1443h956v-258h-654v-337h617v-239h-617v-351h654zM412 1601c-85 0 -155 69 -155 156c0 88 70 157 155 157c86 0 156 -69 156 -157c0 -87 -70 -156 -156 -156zM894 1601c-86 0 -156 69 -156 156c0 88 70 157 156 157s155 -69 155 -157
c0 -87 -69 -156 -155 -156z" />
    <glyph glyph-name="Edotbelow" unicode="&#x1eb8;" horiz-adv-x="1274" 
d="M1131 258v-258h-956v1443h956v-258h-654v-337h617v-239h-617v-351h654zM653 -452c-90 0 -165 74 -165 166c0 93 75 167 165 167c91 0 165 -74 165 -167c0 -92 -74 -166 -165 -166z" />
    <glyph glyph-name="Einvertedbreve" unicode="&#x206;" horiz-adv-x="1274" 
d="M1131 258v-258h-956v1443h956v-258h-654v-337h617v-239h-617v-351h654zM1048 1580h-208c-2 95 -71 161 -187 161s-185 -66 -187 -161h-208c0 193 148 333 395 333s395 -140 395 -333z" />
    <glyph glyph-name="Ehookabove" unicode="&#x1eba;" horiz-adv-x="1274" 
d="M1131 258v-258h-956v1443h956v-258h-654v-337h617v-239h-617v-351h654zM446 1826v154c35 12 91 25 155 25c148 0 250 -83 250 -210c0 -111 -76 -201 -200 -248l-92 114c63 23 107 63 107 106c0 46 -43 78 -109 78c-43 0 -85 -8 -111 -19z" />
    <glyph glyph-name="Ecaron" unicode="&#x11a;" horiz-adv-x="1274" 
d="M1131 258v-258h-956v1443h956v-258h-654v-337h617v-239h-617v-351h654zM789 1590h-272l-284 325h265l146 -180h18l146 180h265z" />
    <glyph glyph-name="Emacron" unicode="&#x112;" horiz-adv-x="1274" 
d="M1131 258v-258h-956v1443h956v-258h-654v-337h617v-239h-617v-351h654zM1016 1844v-181h-726v181h726z" />
    <glyph glyph-name="Emacrongrave" unicode="&#x1e14;" horiz-adv-x="1274" 
d="M1131 258v-258h-956v1443h956v-258h-654v-337h617v-239h-617v-351h654zM280 1611v178h746v-178h-746zM775 1915h-255l-189 264h285z" />
    <glyph glyph-name="Emacronacute" unicode="&#x1e16;" horiz-adv-x="1274" 
d="M1131 258v-258h-956v1443h956v-258h-654v-337h617v-239h-617v-351h654zM1026 1611h-746v178h746v-178zM531 1915l159 264h285l-189 -264h-255z" />
    <glyph glyph-name="Etilde" unicode="&#x1ebc;" horiz-adv-x="1274" 
d="M1131 258v-258h-956v1443h956v-258h-654v-337h617v-239h-617v-351h654zM801 1578c-162 0 -193 138 -278 138c-52 0 -77 -48 -77 -134h-181c0 201 100 319 246 319c162 0 191 -145 281 -145c54 0 77 54 77 140h181c0 -198 -101 -318 -249 -318z" />
    <glyph glyph-name="Ecircumflexbelow" unicode="&#x1e18;" horiz-adv-x="1274" 
d="M1131 258v-258h-956v1443h956v-258h-654v-337h617v-239h-617v-351h654zM799 -129l255 -353h-258l-134 209h-18l-134 -209h-258l255 353h292z" />
    <glyph glyph-name="Ebreve" unicode="&#x114;" horiz-adv-x="1274" 
d="M1131 258v-258h-956v1443h956v-258h-654v-337h617v-239h-617v-351h654zM258 1913h208c2 -95 71 -161 187 -161s185 66 187 161h208c0 -194 -148 -333 -395 -333s-395 139 -395 333z" />
    <glyph glyph-name="Etildebelow" unicode="&#x1e1a;" horiz-adv-x="1274" 
d="M1131 258v-258h-956v1443h956v-258h-654v-337h617v-239h-617v-351h654zM801 -447c-162 0 -193 138 -278 138c-52 0 -77 -47 -77 -133h-181c0 200 100 318 246 318c162 0 191 -144 281 -144c54 0 77 53 77 140h181c0 -198 -101 -319 -249 -319z" />
    <glyph glyph-name="Edotaccent" unicode="&#x116;" horiz-adv-x="1274" 
d="M1131 258v-258h-956v1443h956v-258h-654v-337h617v-239h-617v-351h654zM653 1594c-90 0 -165 73 -165 166s75 167 165 167c91 0 165 -74 165 -167s-74 -166 -165 -166z" />
    <glyph glyph-name="Ecedilla" unicode="&#x228;" horiz-adv-x="1274" 
d="M1131 1185h-654v-337h617v-239h-617v-351h654v-258h-371l-67 -106c121 -8 205 -71 205 -179c0 -140 -119 -206 -282 -206c-52 0 -106 7 -146 17v138c15 -5 62 -13 109 -13c59 0 119 13 119 57c0 40 -44 53 -131 53h-66v118l76 121h-402v1443h956v-258z" />
    <glyph glyph-name="Ecedillabreve" unicode="&#x1e1c;" horiz-adv-x="1274" 
d="M840 1913h208c0 -194 -148 -333 -395 -333s-395 139 -395 333h208c2 -95 71 -161 187 -161s185 66 187 161zM1131 1185h-654v-337h617v-239h-617v-351h654v-258h-371l-67 -106c121 -8 205 -71 205 -179c0 -140 -119 -206 -282 -206c-52 0 -106 7 -146 17v138
c15 -5 62 -13 109 -13c59 0 119 13 119 57c0 40 -44 53 -131 53h-66v118l76 121h-402v1443h956v-258z" />
    <glyph glyph-name="Eogonek" unicode="&#x118;" horiz-adv-x="1274" 
d="M1131 1185h-654v-337h617v-239h-617v-351h654v-258c-131 -23 -209 -102 -209 -184c0 -60 41 -104 127 -104c20 0 43 3 69 9v-167c-46 -14 -100 -21 -145 -21c-165 0 -275 93 -275 228c0 81 43 170 131 239h-654v1443h956v-258z" />
    <glyph glyph-name="Eogonek.mini" horiz-adv-x="1274" 
d="M1131 1185h-654v-337h617v-239h-617v-351h654v-258c-131 -23 -214 -85 -214 -163c0 -50 32 -91 117 -91c20 0 43 2 69 9v-167c-46 -14 -93 -22 -139 -22c-164 0 -271 81 -271 210c0 82 40 157 137 224h-655v1443h956v-258z" />
    <glyph glyph-name="Ecedillabreve.mini" horiz-adv-x="1274" 
d="M840 1913h208c0 -194 -148 -333 -395 -333s-395 139 -395 333h208c2 -95 71 -161 187 -161s185 66 187 161zM1131 1185h-654v-337h617v-239h-617v-351h654v-258h-372l-65 -91c119 -8 190 -65 190 -162c0 -113 -103 -179 -273 -179c-50 0 -103 6 -134 16v124
c26 -5 68 -10 109 -10c63 0 107 14 107 52c0 39 -33 53 -115 53h-71v80l75 117h-407v1443h956v-258z" />
    <glyph glyph-name="Ecedilla.mini" horiz-adv-x="1274" 
d="M1131 1185h-654v-337h617v-239h-617v-351h654v-258h-372l-65 -91c119 -8 190 -65 190 -162c0 -113 -103 -179 -273 -179c-50 0 -103 6 -134 16v124c26 -5 68 -10 109 -10c63 0 107 14 107 52c0 39 -33 53 -115 53h-71v80l75 117h-407v1443h956v-258z" />
    <glyph glyph-name="E.mini" horiz-adv-x="1274" 
d="M1131 247v-247h-956v1286h956v-247h-654v-280h617v-218h-617v-294h654z" />
    <glyph glyph-name="Emacronacute.mini" horiz-adv-x="1274" 
d="M1131 247v-247h-956v1286h956v-247h-654v-280h617v-218h-617v-294h654zM1026 1429h-746v172h746v-172zM516 1715l159 235h283l-188 -235h-254z" />
    <glyph glyph-name="Ecircumflexhookabove.mini" horiz-adv-x="1274" 
d="M1131 247v-247h-956v1286h956v-247h-654v-280h617v-218h-617v-294h654zM803 1661l284 -263h-283l-141 138h-20l-141 -138h-283l284 263h300zM813 1798v132c29 11 88 20 144 20c140 0 235 -76 235 -198c0 -100 -69 -185 -155 -214l-104 101c47 18 76 57 76 96
c0 46 -36 78 -96 78c-36 0 -78 -6 -100 -15z" />
    <glyph glyph-name="Emacrongrave.mini" horiz-adv-x="1274" 
d="M1131 247v-247h-956v1286h956v-247h-654v-280h617v-218h-617v-294h654zM1026 1429h-746v172h746v-172zM790 1715h-254l-188 235h283z" />
    <glyph glyph-name="Ecircumflexacute.mini" horiz-adv-x="1274" 
d="M1131 247v-247h-956v1286h956v-247h-654v-280h617v-218h-617v-294h654zM803 1661l284 -263h-283l-141 138h-20l-141 -138h-283l284 263h300zM892 1706l159 244h283l-188 -244h-254z" />
    <glyph glyph-name="Ecircumflexgrave.mini" horiz-adv-x="1274" 
d="M1131 247v-247h-956v1286h956v-247h-654v-280h617v-218h-617v-294h654zM803 1661l284 -263h-283l-141 138h-20l-141 -138h-283l284 263h300zM1159 1706h-254l-188 244h283z" />
    <glyph glyph-name="Ecircumflextilde.mini" horiz-adv-x="1274" 
d="M1131 247v-247h-956v1286h956v-247h-654v-280h617v-218h-617v-294h654zM808 1644l279 -246h-284l-140 135h-20l-140 -135h-284l279 246h310zM811 1690c-158 0 -202 100 -291 100c-53 0 -81 -34 -83 -77h-180c0 140 87 237 237 237c160 0 206 -100 292 -100
c55 0 80 27 83 89h180c0 -150 -87 -249 -238 -249z" />
    <glyph glyph-name="F" unicode="F" horiz-adv-x="1224" 
d="M477 0h-302v1443h945v-258h-643v-376h587v-247h-587v-562z" />
    <glyph glyph-name="Fdotaccent" unicode="&#x1e1e;" horiz-adv-x="1224" 
d="M477 0h-302v1443h945v-258h-643v-376h587v-247h-587v-562zM648 1594c-90 0 -165 73 -165 166s75 167 165 167c91 0 165 -74 165 -167s-74 -166 -165 -166z" />
    <glyph glyph-name="G" unicode="G" horiz-adv-x="1557" 
d="M1443 589c0 -386 -246 -626 -640 -626c-429 0 -692 288 -692 760c0 465 265 757 685 757c341 0 592 -197 634 -497h-300c-45 146 -166 231 -334 231c-233 0 -376 -185 -376 -488c0 -309 150 -497 388 -497c198 0 335 117 341 291l1 26h-313v227h606v-184z" />
    <glyph glyph-name="Gacute" unicode="&#x1f4;" horiz-adv-x="1557" 
d="M1443 589c0 -386 -246 -626 -640 -626c-429 0 -692 288 -692 760c0 465 265 757 685 757c341 0 592 -197 634 -497h-300c-45 146 -166 231 -334 231c-233 0 -376 -185 -376 -488c0 -309 150 -497 388 -497c198 0 335 117 341 291l1 26h-313v227h606v-184zM908 1591h-217
l172 325h298z" />
    <glyph glyph-name="Gcaron" unicode="&#x1e6;" horiz-adv-x="1557" 
d="M1443 589c0 -386 -246 -626 -640 -626c-429 0 -692 288 -692 760c0 465 265 757 685 757c341 0 592 -197 634 -497h-300c-45 146 -166 231 -334 231c-233 0 -376 -185 -376 -488c0 -309 150 -497 388 -497c198 0 335 117 341 291l1 26h-313v227h606v-184zM932 1591h-272
l-284 325h265l146 -180h18l146 180h265z" />
    <glyph glyph-name="Gcircumflex" unicode="&#x11c;" horiz-adv-x="1557" 
d="M1443 589c0 -386 -246 -626 -640 -626c-429 0 -692 288 -692 760c0 465 265 757 685 757c341 0 592 -197 634 -497h-300c-45 146 -166 231 -334 231c-233 0 -376 -185 -376 -488c0 -309 150 -497 388 -497c198 0 335 117 341 291l1 26h-313v227h606v-184zM660 1916h272
l284 -325h-265l-146 181h-18l-146 -181h-265z" />
    <glyph glyph-name="Gbreve" unicode="&#x11e;" horiz-adv-x="1557" 
d="M1443 589c0 -386 -246 -626 -640 -626c-429 0 -692 288 -692 760c0 465 265 757 685 757c341 0 592 -197 634 -497h-300c-45 146 -166 231 -334 231c-233 0 -376 -185 -376 -488c0 -309 150 -497 388 -497c198 0 335 117 341 291l1 26h-313v227h606v-184zM401 1914h208
c2 -95 71 -161 187 -161s185 66 187 161h208c0 -194 -148 -333 -395 -333s-395 139 -395 333z" />
    <glyph glyph-name="Gmacron" unicode="&#x1e20;" horiz-adv-x="1557" 
d="M1443 589c0 -386 -246 -626 -640 -626c-429 0 -692 288 -692 760c0 465 265 757 685 757c341 0 592 -197 634 -497h-300c-45 146 -166 231 -334 231c-233 0 -376 -185 -376 -488c0 -309 150 -497 388 -497c198 0 335 117 341 291l1 26h-313v227h606v-184zM1159 1845v-181
h-726v181h726z" />
    <glyph glyph-name="Gdotaccent" unicode="&#x120;" horiz-adv-x="1557" 
d="M1443 589c0 -386 -246 -626 -640 -626c-429 0 -692 288 -692 760c0 465 265 757 685 757c341 0 592 -197 634 -497h-300c-45 146 -166 231 -334 231c-233 0 -376 -185 -376 -488c0 -309 150 -497 388 -497c198 0 335 117 341 291l1 26h-313v227h606v-184zM796 1595
c-90 0 -165 73 -165 166s75 167 165 167c91 0 165 -74 165 -167s-74 -166 -165 -166z" />
    <glyph glyph-name="Gcommaaccent" unicode="&#x122;" horiz-adv-x="1557" 
d="M1443 589c0 -386 -246 -626 -640 -626c-429 0 -692 288 -692 760c0 465 265 757 685 757c341 0 592 -197 634 -497h-300c-45 146 -166 231 -334 231c-233 0 -376 -185 -376 -488c0 -309 150 -497 388 -497c198 0 335 117 341 291l1 26h-313v227h606v-184zM778 -494h-213
l97 365h282z" />
    <glyph glyph-name="Gcommaaccent.mini" horiz-adv-x="1557" 
d="M1443 589c0 -386 -246 -626 -640 -626c-429 0 -692 288 -692 760c0 465 265 757 685 757c341 0 592 -197 634 -497h-300c-45 146 -166 231 -334 231c-233 0 -376 -185 -376 -488c0 -309 150 -497 388 -497c198 0 335 117 341 291l1 26h-313v227h606v-184zM797 -432h-245
l101 292h296z" />
    <glyph glyph-name="H" unicode="H" horiz-adv-x="1604" 
d="M1429 0h-302v603h-650v-603h-302v1443h302v-582h650v582h302v-1443z" />
    <glyph glyph-name="Hdieresis" unicode="&#x1e26;" horiz-adv-x="1604" 
d="M1429 0h-302v603h-650v-603h-302v1443h302v-582h650v582h302v-1443zM561 1601c-85 0 -155 69 -155 156c0 88 70 157 155 157c86 0 156 -69 156 -157c0 -87 -70 -156 -156 -156zM1043 1601c-86 0 -156 69 -156 156c0 88 70 157 156 157s155 -69 155 -157
c0 -87 -69 -156 -155 -156z" />
    <glyph glyph-name="Hcaron" unicode="&#x21e;" horiz-adv-x="1604" 
d="M1429 0h-302v603h-650v-603h-302v1443h302v-582h650v582h302v-1443zM938 1590h-272l-284 325h265l146 -180h18l146 180h265z" />
    <glyph glyph-name="Hcircumflex" unicode="&#x124;" horiz-adv-x="1604" 
d="M1429 0h-302v603h-650v-603h-302v1443h302v-582h650v582h302v-1443zM666 1915h272l284 -325h-265l-146 181h-18l-146 -181h-265z" />
    <glyph glyph-name="Hdotbelow" unicode="&#x1e24;" horiz-adv-x="1604" 
d="M1429 0h-302v603h-650v-603h-302v1443h302v-582h650v582h302v-1443zM802 -452c-90 0 -165 74 -165 166c0 93 75 167 165 167c91 0 165 -74 165 -167c0 -92 -74 -166 -165 -166z" />
    <glyph glyph-name="Hdotaccent" unicode="&#x1e22;" horiz-adv-x="1604" 
d="M1429 0h-302v603h-650v-603h-302v1443h302v-582h650v582h302v-1443zM802 1594c-90 0 -165 73 -165 166s75 167 165 167c91 0 165 -74 165 -167s-74 -166 -165 -166z" />
    <glyph glyph-name="Hbrevebelow" unicode="&#x1e2a;" horiz-adv-x="1604" 
d="M1429 0h-302v603h-650v-603h-302v1443h302v-582h650v582h302v-1443zM410 -107h207c2 -112 66 -183 185 -183s183 71 185 183h207c0 -210 -144 -356 -392 -356s-392 146 -392 356z" />
    <glyph glyph-name="Hcedilla" unicode="&#x1e28;" horiz-adv-x="1604" 
d="M1127 1443h302v-1443h-302v603h-650v-575v-28l-67 -106c122 -8 205 -71 205 -179c0 -140 -119 -206 -281 -206c-52 0 -106 7 -146 17v138c15 -5 62 -13 109 -13c59 0 118 13 118 57c0 40 -44 53 -130 53h-66v118l76 121h-120v1443h302v-582h650v582z" />
    <glyph glyph-name="Hbar" unicode="&#x126;" horiz-adv-x="1604" 
d="M1127 861v182h-650v-182h650zM1586 1271v-228h-157v-1043h-302v603h-650v-603h-302v1043h-157v228h157v172h302v-172h650v172h302v-172h157z" />
    <glyph glyph-name="Hcedilla.mini" horiz-adv-x="1604" 
d="M1127 1443h302v-1443h-302v603h-650v-567v-36l-65 -91c120 -8 191 -65 191 -162c0 -113 -103 -179 -273 -179c-50 0 -103 6 -134 16v124c26 -5 68 -10 109 -10c63 0 106 14 106 52c0 39 -33 53 -114 53h-71v80l75 117h-126v1443h302v-582h650v582z" />
    <glyph glyph-name="I" unicode="I" horiz-adv-x="652" 
d="M477 0h-302v1443h302v-1443z" />
    <glyph glyph-name="Idotaccent" unicode="&#x130;" horiz-adv-x="652" 
d="M477 0h-302v1443h302v-1443zM326 1594c-90 0 -165 73 -165 166s75 167 165 167c91 0 165 -74 165 -167s-74 -166 -165 -166z" />
    <glyph glyph-name="Igrave" unicode="&#xcc;" horiz-adv-x="652" 
d="M477 0h-302v1443h302v-1443zM214 1590l-253 325h298l172 -325h-217z" />
    <glyph glyph-name="Idblgrave" unicode="&#x208;" horiz-adv-x="652" 
d="M477 0h-302v1443h302v-1443zM628 1590h-199l-163 325h254zM249 1590h-202l-230 325h274z" />
    <glyph glyph-name="Iacute" unicode="&#xcd;" horiz-adv-x="652" 
d="M477 0h-302v1443h302v-1443zM438 1590h-217l172 325h298z" />
    <glyph glyph-name="Icircumflex" unicode="&#xce;" horiz-adv-x="652" 
d="M477 0h-302v1443h302v-1443zM190 1915h272l284 -325h-265l-146 181h-18l-146 -181h-265z" />
    <glyph glyph-name="Icaron" unicode="&#x1cf;" horiz-adv-x="652" 
d="M477 0h-302v1443h302v-1443zM462 1590h-272l-284 325h265l146 -180h18l146 180h265z" />
    <glyph glyph-name="Idieresis" unicode="&#xcf;" horiz-adv-x="652" 
d="M477 0h-302v1443h302v-1443zM85 1601c-85 0 -155 69 -155 156c0 88 70 157 155 157c86 0 156 -69 156 -157c0 -87 -70 -156 -156 -156zM567 1601c-86 0 -156 69 -156 156c0 88 70 157 156 157s155 -69 155 -157c0 -87 -69 -156 -155 -156z" />
    <glyph glyph-name="Idieresisacute" unicode="&#x1e2e;" horiz-adv-x="652" 
d="M477 0h-302v1443h302v-1443zM206 1937l166 242h292l-218 -242h-240zM92 1579c-90 0 -156 64 -156 152s66 152 156 152c89 0 155 -64 155 -152s-66 -152 -155 -152zM560 1579c-89 0 -155 64 -155 152s66 152 155 152c90 0 156 -64 156 -152s-66 -152 -156 -152z" />
    <glyph glyph-name="Ibreve" unicode="&#x12c;" horiz-adv-x="652" 
d="M477 0h-302v1443h302v-1443zM-69 1913h208c2 -95 71 -161 187 -161s185 66 187 161h208c0 -194 -148 -333 -395 -333s-395 139 -395 333z" />
    <glyph glyph-name="Idotbelow" unicode="&#x1eca;" horiz-adv-x="652" 
d="M477 0h-302v1443h302v-1443zM326 -452c-90 0 -165 74 -165 166c0 93 75 167 165 167c91 0 165 -74 165 -167c0 -92 -74 -166 -165 -166z" />
    <glyph glyph-name="Iinvertedbreve" unicode="&#x20a;" horiz-adv-x="652" 
d="M477 0h-302v1443h302v-1443zM721 1580h-208c-2 95 -71 161 -187 161s-185 -66 -187 -161h-208c0 193 148 333 395 333s395 -140 395 -333z" />
    <glyph glyph-name="Imacron" unicode="&#x12a;" horiz-adv-x="652" 
d="M477 0h-302v1443h302v-1443zM689 1844v-181h-726v181h726z" />
    <glyph glyph-name="Itildebelow" unicode="&#x1e2c;" horiz-adv-x="652" 
d="M477 0h-302v1443h302v-1443zM474 -447c-162 0 -193 138 -278 138c-52 0 -77 -47 -77 -133h-181c0 200 100 318 246 318c162 0 191 -144 281 -144c54 0 77 53 77 140h181c0 -198 -101 -319 -249 -319z" />
    <glyph glyph-name="Ihookabove" unicode="&#x1ec8;" horiz-adv-x="652" 
d="M477 0h-302v1443h302v-1443zM119 1826v154c35 12 91 25 155 25c148 0 250 -83 250 -210c0 -111 -76 -201 -200 -248l-92 114c63 23 107 63 107 106c0 46 -43 78 -109 78c-43 0 -85 -8 -111 -19z" />
    <glyph glyph-name="Itilde" unicode="&#x128;" horiz-adv-x="652" 
d="M477 0h-302v1443h302v-1443zM474 1578c-162 0 -193 138 -278 138c-52 0 -77 -48 -77 -134h-181c0 201 100 319 246 319c162 0 191 -145 281 -145c54 0 77 54 77 140h181c0 -198 -101 -318 -249 -318z" />
    <glyph glyph-name="Iogonek" unicode="&#x12e;" horiz-adv-x="652" 
d="M477 1443v-1443c-131 -23 -209 -102 -209 -184c0 -60 41 -104 127 -104c20 0 43 3 69 9v-167c-46 -14 -100 -21 -145 -21c-165 0 -275 93 -275 228c0 81 43 170 131 239v1443h302z" />
    <glyph glyph-name="Iogonek.mini" horiz-adv-x="652" 
d="M477 1443v-1443c-131 -23 -214 -85 -214 -163c0 -50 32 -91 117 -91c20 0 43 2 69 9v-167c-46 -14 -93 -22 -139 -22c-164 0 -271 81 -271 210c0 82 40 157 137 224h-1v1443h302z" />
    <glyph glyph-name="I.mini" horiz-adv-x="652" 
d="M477 0h-302v1286h302v-1286z" />
    <glyph glyph-name="Idieresisacute.mini" horiz-adv-x="652" 
d="M477 0h-302v1286h302v-1286zM107 1398c-83 0 -143 56 -143 133s60 133 143 133s143 -56 143 -133s-60 -133 -143 -133zM545 1398c-83 0 -143 56 -143 133s60 133 143 133s143 -56 143 -133s-60 -133 -143 -133zM190 1726l158 224h283l-189 -224h-252z" />
    <glyph glyph-name="I.1" horiz-adv-x="1076" 
d="M116 0v248h271v948h-271v247h844v-247h-271v-948h271v-248h-844z" />
    <glyph glyph-name="Idotaccent.1" horiz-adv-x="1076" 
d="M116 0v248h271v948h-271v247h844v-247h-271v-948h271v-248h-844zM538 1594c-90 0 -165 73 -165 166s75 167 165 167c91 0 165 -74 165 -167s-74 -166 -165 -166z" />
    <glyph glyph-name="Igrave.1" horiz-adv-x="1076" 
d="M116 0v248h271v948h-271v247h844v-247h-271v-948h271v-248h-844zM426 1590l-253 325h298l172 -325h-217z" />
    <glyph glyph-name="Idblgrave.1" horiz-adv-x="1076" 
d="M116 0v248h271v948h-271v247h844v-247h-271v-948h271v-248h-844zM840 1590h-199l-163 325h254zM461 1590h-202l-230 325h274z" />
    <glyph glyph-name="Iacute.1" horiz-adv-x="1076" 
d="M116 0v248h271v948h-271v247h844v-247h-271v-948h271v-248h-844zM650 1590h-217l172 325h298z" />
    <glyph glyph-name="Icircumflex.1" horiz-adv-x="1076" 
d="M116 0v248h271v948h-271v247h844v-247h-271v-948h271v-248h-844zM402 1915h272l284 -325h-265l-146 181h-18l-146 -181h-265z" />
    <glyph glyph-name="Icaron.1" horiz-adv-x="1076" 
d="M116 0v248h271v948h-271v247h844v-247h-271v-948h271v-248h-844zM674 1590h-272l-284 325h265l146 -180h18l146 180h265z" />
    <glyph glyph-name="Idieresis.1" horiz-adv-x="1076" 
d="M116 0v248h271v948h-271v247h844v-247h-271v-948h271v-248h-844zM297 1601c-85 0 -155 69 -155 156c0 88 70 157 155 157c86 0 156 -69 156 -157c0 -87 -70 -156 -156 -156zM779 1601c-86 0 -156 69 -156 156c0 88 70 157 156 157s155 -69 155 -157
c0 -87 -69 -156 -155 -156z" />
    <glyph glyph-name="Idieresisacute.1" horiz-adv-x="1076" 
d="M116 0v248h271v948h-271v247h844v-247h-271v-948h271v-248h-844zM418 1937l166 242h292l-218 -242h-240zM304 1579c-90 0 -156 64 -156 152s66 152 156 152c89 0 155 -64 155 -152s-66 -152 -155 -152zM772 1579c-89 0 -155 64 -155 152s66 152 155 152
c90 0 156 -64 156 -152s-66 -152 -156 -152z" />
    <glyph glyph-name="Ibreve.1" horiz-adv-x="1076" 
d="M116 0v248h271v948h-271v247h844v-247h-271v-948h271v-248h-844zM143 1913h208c2 -95 71 -161 187 -161s185 66 187 161h208c0 -194 -148 -333 -395 -333s-395 139 -395 333z" />
    <glyph glyph-name="Idotbelow.1" horiz-adv-x="1076" 
d="M116 0v248h271v948h-271v247h844v-247h-271v-948h271v-248h-844zM538 -452c-90 0 -165 74 -165 166c0 93 75 167 165 167c91 0 165 -74 165 -167c0 -92 -74 -166 -165 -166z" />
    <glyph glyph-name="Iinvertedbreve.1" horiz-adv-x="1076" 
d="M116 0v248h271v948h-271v247h844v-247h-271v-948h271v-248h-844zM933 1580h-208c-2 95 -71 161 -187 161s-185 -66 -187 -161h-208c0 193 148 333 395 333s395 -140 395 -333z" />
    <glyph glyph-name="Imacron.1" horiz-adv-x="1076" 
d="M116 0v248h271v948h-271v247h844v-247h-271v-948h271v-248h-844zM901 1844v-181h-726v181h726z" />
    <glyph glyph-name="Itildebelow.1" horiz-adv-x="1076" 
d="M116 0v248h271v948h-271v247h844v-247h-271v-948h271v-248h-844zM686 -447c-162 0 -193 138 -278 138c-52 0 -77 -47 -77 -133h-181c0 200 100 318 246 318c162 0 191 -144 281 -144c54 0 77 53 77 140h181c0 -198 -101 -319 -249 -319z" />
    <glyph glyph-name="Ihookabove.1" horiz-adv-x="1076" 
d="M116 0v248h271v948h-271v247h844v-247h-271v-948h271v-248h-844zM331 1826v154c35 12 91 25 155 25c148 0 250 -83 250 -210c0 -111 -76 -201 -200 -248l-92 114c63 23 107 63 107 106c0 46 -43 78 -109 78c-43 0 -85 -8 -111 -19z" />
    <glyph glyph-name="Itilde.1" horiz-adv-x="1076" 
d="M116 0v248h271v948h-271v247h844v-247h-271v-948h271v-248h-844zM686 1578c-162 0 -193 138 -278 138c-52 0 -77 -48 -77 -134h-181c0 201 100 319 246 319c162 0 191 -145 281 -145c54 0 77 54 77 140h181c0 -198 -101 -318 -249 -318z" />
    <glyph glyph-name="Iogonek.1" horiz-adv-x="1076" 
d="M960 1196h-271v-948h271v-248c-131 -23 -209 -102 -209 -184c0 -60 41 -104 127 -104c20 0 43 3 69 9v-167c-46 -14 -100 -21 -145 -21c-165 0 -275 93 -275 228c0 81 43 170 131 239h-542v248h271v948h-271v247h844v-247z" />
    <glyph glyph-name="Iogonek.mini.1" horiz-adv-x="1076" 
d="M960 1196h-271v-948h271v-248c-131 -23 -214 -85 -214 -163c0 -50 32 -91 117 -91c20 0 43 2 69 9v-167c-46 -14 -93 -22 -139 -22c-164 0 -271 81 -271 210c0 82 40 157 137 224h-543v248h271v948h-271v247h844v-247z" />
    <glyph glyph-name="I.mini.1" horiz-adv-x="1076" 
d="M116 0v249h271v788h-271v249h844v-249h-271v-788h271v-249h-844z" />
    <glyph glyph-name="Idieresisacute.mini.1" horiz-adv-x="1076" 
d="M116 0v249h271v788h-271v249h844v-249h-271v-788h271v-249h-844zM319 1398c-83 0 -143 56 -143 133s60 133 143 133s143 -56 143 -133s-60 -133 -143 -133zM757 1398c-83 0 -143 56 -143 133s60 133 143 133s143 -56 143 -133s-60 -133 -143 -133zM402 1726l158 224h283
l-189 -224h-252z" />
    <glyph glyph-name="J" unicode="J" horiz-adv-x="1231" 
d="M76 424h292c2 -116 78 -191 194 -191c124 0 192 75 192 217v993h302v-995c0 -311 -184 -485 -490 -485c-296 0 -490 178 -490 461z" />
    <glyph glyph-name="Jacute" horiz-adv-x="1231" 
d="M76 424h292c2 -116 78 -191 194 -191c124 0 192 75 192 217v993h302v-995c0 -311 -184 -485 -490 -485c-296 0 -490 178 -490 461zM1017 1590h-217l172 325h298z" />
    <glyph glyph-name="Jcircumflex" unicode="&#x134;" horiz-adv-x="1231" 
d="M76 424h292c2 -116 78 -191 194 -191c124 0 192 75 192 217v993h302v-995c0 -311 -184 -485 -490 -485c-296 0 -490 178 -490 461zM769 1915h272l284 -325h-265l-146 181h-18l-146 -181h-265z" />
    <glyph glyph-name="K" unicode="&#x212a;" horiz-adv-x="1453" 
d="M477 0h-302v1443h302v-643h18l533 643h336l-526 -633l563 -810h-362l-419 604l-143 -169v-435z" />
    <glyph glyph-name="K" unicode="K" horiz-adv-x="1453" 
d="M477 0h-302v1443h302v-643h18l533 643h336l-526 -633l563 -810h-362l-419 604l-143 -169v-435z" />
    <glyph glyph-name="Kacute" unicode="&#x1e30;" horiz-adv-x="1453" 
d="M477 0h-302v1443h302v-643h18l533 643h336l-526 -633l563 -810h-362l-419 604l-143 -169v-435zM814 1590h-217l172 325h298z" />
    <glyph glyph-name="Kcaron" unicode="&#x1e8;" horiz-adv-x="1453" 
d="M477 0h-302v1443h302v-643h18l533 643h336l-526 -633l563 -810h-362l-419 604l-143 -169v-435zM838 1590h-272l-284 325h265l146 -180h18l146 180h265z" />
    <glyph glyph-name="Kdotbelow" unicode="&#x1e32;" horiz-adv-x="1453" 
d="M477 0h-302v1443h302v-643h18l533 643h336l-526 -633l563 -810h-362l-419 604l-143 -169v-435zM702 -452c-90 0 -165 74 -165 166c0 93 75 167 165 167c91 0 165 -74 165 -167c0 -92 -74 -166 -165 -166z" />
    <glyph glyph-name="Klinebelow" unicode="&#x1e34;" horiz-adv-x="1453" 
d="M477 0h-302v1443h302v-643h18l533 643h336l-526 -633l563 -810h-362l-419 604l-143 -169v-435zM1065 -195v-181h-726v181h726z" />
    <glyph glyph-name="Kcommaaccent" unicode="&#x136;" horiz-adv-x="1453" 
d="M477 0h-302v1443h302v-643h18l533 643h336l-526 -633l563 -810h-362l-419 604l-143 -169v-435zM677 -494h-213l97 365h282z" />
    <glyph glyph-name="Kcommaaccent.mini" horiz-adv-x="1453" 
d="M477 0h-302v1443h302v-643h18l533 643h336l-526 -633l563 -810h-362l-419 604l-143 -169v-435zM696 -432h-245l101 292h296z" />
    <glyph glyph-name="L" unicode="L" horiz-adv-x="1218" 
d="M1119 263v-263h-944v1443h302v-1180h642z" />
    <glyph glyph-name="Lacute" unicode="&#x139;" horiz-adv-x="1218" 
d="M1119 263v-263h-944v1443h302v-1180h642zM438 1590h-217l172 325h298z" />
    <glyph glyph-name="Lcircumflexbelow" unicode="&#x1e3c;" horiz-adv-x="1218" 
d="M1119 263v-263h-944v1443h302v-1180h642zM788 -129l255 -353h-258l-134 209h-18l-134 -209h-258l255 353h292z" />
    <glyph glyph-name="Ldotbelow" unicode="&#x1e36;" horiz-adv-x="1218" 
d="M1119 263v-263h-944v1443h302v-1180h642zM642 -452c-90 0 -165 74 -165 166c0 93 75 167 165 167c91 0 165 -74 165 -167c0 -92 -74 -166 -165 -166z" />
    <glyph glyph-name="Ldotbelowmacron" unicode="&#x1e38;" horiz-adv-x="1218" 
d="M1119 263v-263h-944v1443h302v-1180h642zM642 -452c-90 0 -165 74 -165 166c0 93 75 167 165 167c91 0 165 -74 165 -167c0 -92 -74 -166 -165 -166zM689 1844v-181h-726v181h726z" />
    <glyph glyph-name="Llinebelow" unicode="&#x1e3a;" horiz-adv-x="1218" 
d="M1119 263v-263h-944v1443h302v-1180h642zM1005 -195v-181h-726v181h726z" />
    <glyph glyph-name="Lcommaaccent" unicode="&#x13b;" horiz-adv-x="1218" 
d="M1119 263v-263h-944v1443h302v-1180h642zM617 -494h-213l97 365h282z" />
    <glyph glyph-name="Lcaron" unicode="&#x13d;" horiz-adv-x="1218" 
d="M1119 263v-263h-944v1443h302v-1180h642zM713 1605h238l-62 -541h-176v541z" />
    <glyph glyph-name="Lslash" unicode="&#x141;" horiz-adv-x="1218" 
d="M477 263h642v-263h-944v658l-152 -78v205l152 78v580h302v-424l236 122v-205l-236 -122v-551z" />
    <glyph glyph-name="Lcommaaccent.mini" horiz-adv-x="1218" 
d="M1119 263v-263h-944v1443h302v-1180h642zM636 -432h-245l101 292h296z" />
    <glyph glyph-name="M" unicode="M" horiz-adv-x="1878" 
d="M1703 0h-280v965h-16l-367 -887h-201l-368 887h-16v-965h-280v1443h356l399 -974h18l400 974h355v-1443z" />
    <glyph glyph-name="Macute" unicode="&#x1e3e;" horiz-adv-x="1878" 
d="M1703 0h-280v965h-16l-367 -887h-201l-368 887h-16v-965h-280v1443h356l399 -974h18l400 974h355v-1443zM1051 1590h-217l172 325h298z" />
    <glyph glyph-name="Mdotaccent" unicode="&#x1e40;" horiz-adv-x="1878" 
d="M1703 0h-280v965h-16l-367 -887h-201l-368 887h-16v-965h-280v1443h356l399 -974h18l400 974h355v-1443zM939 1594c-90 0 -165 73 -165 166s75 167 165 167c91 0 165 -74 165 -167s-74 -166 -165 -166z" />
    <glyph glyph-name="Mdotbelow" unicode="&#x1e42;" horiz-adv-x="1878" 
d="M1703 0h-280v965h-16l-367 -887h-201l-368 887h-16v-965h-280v1443h356l399 -974h18l400 974h355v-1443zM939 -452c-90 0 -165 74 -165 166c0 93 75 167 165 167c91 0 165 -74 165 -167c0 -92 -74 -166 -165 -166z" />
    <glyph glyph-name="N" unicode="N" horiz-adv-x="1573" 
d="M464 0h-289v1443h252l664 -899h18v899h289v-1443h-250l-666 903h-18v-903z" />
    <glyph glyph-name="Ngrave" unicode="&#x1f8;" horiz-adv-x="1573" 
d="M464 0h-289v1443h252l664 -899h18v899h289v-1443h-250l-666 903h-18v-903zM671 1590l-253 325h298l172 -325h-217z" />
    <glyph glyph-name="Nacute" unicode="&#x143;" horiz-adv-x="1573" 
d="M464 0h-289v1443h252l664 -899h18v899h289v-1443h-250l-666 903h-18v-903zM895 1590h-217l172 325h298z" />
    <glyph glyph-name="Ntilde" unicode="&#xd1;" horiz-adv-x="1573" 
d="M464 0h-289v1443h252l664 -899h18v899h289v-1443h-250l-666 903h-18v-903zM931 1578c-162 0 -193 138 -278 138c-52 0 -77 -48 -77 -134h-181c0 201 100 319 246 319c162 0 191 -145 281 -145c54 0 77 54 77 140h181c0 -198 -101 -318 -249 -318z" />
    <glyph glyph-name="Ndotbelow" unicode="&#x1e46;" horiz-adv-x="1573" 
d="M464 0h-289v1443h252l664 -899h18v899h289v-1443h-250l-666 903h-18v-903zM783 -452c-90 0 -165 74 -165 166c0 93 75 167 165 167c91 0 165 -74 165 -167c0 -92 -74 -166 -165 -166z" />
    <glyph glyph-name="Ndotaccent" unicode="&#x1e44;" horiz-adv-x="1573" 
d="M464 0h-289v1443h252l664 -899h18v899h289v-1443h-250l-666 903h-18v-903zM783 1594c-90 0 -165 73 -165 166s75 167 165 167c91 0 165 -74 165 -167s-74 -166 -165 -166z" />
    <glyph glyph-name="Ncaron" unicode="&#x147;" horiz-adv-x="1573" 
d="M464 0h-289v1443h252l664 -899h18v899h289v-1443h-250l-666 903h-18v-903zM919 1590h-272l-284 325h265l146 -180h18l146 180h265z" />
    <glyph glyph-name="Ncircumflexbelow" unicode="&#x1e4a;" horiz-adv-x="1573" 
d="M464 0h-289v1443h252l664 -899h18v899h289v-1443h-250l-666 903h-18v-903zM929 -129l255 -353h-258l-134 209h-18l-134 -209h-258l255 353h292z" />
    <glyph glyph-name="Nlinebelow" unicode="&#x1e48;" horiz-adv-x="1573" 
d="M464 0h-289v1443h252l664 -899h18v899h289v-1443h-250l-666 903h-18v-903zM1146 -195v-181h-726v181h726z" />
    <glyph glyph-name="Ncommaaccent" unicode="&#x145;" horiz-adv-x="1573" 
d="M464 0h-289v1443h252l664 -899h18v899h289v-1443h-250l-666 903h-18v-903zM758 -494h-213l97 365h282z" />
    <glyph glyph-name="Ncommaaccent.mini" horiz-adv-x="1573" 
d="M464 0h-289v1443h252l664 -899h18v899h289v-1443h-250l-666 903h-18v-903zM777 -432h-245l101 292h296z" />
    <glyph glyph-name="O" unicode="O" horiz-adv-x="1611" 
d="M806 1480c425 0 694 -291 694 -758c0 -468 -268 -759 -694 -759c-429 0 -695 291 -695 759s270 758 695 758zM806 1215c-235 0 -386 -191 -386 -493c0 -301 148 -494 386 -494c235 0 385 193 385 494c0 302 -151 493 -385 493z" />
    <glyph glyph-name="Odieresis" unicode="&#xd6;" horiz-adv-x="1611" 
d="M806 1480c425 0 694 -291 694 -758c0 -468 -268 -759 -694 -759c-429 0 -695 291 -695 759s270 758 695 758zM806 1215c-235 0 -386 -191 -386 -493c0 -301 148 -494 386 -494c235 0 385 193 385 494c0 302 -151 493 -385 493zM565 1601c-85 0 -155 69 -155 156
c0 88 70 157 155 157c86 0 156 -69 156 -157c0 -87 -70 -156 -156 -156zM1047 1601c-86 0 -156 69 -156 156c0 88 70 157 156 157s155 -69 155 -157c0 -87 -69 -156 -155 -156z" />
    <glyph glyph-name="Oslash" unicode="&#xd8;" horiz-adv-x="1611" 
d="M1157 989l-602 -682c66 -60 151 -92 251 -92c245 0 400 198 400 508c0 102 -17 192 -49 266zM452 458l601 681c-65 58 -149 90 -247 90c-245 0 -401 -197 -401 -506c0 -101 16 -190 47 -265zM1474 1348l-114 -129c90 -127 140 -295 140 -496c0 -468 -267 -760 -694 -760
c-174 0 -321 48 -434 136l-111 -126l-129 123l117 132c-89 127 -138 295 -138 495c0 467 270 758 695 758c171 0 317 -47 430 -134l109 123z" />
    <glyph glyph-name="Otilde" unicode="&#xd5;" horiz-adv-x="1611" 
d="M806 1480c425 0 694 -291 694 -758c0 -468 -268 -759 -694 -759c-429 0 -695 291 -695 759s270 758 695 758zM806 1215c-235 0 -386 -191 -386 -493c0 -301 148 -494 386 -494c235 0 385 193 385 494c0 302 -151 493 -385 493zM954 1578c-162 0 -193 138 -278 138
c-52 0 -77 -48 -77 -134h-181c0 201 100 319 246 319c162 0 191 -145 281 -145c54 0 77 54 77 140h181c0 -198 -101 -318 -249 -318z" />
    <glyph glyph-name="Oacute" unicode="&#xd3;" horiz-adv-x="1611" 
d="M806 1480c425 0 694 -291 694 -758c0 -468 -268 -759 -694 -759c-429 0 -695 291 -695 759s270 758 695 758zM806 1215c-235 0 -386 -191 -386 -493c0 -301 148 -494 386 -494c235 0 385 193 385 494c0 302 -151 493 -385 493zM918 1590h-217l172 325h298z" />
    <glyph glyph-name="Ocircumflex" unicode="&#xd4;" horiz-adv-x="1611" 
d="M806 1480c425 0 694 -291 694 -758c0 -468 -268 -759 -694 -759c-429 0 -695 291 -695 759s270 758 695 758zM806 1215c-235 0 -386 -191 -386 -493c0 -301 148 -494 386 -494c235 0 385 193 385 494c0 302 -151 493 -385 493zM670 1915h272l284 -325h-265l-146 181h-18
l-146 -181h-265z" />
    <glyph glyph-name="Ograve" unicode="&#xd2;" horiz-adv-x="1611" 
d="M806 1480c425 0 694 -291 694 -758c0 -468 -268 -759 -694 -759c-429 0 -695 291 -695 759s270 758 695 758zM806 1215c-235 0 -386 -191 -386 -493c0 -301 148 -494 386 -494c235 0 385 193 385 494c0 302 -151 493 -385 493zM694 1590l-253 325h298l172 -325h-217z" />
    <glyph glyph-name="Ocircumflexhookabove" unicode="&#x1ed4;" horiz-adv-x="1611" 
d="M806 1480c425 0 694 -291 694 -758c0 -468 -268 -759 -694 -759c-429 0 -695 291 -695 759s270 758 695 758zM806 1215c-235 0 -386 -191 -386 -493c0 -301 148 -494 386 -494c235 0 385 193 385 494c0 302 -151 493 -385 493zM661 1848h290l278 -269h-272l-141 143h-20
l-141 -143h-272zM951 2028v147c29 11 81 19 137 19c142 0 234 -77 234 -197c0 -106 -60 -188 -168 -231l-105 103c60 23 89 61 89 102c0 44 -37 72 -94 72c-36 0 -71 -6 -93 -15z" />
    <glyph glyph-name="Ocircumflexgrave" unicode="&#x1ed2;" horiz-adv-x="1611" 
d="M806 1480c425 0 694 -291 694 -758c0 -468 -268 -759 -694 -759c-429 0 -695 291 -695 759s270 758 695 758zM806 1215c-235 0 -386 -191 -386 -493c0 -301 148 -494 386 -494c235 0 385 193 385 494c0 302 -151 493 -385 493zM661 1848h290l278 -269h-272l-141 143h-20
l-141 -143h-272zM1333 1885h-243l-212 294h273z" />
    <glyph glyph-name="Odotbelow" unicode="&#x1ecc;" horiz-adv-x="1611" 
d="M806 1480c425 0 694 -291 694 -758c0 -468 -268 -759 -694 -759c-429 0 -695 291 -695 759s270 758 695 758zM806 1215c-235 0 -386 -191 -386 -493c0 -301 148 -494 386 -494c235 0 385 193 385 494c0 302 -151 493 -385 493zM806 -452c-90 0 -165 74 -165 166
c0 93 75 167 165 167c91 0 165 -74 165 -167c0 -92 -74 -166 -165 -166z" />
    <glyph glyph-name="Odblgrave" unicode="&#x20c;" horiz-adv-x="1611" 
d="M806 1480c425 0 694 -291 694 -758c0 -468 -268 -759 -694 -759c-429 0 -695 291 -695 759s270 758 695 758zM806 1215c-235 0 -386 -191 -386 -493c0 -301 148 -494 386 -494c235 0 385 193 385 494c0 302 -151 493 -385 493zM1108 1590h-199l-163 325h254zM729 1590
h-202l-230 325h274z" />
    <glyph glyph-name="Otildeacute" unicode="&#x1e4c;" horiz-adv-x="1611" 
d="M806 1480c425 0 694 -291 694 -758c0 -468 -268 -759 -694 -759c-429 0 -695 291 -695 759s270 758 695 758zM806 1215c-235 0 -386 -191 -386 -493c0 -301 148 -494 386 -494c235 0 385 193 385 494c0 302 -151 493 -385 493zM960 1579c-161 0 -188 121 -285 121
c-50 0 -83 -35 -86 -110h-184c0 180 105 284 247 284c161 0 188 -120 285 -120c46 0 82 30 87 107h183c0 -176 -105 -282 -247 -282zM710 1937l159 242h285l-190 -242h-254z" />
    <glyph glyph-name="Omacronacute" unicode="&#x1e52;" horiz-adv-x="1611" 
d="M806 1480c425 0 694 -291 694 -758c0 -468 -268 -759 -694 -759c-429 0 -695 291 -695 759s270 758 695 758zM806 1215c-235 0 -386 -191 -386 -493c0 -301 148 -494 386 -494c235 0 385 193 385 494c0 302 -151 493 -385 493zM1179 1611h-746v178h746v-178zM684 1915
l159 264h285l-189 -264h-255z" />
    <glyph glyph-name="Ocircumflextilde" unicode="&#x1ed6;" horiz-adv-x="1611" 
d="M806 1480c425 0 694 -291 694 -758c0 -468 -268 -759 -694 -759c-429 0 -695 291 -695 759s270 758 695 758zM806 1215c-235 0 -386 -191 -386 -493c0 -301 148 -494 386 -494c235 0 385 193 385 494c0 302 -151 493 -385 493zM955 1898c-161 0 -183 123 -280 123
c-50 0 -83 -37 -86 -107h-174c0 176 100 279 242 279c161 0 183 -123 280 -123c46 0 82 32 87 109h173c0 -175 -100 -281 -242 -281zM661 1843h290l278 -264h-272l-141 143h-20l-141 -143h-272z" />
    <glyph glyph-name="Odotaccentmacron" unicode="&#x230;" horiz-adv-x="1611" 
d="M806 1480c425 0 694 -291 694 -758c0 -468 -268 -759 -694 -759c-429 0 -695 291 -695 759s270 758 695 758zM806 1215c-235 0 -386 -191 -386 -493c0 -301 148 -494 386 -494c235 0 385 193 385 494c0 302 -151 493 -385 493zM806 1575c-91 0 -156 64 -156 150
c0 85 65 148 156 148s156 -63 156 -148c0 -86 -65 -150 -156 -150zM1179 2164v-168h-746v168h746z" />
    <glyph glyph-name="Omacrongrave" unicode="&#x1e50;" horiz-adv-x="1611" 
d="M806 1480c425 0 694 -291 694 -758c0 -468 -268 -759 -694 -759c-429 0 -695 291 -695 759s270 758 695 758zM806 1215c-235 0 -386 -191 -386 -493c0 -301 148 -494 386 -494c235 0 385 193 385 494c0 302 -151 493 -385 493zM433 1611v178h746v-178h-746zM928 1915
h-255l-189 264h285z" />
    <glyph glyph-name="Ocaron" unicode="&#x1d1;" horiz-adv-x="1611" 
d="M806 1480c425 0 694 -291 694 -758c0 -468 -268 -759 -694 -759c-429 0 -695 291 -695 759s270 758 695 758zM806 1215c-235 0 -386 -191 -386 -493c0 -301 148 -494 386 -494c235 0 385 193 385 494c0 302 -151 493 -385 493zM942 1590h-272l-284 325h265l146 -180h18
l146 180h265z" />
    <glyph glyph-name="Oslashacute" unicode="&#x1fe;" horiz-adv-x="1611" 
d="M1171 1915l-253 -325h-217l172 325h298zM1157 989l-602 -682c66 -60 151 -92 251 -92c245 0 400 198 400 508c0 102 -17 192 -49 266zM452 458l601 681c-65 58 -149 90 -247 90c-245 0 -401 -197 -401 -506c0 -101 16 -190 47 -265zM1474 1348l-114 -129
c90 -127 140 -295 140 -496c0 -468 -267 -760 -694 -760c-174 0 -321 48 -434 136l-111 -126l-129 123l117 132c-89 127 -138 295 -138 495c0 467 270 758 695 758c171 0 317 -47 430 -134l109 123z" />
    <glyph glyph-name="Ohungarumlaut" unicode="&#x150;" horiz-adv-x="1611" 
d="M806 1480c425 0 694 -291 694 -758c0 -468 -268 -759 -694 -759c-429 0 -695 291 -695 759s270 758 695 758zM806 1215c-235 0 -386 -191 -386 -493c0 -301 148 -494 386 -494c235 0 385 193 385 494c0 302 -151 493 -385 493zM504 1590l108 325h254l-163 -325h-199z
M883 1590l158 325h274l-230 -325h-202z" />
    <glyph glyph-name="Obreve" unicode="&#x14e;" horiz-adv-x="1611" 
d="M806 1480c425 0 694 -291 694 -758c0 -468 -268 -759 -694 -759c-429 0 -695 291 -695 759s270 758 695 758zM806 1215c-235 0 -386 -191 -386 -493c0 -301 148 -494 386 -494c235 0 385 193 385 494c0 302 -151 493 -385 493zM411 1913h208c2 -95 71 -161 187 -161
s185 66 187 161h208c0 -194 -148 -333 -395 -333s-395 139 -395 333z" />
    <glyph glyph-name="Oinvertedbreve" unicode="&#x20e;" horiz-adv-x="1611" 
d="M806 1480c425 0 694 -291 694 -758c0 -468 -268 -759 -694 -759c-429 0 -695 291 -695 759s270 758 695 758zM806 1215c-235 0 -386 -191 -386 -493c0 -301 148 -494 386 -494c235 0 385 193 385 494c0 302 -151 493 -385 493zM1201 1580h-208c-2 95 -71 161 -187 161
s-185 -66 -187 -161h-208c0 193 148 333 395 333s395 -140 395 -333z" />
    <glyph glyph-name="Ohookabove" unicode="&#x1ece;" horiz-adv-x="1611" 
d="M806 1480c425 0 694 -291 694 -758c0 -468 -268 -759 -694 -759c-429 0 -695 291 -695 759s270 758 695 758zM806 1215c-235 0 -386 -191 -386 -493c0 -301 148 -494 386 -494c235 0 385 193 385 494c0 302 -151 493 -385 493zM599 1826v154c35 12 91 25 155 25
c148 0 250 -83 250 -210c0 -111 -76 -201 -200 -248l-92 114c63 23 107 63 107 106c0 46 -43 78 -109 78c-43 0 -85 -8 -111 -19z" />
    <glyph glyph-name="Odieresismacron" unicode="&#x22a;" horiz-adv-x="1611" 
d="M806 1480c425 0 694 -291 694 -758c0 -468 -268 -759 -694 -759c-429 0 -695 291 -695 759s270 758 695 758zM806 1215c-235 0 -386 -191 -386 -493c0 -301 148 -494 386 -494c235 0 385 193 385 494c0 302 -151 493 -385 493zM572 1879c88 0 153 -63 153 -150
s-65 -150 -153 -150c-89 0 -154 63 -154 150s65 150 154 150zM433 2164h746v-168h-746v168zM1040 1879c89 0 154 -63 154 -150s-65 -150 -154 -150c-88 0 -153 63 -153 150s65 150 153 150z" />
    <glyph glyph-name="Otildemacron" unicode="&#x22c;" horiz-adv-x="1611" 
d="M806 1480c425 0 694 -291 694 -758c0 -468 -268 -759 -694 -759c-429 0 -695 291 -695 759s270 758 695 758zM806 1215c-235 0 -386 -191 -386 -493c0 -301 148 -494 386 -494c235 0 385 193 385 494c0 302 -151 493 -385 493zM960 1579c-161 0 -188 121 -285 121
c-50 0 -83 -35 -86 -110h-184c0 180 105 284 247 284c161 0 188 -120 285 -120c46 0 82 30 87 107h183c0 -176 -105 -282 -247 -282zM1179 2164v-178h-746v178h746z" />
    <glyph glyph-name="Odotaccent" unicode="&#x22e;" horiz-adv-x="1611" 
d="M806 1480c425 0 694 -291 694 -758c0 -468 -268 -759 -694 -759c-429 0 -695 291 -695 759s270 758 695 758zM806 1215c-235 0 -386 -191 -386 -493c0 -301 148 -494 386 -494c235 0 385 193 385 494c0 302 -151 493 -385 493zM806 1594c-90 0 -165 73 -165 166
s75 167 165 167c91 0 165 -74 165 -167s-74 -166 -165 -166z" />
    <glyph glyph-name="Ocircumflexdotbelow" unicode="&#x1ed8;" horiz-adv-x="1611" 
d="M806 1480c425 0 694 -291 694 -758c0 -468 -268 -759 -694 -759c-429 0 -695 291 -695 759s270 758 695 758zM806 1215c-235 0 -386 -191 -386 -493c0 -301 148 -494 386 -494c235 0 385 193 385 494c0 302 -151 493 -385 493zM670 1915h272l284 -325h-265l-146 181h-18
l-146 -181h-265zM806 -452c-90 0 -165 74 -165 166c0 93 75 167 165 167c91 0 165 -74 165 -167c0 -92 -74 -166 -165 -166z" />
    <glyph glyph-name="Ocircumflexacute" unicode="&#x1ed0;" horiz-adv-x="1611" 
d="M806 1480c425 0 694 -291 694 -758c0 -468 -268 -759 -694 -759c-429 0 -695 291 -695 759s270 758 695 758zM806 1215c-235 0 -386 -191 -386 -493c0 -301 148 -494 386 -494c235 0 385 193 385 494c0 302 -151 493 -385 493zM661 1848h290l278 -269h-272l-141 143h-20
l-141 -143h-272zM1043 1885l183 294h272l-212 -294h-243z" />
    <glyph glyph-name="Otildedieresis" unicode="&#x1e4e;" horiz-adv-x="1611" 
d="M806 1480c425 0 694 -291 694 -758c0 -468 -268 -759 -694 -759c-429 0 -695 291 -695 759s270 758 695 758zM806 1215c-235 0 -386 -191 -386 -493c0 -301 148 -494 386 -494c235 0 385 193 385 494c0 302 -151 493 -385 493zM960 1575c-161 0 -188 121 -285 121
c-50 0 -83 -35 -86 -110h-184c0 180 105 284 247 284c161 0 188 -120 285 -120c46 0 82 30 87 107h183c0 -176 -105 -282 -247 -282zM587 2185c82 0 138 -49 138 -122c0 -72 -56 -122 -138 -122s-138 50 -138 122c0 73 56 122 138 122zM1025 2185c82 0 138 -49 138 -122
c0 -72 -56 -122 -138 -122s-138 50 -138 122c0 73 56 122 138 122z" />
    <glyph glyph-name="Omacron" unicode="&#x14c;" horiz-adv-x="1611" 
d="M806 1480c425 0 694 -291 694 -758c0 -468 -268 -759 -694 -759c-429 0 -695 291 -695 759s270 758 695 758zM806 1215c-235 0 -386 -191 -386 -493c0 -301 148 -494 386 -494c235 0 385 193 385 494c0 302 -151 493 -385 493zM1169 1844v-181h-726v181h726z" />
    <glyph glyph-name="Oogonek" unicode="&#x1ea;" horiz-adv-x="1611" 
d="M420 722c0 -301 148 -494 386 -494c235 0 385 193 385 494c0 302 -151 493 -385 493c-235 0 -386 -191 -386 -493zM1204 -279v-167c-46 -14 -94 -21 -139 -21c-165 0 -274 80 -274 209c0 83 44 163 125 228c-35 -5 -72 -7 -110 -7c-429 0 -695 291 -695 759
s270 758 695 758s694 -291 694 -758c0 -272 -91 -484 -250 -614h1c-120 -105 -236 -192 -236 -295c0 -50 35 -101 116 -101c20 0 44 2 73 9z" />
    <glyph glyph-name="Oogonekmacron" unicode="&#x1ec;" horiz-adv-x="1611" 
d="M1169 1844v-181h-726v181h726zM420 722c0 -301 148 -494 386 -494c235 0 385 193 385 494c0 302 -151 493 -385 493c-235 0 -386 -191 -386 -493zM1204 -279v-167c-46 -14 -94 -21 -139 -21c-165 0 -274 80 -274 209c0 83 44 163 125 228c-35 -5 -72 -7 -110 -7
c-429 0 -695 291 -695 759s270 758 695 758s694 -291 694 -758c0 -272 -91 -484 -250 -614h1c-120 -105 -236 -192 -236 -295c0 -50 35 -101 116 -101c20 0 44 2 73 9z" />
    <glyph glyph-name="Ohorn" unicode="&#x1a0;" horiz-adv-x="1665" 
d="M806 -37c-428 0 -695 291 -695 759s271 758 695 758c174 0 272 -51 432 -51c77 0 108 30 108 89v165h231v-235c0 -133 -79 -209 -207 -209h-61v-16c112 -85 190 -285 190 -501c0 -468 -266 -759 -693 -759zM806 228c235 0 385 193 385 494c0 302 -150 493 -385 493
c-234 0 -386 -191 -386 -493c0 -301 149 -494 386 -494z" />
    <glyph glyph-name="Ohorndotbelow" unicode="&#x1ee2;" horiz-adv-x="1665" 
d="M806 -37c-428 0 -695 291 -695 759s271 758 695 758c174 0 272 -51 432 -51c77 0 108 30 108 89v165h231v-235c0 -133 -79 -209 -207 -209h-61v-16c112 -85 190 -285 190 -501c0 -468 -266 -759 -693 -759zM806 228c235 0 385 193 385 494c0 302 -150 493 -385 493
c-234 0 -386 -191 -386 -493c0 -301 149 -494 386 -494zM806 -452c-90 0 -165 74 -165 166c0 93 75 167 165 167c91 0 165 -74 165 -167c0 -92 -74 -166 -165 -166z" />
    <glyph glyph-name="Ohornhookabove" unicode="&#x1ede;" horiz-adv-x="1665" 
d="M806 -37c-428 0 -695 291 -695 759s271 758 695 758c174 0 272 -51 432 -51c77 0 108 30 108 89v165h231v-235c0 -133 -79 -209 -207 -209h-61v-16c112 -85 190 -285 190 -501c0 -468 -266 -759 -693 -759zM806 228c235 0 385 193 385 494c0 302 -150 493 -385 493
c-234 0 -386 -191 -386 -493c0 -301 149 -494 386 -494zM593 1826v154c35 12 91 25 155 25c148 0 250 -83 250 -210c0 -111 -76 -201 -200 -248l-92 114c63 23 107 63 107 106c0 46 -43 78 -109 78c-43 0 -85 -8 -111 -19z" />
    <glyph glyph-name="Ohorntilde" unicode="&#x1ee0;" horiz-adv-x="1665" 
d="M806 -37c-428 0 -695 291 -695 759s271 758 695 758c174 0 272 -51 432 -51c77 0 108 30 108 89v165h231v-235c0 -133 -79 -209 -207 -209h-61v-16c112 -85 190 -285 190 -501c0 -468 -266 -759 -693 -759zM806 228c235 0 385 193 385 494c0 302 -150 493 -385 493
c-234 0 -386 -191 -386 -493c0 -301 149 -494 386 -494zM948 1578c-162 0 -193 138 -278 138c-52 0 -77 -48 -77 -134h-181c0 201 100 319 246 319c162 0 191 -145 281 -145c54 0 77 54 77 140h181c0 -198 -101 -318 -249 -318z" />
    <glyph glyph-name="Ohorngrave" unicode="&#x1edc;" horiz-adv-x="1665" 
d="M806 -37c-428 0 -695 291 -695 759s271 758 695 758c174 0 272 -51 432 -51c77 0 108 30 108 89v165h231v-235c0 -133 -79 -209 -207 -209h-61v-16c112 -85 190 -285 190 -501c0 -468 -266 -759 -693 -759zM806 228c235 0 385 193 385 494c0 302 -150 493 -385 493
c-234 0 -386 -191 -386 -493c0 -301 149 -494 386 -494zM688 1590l-253 325h298l172 -325h-217z" />
    <glyph glyph-name="Ohornacute" unicode="&#x1eda;" horiz-adv-x="1665" 
d="M806 -37c-428 0 -695 291 -695 759s271 758 695 758c174 0 272 -51 432 -51c77 0 108 30 108 89v165h231v-235c0 -133 -79 -209 -207 -209h-61v-16c112 -85 190 -285 190 -501c0 -468 -266 -759 -693 -759zM806 228c235 0 385 193 385 494c0 302 -150 493 -385 493
c-234 0 -386 -191 -386 -493c0 -301 149 -494 386 -494zM912 1590h-217l172 325h298z" />
    <glyph glyph-name="Oogonek.mini" horiz-adv-x="1611" 
d="M420 722c0 -301 148 -494 386 -494c235 0 385 193 385 494c0 302 -151 493 -385 493c-235 0 -386 -191 -386 -493zM1210 -240v-167c-46 -14 -93 -21 -139 -21c-164 0 -274 68 -274 198c0 77 39 143 110 199c-33 -4 -66 -6 -101 -6c-429 0 -695 291 -695 759
s270 758 695 758s694 -291 694 -758c0 -272 -91 -484 -250 -614h1c-130 -108 -229 -175 -229 -265c0 -53 37 -94 114 -94c24 0 51 4 74 11z" />
    <glyph glyph-name="Ocircumflexacute.mini" horiz-adv-x="1610" 
d="M806 1323c404 0 693 -257 693 -679c0 -423 -288 -681 -693 -681c-406 0 -695 257 -695 681c0 422 293 679 695 679zM806 1058c-218 0 -386 -156 -386 -414s165 -416 386 -416c219 0 385 158 385 416s-167 414 -385 414zM956 1683l284 -263h-283l-141 138h-20l-141 -138
h-283l284 263h300zM1045 1728l159 244h283l-188 -244h-254z" />
    <glyph glyph-name="O.mini" horiz-adv-x="1610" 
d="M806 1323c404 0 693 -257 693 -679c0 -423 -288 -681 -693 -681c-406 0 -695 257 -695 681c0 422 293 679 695 679zM806 1058c-218 0 -386 -156 -386 -414s165 -416 386 -416c219 0 385 158 385 416s-167 414 -385 414z" />
    <glyph glyph-name="Ocircumflexgrave.mini" horiz-adv-x="1610" 
d="M806 1323c404 0 693 -257 693 -679c0 -423 -288 -681 -693 -681c-406 0 -695 257 -695 681c0 422 293 679 695 679zM806 1058c-218 0 -386 -156 -386 -414s165 -416 386 -416c219 0 385 158 385 416s-167 414 -385 414zM956 1683l284 -263h-283l-141 138h-20l-141 -138
h-283l284 263h300zM1312 1728h-254l-188 244h283z" />
    <glyph glyph-name="Otildemacron.mini" horiz-adv-x="1610" 
d="M806 1323c404 0 693 -257 693 -679c0 -423 -288 -681 -693 -681c-406 0 -695 257 -695 681c0 422 293 679 695 679zM806 1058c-218 0 -386 -156 -386 -414s165 -416 386 -416c219 0 385 158 385 416s-167 414 -385 414zM1179 1792h-746v172h746v-172zM958 1421
c-160 0 -197 115 -286 115c-53 0 -80 -37 -82 -96h-181c0 153 94 261 245 261c160 0 197 -115 286 -115c48 0 79 29 82 96h181c0 -150 -94 -261 -245 -261z" />
    <glyph glyph-name="Omacronacute.mini" horiz-adv-x="1610" 
d="M806 1323c404 0 693 -257 693 -679c0 -423 -288 -681 -693 -681c-406 0 -695 257 -695 681c0 422 293 679 695 679zM806 1058c-218 0 -386 -156 -386 -414s165 -416 386 -416c219 0 385 158 385 416s-167 414 -385 414zM1179 1451h-746v172h746v-172zM669 1737l159 235
h283l-188 -235h-254z" />
    <glyph glyph-name="Omacrongrave.mini" horiz-adv-x="1610" 
d="M806 1323c404 0 693 -257 693 -679c0 -423 -288 -681 -693 -681c-406 0 -695 257 -695 681c0 422 293 679 695 679zM806 1058c-218 0 -386 -156 -386 -414s165 -416 386 -416c219 0 385 158 385 416s-167 414 -385 414zM1179 1451h-746v172h746v-172zM943 1737h-254
l-188 235h283z" />
    <glyph glyph-name="Otildedieresis.mini" horiz-adv-x="1610" 
d="M806 1323c404 0 693 -257 693 -679c0 -423 -288 -681 -693 -681c-406 0 -695 257 -695 681c0 422 293 679 695 679zM806 1058c-218 0 -386 -156 -386 -414s165 -416 386 -416c219 0 385 158 385 416s-167 414 -385 414zM961 1419c-160 0 -200 102 -289 102
c-53 0 -80 -32 -82 -87h-181c0 154 89 249 240 249c160 0 202 -103 291 -103c54 0 79 25 82 87h181c0 -149 -91 -248 -242 -248zM597 1736c-80 0 -135 48 -135 118s55 118 135 118s134 -48 134 -118s-54 -118 -134 -118zM1015 1736c-80 0 -134 48 -134 118s54 118 134 118
s135 -48 135 -118s-55 -118 -135 -118z" />
    <glyph glyph-name="Otildeacute.mini" horiz-adv-x="1610" 
d="M806 1323c404 0 693 -257 693 -679c0 -423 -288 -681 -693 -681c-406 0 -695 257 -695 681c0 422 293 679 695 679zM806 1058c-218 0 -386 -156 -386 -414s165 -416 386 -416c219 0 385 158 385 416s-167 414 -385 414zM699 1755l160 217h282l-189 -217h-253zM958 1421
c-160 0 -197 115 -286 115c-53 0 -80 -37 -82 -96h-181c0 153 94 261 245 261c160 0 197 -115 286 -115c48 0 79 29 82 96h181c0 -150 -94 -261 -245 -261z" />
    <glyph glyph-name="Odieresismacron.mini" horiz-adv-x="1610" 
d="M806 1323c404 0 693 -257 693 -679c0 -423 -288 -681 -693 -681c-406 0 -695 257 -695 681c0 422 293 679 695 679zM806 1058c-218 0 -386 -156 -386 -414s165 -416 386 -416c219 0 385 158 385 416s-167 414 -385 414zM433 1786v178h746v-178h-746zM587 1420
c-82 0 -141 55 -141 131c0 77 59 131 141 131s141 -54 141 -131c0 -76 -59 -131 -141 -131zM1025 1420c-82 0 -141 55 -141 131c0 77 59 131 141 131s141 -54 141 -131c0 -76 -59 -131 -141 -131z" />
    <glyph glyph-name="Odotaccentmacron.mini" horiz-adv-x="1610" 
d="M806 1323c404 0 693 -257 693 -679c0 -423 -288 -681 -693 -681c-406 0 -695 257 -695 681c0 422 293 679 695 679zM806 1058c-218 0 -386 -156 -386 -414s165 -416 386 -416c219 0 385 158 385 416s-167 414 -385 414zM806 1417c-88 0 -150 59 -150 141s62 140 150 140
s150 -58 150 -140s-62 -141 -150 -141zM1179 1792h-746v172h746v-172z" />
    <glyph glyph-name="Ocircumflexhookabove.mini" horiz-adv-x="1610" 
d="M806 1323c404 0 693 -257 693 -679c0 -423 -288 -681 -693 -681c-406 0 -695 257 -695 681c0 422 293 679 695 679zM806 1058c-218 0 -386 -156 -386 -414s165 -416 386 -416c219 0 385 158 385 416s-167 414 -385 414zM956 1683l284 -263h-283l-141 138h-20l-141 -138
h-283l284 263h300zM966 1820v132c29 11 88 20 144 20c140 0 235 -76 235 -198c0 -100 -69 -185 -155 -214l-104 101c47 18 76 57 76 96c0 46 -36 78 -96 78c-36 0 -78 -6 -100 -15z" />
    <glyph glyph-name="Ocircumflextilde.mini" horiz-adv-x="1610" 
d="M806 1323c404 0 693 -257 693 -679c0 -423 -288 -681 -693 -681c-406 0 -695 257 -695 681c0 422 293 679 695 679zM806 1058c-218 0 -386 -156 -386 -414s165 -416 386 -416c219 0 385 158 385 416s-167 414 -385 414zM961 1666l279 -246h-284l-140 135h-20l-140 -135
h-284l279 246h310zM964 1712c-158 0 -202 100 -291 100c-53 0 -81 -34 -83 -77h-180c0 140 87 237 237 237c160 0 206 -100 292 -100c55 0 80 27 83 89h180c0 -150 -87 -249 -238 -249z" />
    <glyph glyph-name="P" unicode="P" horiz-adv-x="1380" 
d="M175 1443h602c297 0 500 -199 500 -499c0 -297 -211 -496 -515 -496h-285v-448h-302v1443zM477 1195v-502h219c173 0 274 88 274 250c0 164 -99 252 -273 252h-220z" />
    <glyph glyph-name="Pdotaccent" unicode="&#x1e56;" horiz-adv-x="1380" 
d="M175 1443h602c297 0 500 -199 500 -499c0 -297 -211 -496 -515 -496h-285v-448h-302v1443zM477 1195v-502h219c173 0 274 88 274 250c0 164 -99 252 -273 252h-220zM601 1594c-90 0 -165 73 -165 166s75 167 165 167c91 0 165 -74 165 -167s-74 -166 -165 -166z" />
    <glyph glyph-name="Pacute" unicode="&#x1e54;" horiz-adv-x="1380" 
d="M175 1443h602c297 0 500 -199 500 -499c0 -297 -211 -496 -515 -496h-285v-448h-302v1443zM477 1195v-502h219c173 0 274 88 274 250c0 164 -99 252 -273 252h-220zM713 1590h-217l172 325h298z" />
    <glyph glyph-name="Q" unicode="Q" horiz-adv-x="1610" 
d="M806 -37c-427 0 -695 288 -695 759c0 468 271 758 695 758s693 -290 693 -758c0 -269 -87 -481 -240 -606l192 -257h-281l-110 143c-76 -26 -162 -39 -254 -39zM807 216c31 0 60 3 89 11l-192 254h282l97 -123c74 79 115 207 115 364c0 309 -154 505 -392 505
c-239 0 -394 -196 -394 -505c0 -311 155 -506 395 -506z" />
    <glyph glyph-name="R" unicode="R" horiz-adv-x="1422" 
d="M477 1199v-444h265c152 0 241 82 241 221c0 137 -94 223 -244 223h-262zM477 523v-523h-302v1443h606c317 0 512 -176 512 -463c0 -184 -96 -344 -262 -410l304 -570h-342l-269 523v0h-247z" />
    <glyph glyph-name="Rcaron" unicode="&#x158;" horiz-adv-x="1422" 
d="M477 1199v-444h265c152 0 241 82 241 221c0 137 -94 223 -244 223h-262zM477 523v-523h-302v1443h606c317 0 512 -176 512 -463c0 -184 -96 -344 -262 -410l304 -570h-342l-269 523v0h-247zM788 1590h-272l-284 325h265l146 -180h18l146 180h265z" />
    <glyph glyph-name="Rlinebelow" unicode="&#x1e5e;" horiz-adv-x="1422" 
d="M477 1199v-444h265c152 0 241 82 241 221c0 137 -94 223 -244 223h-262zM477 523v-523h-302v1443h606c317 0 512 -176 512 -463c0 -184 -96 -344 -262 -410l304 -570h-342l-269 523v0h-247zM1015 -195v-181h-726v181h726z" />
    <glyph glyph-name="Rdotbelowmacron" unicode="&#x1e5c;" horiz-adv-x="1422" 
d="M477 1199v-444h265c152 0 241 82 241 221c0 137 -94 223 -244 223h-262zM477 523v-523h-302v1443h606c317 0 512 -176 512 -463c0 -184 -96 -344 -262 -410l304 -570h-342l-269 523v0h-247zM652 -452c-90 0 -165 74 -165 166c0 93 75 167 165 167c91 0 165 -74 165 -167
c0 -92 -74 -166 -165 -166zM1015 1844v-181h-726v181h726z" />
    <glyph glyph-name="Rdblgrave" unicode="&#x210;" horiz-adv-x="1422" 
d="M477 1199v-444h265c152 0 241 82 241 221c0 137 -94 223 -244 223h-262zM477 523v-523h-302v1443h606c317 0 512 -176 512 -463c0 -184 -96 -344 -262 -410l304 -570h-342l-269 523v0h-247zM954 1590h-199l-163 325h254zM575 1590h-202l-230 325h274z" />
    <glyph glyph-name="Rinvertedbreve" unicode="&#x212;" horiz-adv-x="1422" 
d="M477 1199v-444h265c152 0 241 82 241 221c0 137 -94 223 -244 223h-262zM477 523v-523h-302v1443h606c317 0 512 -176 512 -463c0 -184 -96 -344 -262 -410l304 -570h-342l-269 523v0h-247zM1047 1580h-208c-2 95 -71 161 -187 161s-185 -66 -187 -161h-208
c0 193 148 333 395 333s395 -140 395 -333z" />
    <glyph glyph-name="Racute" unicode="&#x154;" horiz-adv-x="1422" 
d="M477 1199v-444h265c152 0 241 82 241 221c0 137 -94 223 -244 223h-262zM477 523v-523h-302v1443h606c317 0 512 -176 512 -463c0 -184 -96 -344 -262 -410l304 -570h-342l-269 523v0h-247zM764 1590h-217l172 325h298z" />
    <glyph glyph-name="Rdotbelow" unicode="&#x1e5a;" horiz-adv-x="1422" 
d="M477 1199v-444h265c152 0 241 82 241 221c0 137 -94 223 -244 223h-262zM477 523v-523h-302v1443h606c317 0 512 -176 512 -463c0 -184 -96 -344 -262 -410l304 -570h-342l-269 523v0h-247zM652 -452c-90 0 -165 74 -165 166c0 93 75 167 165 167c91 0 165 -74 165 -167
c0 -92 -74 -166 -165 -166z" />
    <glyph glyph-name="Rdotaccent" unicode="&#x1e58;" horiz-adv-x="1422" 
d="M477 1199v-444h265c152 0 241 82 241 221c0 137 -94 223 -244 223h-262zM477 523v-523h-302v1443h606c317 0 512 -176 512 -463c0 -184 -96 -344 -262 -410l304 -570h-342l-269 523v0h-247zM652 1594c-90 0 -165 73 -165 166s75 167 165 167c91 0 165 -74 165 -167
s-74 -166 -165 -166z" />
    <glyph glyph-name="Rcommaaccent" unicode="&#x156;" horiz-adv-x="1422" 
d="M477 1199v-444h265c152 0 241 82 241 221c0 137 -94 223 -244 223h-262zM477 523v-523h-302v1443h606c317 0 512 -176 512 -463c0 -184 -96 -344 -262 -410l304 -570h-342l-269 523v0h-247zM627 -494h-213l97 365h282z" />
    <glyph glyph-name="Rcommaaccent.mini" horiz-adv-x="1422" 
d="M477 1199v-444h265c152 0 241 82 241 221c0 137 -94 223 -244 223h-262zM477 523v-523h-302v1443h606c317 0 512 -176 512 -463c0 -184 -96 -344 -262 -410l304 -570h-342l-269 523v0h-247zM646 -432h-245l101 292h296z" />
    <glyph glyph-name="S" unicode="S" horiz-adv-x="1383" 
d="M110 401h292c14 -117 132 -192 302 -192c157 0 268 76 268 185c0 92 -72 145 -249 183l-188 40c-263 55 -392 192 -392 412c0 272 219 451 552 451c318 0 543 -178 552 -435h-284c-14 114 -120 190 -266 190c-151 0 -251 -70 -251 -180c0 -89 69 -140 238 -176l174 -37
c290 -61 415 -186 415 -410c0 -291 -223 -469 -585 -469c-344 0 -567 169 -578 438z" />
    <glyph glyph-name="Scaron" unicode="&#x160;" horiz-adv-x="1383" 
d="M110 401h292c14 -117 132 -192 302 -192c157 0 268 76 268 185c0 92 -72 145 -249 183l-188 40c-263 55 -392 192 -392 412c0 272 219 451 552 451c318 0 543 -178 552 -435h-284c-14 114 -120 190 -266 190c-151 0 -251 -70 -251 -180c0 -89 69 -140 238 -176l174 -37
c290 -61 415 -186 415 -410c0 -291 -223 -469 -585 -469c-344 0 -567 169 -578 438zM832 1590h-272l-284 325h265l146 -180h18l146 180h265z" />
    <glyph glyph-name="Scedilla" unicode="&#x15e;" horiz-adv-x="1383" 
d="M684 879l174 -37c290 -61 415 -186 415 -410c0 -267 -188 -439 -499 -465l-46 -73c121 -8 205 -71 205 -179c0 -140 -119 -206 -282 -206c-52 0 -106 7 -146 17v138c15 -5 62 -13 109 -13c59 0 119 13 119 57c0 40 -44 53 -131 53h-66v118l55 89
c-288 29 -471 190 -481 433h292c14 -117 132 -192 302 -192c157 0 268 76 268 185c0 92 -72 145 -249 183l-188 40c-263 55 -392 192 -392 412c0 272 219 451 552 451c318 0 543 -178 552 -435h-284c-14 114 -120 190 -266 190c-151 0 -251 -70 -251 -180
c0 -89 69 -140 238 -176z" />
    <glyph glyph-name="Sdotaccent" unicode="&#x1e60;" horiz-adv-x="1383" 
d="M110 401h292c14 -117 132 -192 302 -192c157 0 268 76 268 185c0 92 -72 145 -249 183l-188 40c-263 55 -392 192 -392 412c0 272 219 451 552 451c318 0 543 -178 552 -435h-284c-14 114 -120 190 -266 190c-151 0 -251 -70 -251 -180c0 -89 69 -140 238 -176l174 -37
c290 -61 415 -186 415 -410c0 -291 -223 -469 -585 -469c-344 0 -567 169 -578 438zM696 1594c-90 0 -165 73 -165 166s75 167 165 167c91 0 165 -74 165 -167s-74 -166 -165 -166z" />
    <glyph glyph-name="Sdotbelow" unicode="&#x1e62;" horiz-adv-x="1383" 
d="M110 401h292c14 -117 132 -192 302 -192c157 0 268 76 268 185c0 92 -72 145 -249 183l-188 40c-263 55 -392 192 -392 412c0 272 219 451 552 451c318 0 543 -178 552 -435h-284c-14 114 -120 190 -266 190c-151 0 -251 -70 -251 -180c0 -89 69 -140 238 -176l174 -37
c290 -61 415 -186 415 -410c0 -291 -223 -469 -585 -469c-344 0 -567 169 -578 438zM688 -452c-90 0 -165 74 -165 166c0 93 75 167 165 167c91 0 165 -74 165 -167c0 -92 -74 -166 -165 -166z" />
    <glyph glyph-name="Scommaaccent" unicode="&#x218;" horiz-adv-x="1383" 
d="M110 401h292c14 -117 132 -192 302 -192c157 0 268 76 268 185c0 92 -72 145 -249 183l-188 40c-263 55 -392 192 -392 412c0 272 219 451 552 451c318 0 543 -178 552 -435h-284c-14 114 -120 190 -266 190c-151 0 -251 -70 -251 -180c0 -89 69 -140 238 -176l174 -37
c290 -61 415 -186 415 -410c0 -291 -223 -469 -585 -469c-344 0 -567 169 -578 438zM663 -494h-213l97 365h282z" />
    <glyph glyph-name="Sdotbelowdotaccent" unicode="&#x1e68;" horiz-adv-x="1383" 
d="M110 401h292c14 -117 132 -192 302 -192c157 0 268 76 268 185c0 92 -72 145 -249 183l-188 40c-263 55 -392 192 -392 412c0 272 219 451 552 451c318 0 543 -178 552 -435h-284c-14 114 -120 190 -266 190c-151 0 -251 -70 -251 -180c0 -89 69 -140 238 -176l174 -37
c290 -61 415 -186 415 -410c0 -291 -223 -469 -585 -469c-344 0 -567 169 -578 438zM688 -452c-90 0 -165 74 -165 166c0 93 75 167 165 167c91 0 165 -74 165 -167c0 -92 -74 -166 -165 -166zM696 1594c-90 0 -165 73 -165 166s75 167 165 167c91 0 165 -74 165 -167
s-74 -166 -165 -166z" />
    <glyph glyph-name="Scarondotaccent" unicode="&#x1e66;" horiz-adv-x="1383" 
d="M110 401h292c14 -117 132 -192 302 -192c157 0 268 76 268 185c0 92 -72 145 -249 183l-188 40c-263 55 -392 192 -392 412c0 272 219 451 552 451c318 0 543 -178 552 -435h-284c-14 114 -120 190 -266 190c-151 0 -251 -70 -251 -180c0 -89 69 -140 238 -176l174 -37
c290 -61 415 -186 415 -410c0 -291 -223 -469 -585 -469c-344 0 -567 169 -578 438zM551 1579l-278 269h272l141 -143h20l141 143h272l-278 -269h-290zM696 1913c-91 0 -156 64 -156 149s65 149 156 149s156 -64 156 -149s-65 -149 -156 -149z" />
    <glyph glyph-name="Scircumflex" unicode="&#x15c;" horiz-adv-x="1383" 
d="M110 401h292c14 -117 132 -192 302 -192c157 0 268 76 268 185c0 92 -72 145 -249 183l-188 40c-263 55 -392 192 -392 412c0 272 219 451 552 451c318 0 543 -178 552 -435h-284c-14 114 -120 190 -266 190c-151 0 -251 -70 -251 -180c0 -89 69 -140 238 -176l174 -37
c290 -61 415 -186 415 -410c0 -291 -223 -469 -585 -469c-344 0 -567 169 -578 438zM560 1915h272l284 -325h-265l-146 181h-18l-146 -181h-265z" />
    <glyph glyph-name="Sacutedotaccent" unicode="&#x1e64;" horiz-adv-x="1383" 
d="M110 401h292c14 -117 132 -192 302 -192c157 0 268 76 268 185c0 92 -72 145 -249 183l-188 40c-263 55 -392 192 -392 412c0 272 219 451 552 451c318 0 543 -178 552 -435h-284c-14 114 -120 190 -266 190c-151 0 -251 -70 -251 -180c0 -89 69 -140 238 -176l174 -37
c290 -61 415 -186 415 -410c0 -291 -223 -469 -585 -469c-344 0 -567 169 -578 438zM927 1590h-217l172 325h298zM469 1622c-90 0 -165 73 -165 166s75 167 165 167c91 0 165 -74 165 -167s-74 -166 -165 -166z" />
    <glyph glyph-name="Sacute" unicode="&#x15a;" horiz-adv-x="1383" 
d="M110 401h292c14 -117 132 -192 302 -192c157 0 268 76 268 185c0 92 -72 145 -249 183l-188 40c-263 55 -392 192 -392 412c0 272 219 451 552 451c318 0 543 -178 552 -435h-284c-14 114 -120 190 -266 190c-151 0 -251 -70 -251 -180c0 -89 69 -140 238 -176l174 -37
c290 -61 415 -186 415 -410c0 -291 -223 -469 -585 -469c-344 0 -567 169 -578 438zM808 1590h-217l172 325h298z" />
    <glyph glyph-name="germandbls.uc" unicode="&#x1e9e;" horiz-adv-x="2765" 
d="M110 401h292c14 -117 132 -192 302 -192c157 0 268 76 268 185c0 92 -72 145 -249 183l-188 40c-263 55 -392 192 -392 412c0 272 219 451 552 451c318 0 543 -178 552 -435h-284c-14 114 -120 190 -266 190c-151 0 -251 -70 -251 -180c0 -89 69 -140 238 -176l174 -37
c290 -61 415 -186 415 -410c0 -291 -223 -469 -585 -469c-344 0 -567 169 -578 438zM1493 401h292c14 -117 132 -192 302 -192c157 0 268 76 268 185c0 92 -72 145 -249 183l-188 40c-263 55 -392 192 -392 412c0 272 219 451 552 451c318 0 543 -178 552 -435h-284
c-14 114 -120 190 -266 190c-151 0 -251 -70 -251 -180c0 -89 69 -140 238 -176l174 -37c290 -61 415 -186 415 -410c0 -291 -223 -469 -585 -469c-344 0 -567 169 -578 438z" />
    <glyph glyph-name="Scommaaccent.mini" horiz-adv-x="1383" 
d="M110 401h292c14 -117 132 -192 302 -192c157 0 268 76 268 185c0 92 -72 145 -249 183l-188 40c-263 55 -392 192 -392 412c0 272 219 451 552 451c318 0 543 -178 552 -435h-284c-14 114 -120 190 -266 190c-151 0 -251 -70 -251 -180c0 -89 69 -140 238 -176l174 -37
c290 -61 415 -186 415 -410c0 -291 -223 -469 -585 -469c-344 0 -567 169 -578 438zM682 -432h-245l101 292h296z" />
    <glyph glyph-name="Scedilla.mini" horiz-adv-x="1383" 
d="M684 879l174 -37c290 -61 415 -186 415 -410c0 -268 -190 -441 -503 -466l-41 -57c119 -8 190 -65 190 -162c0 -113 -103 -179 -273 -179c-50 0 -103 6 -134 16v124c26 -5 68 -10 109 -10c63 0 107 14 107 52c0 39 -33 53 -115 53h-71v80l54 84
c-291 28 -476 190 -486 434h292c14 -117 132 -192 302 -192c157 0 268 76 268 185c0 92 -72 145 -249 183l-188 40c-263 55 -392 192 -392 412c0 272 219 451 552 451c318 0 543 -178 552 -435h-284c-14 114 -120 190 -266 190c-151 0 -251 -70 -251 -180
c0 -89 69 -140 238 -176z" />
    <glyph glyph-name="S.mini" horiz-adv-x="1383" 
d="M110 372h292c14 -110 131 -179 304 -179c168 0 266 58 266 156c0 83 -60 122 -250 163l-177 36c-273 57 -402 177 -402 370c0 246 215 405 551 405c321 0 544 -163 553 -405h-284c-14 109 -117 176 -268 176c-155 0 -249 -54 -249 -148c0 -75 69 -121 248 -158l169 -34
c287 -59 410 -171 410 -369c0 -265 -216 -422 -583 -422c-345 0 -569 158 -580 409z" />
    <glyph glyph-name="Scarondotaccent.mini" horiz-adv-x="1383" 
d="M110 372h292c14 -110 131 -179 304 -179c168 0 266 58 266 156c0 83 -60 122 -250 163l-177 36c-273 57 -402 177 -402 370c0 246 215 405 551 405c321 0 544 -163 553 -405h-284c-14 109 -117 176 -268 176c-155 0 -249 -54 -249 -148c0 -75 69 -121 248 -158l169 -34
c287 -59 410 -171 410 -369c0 -265 -216 -422 -583 -422c-345 0 -569 158 -580 409zM696 1708c-79 0 -142 59 -142 132s63 132 142 132s142 -59 142 -132s-63 -132 -142 -132zM851 1420h-310l-279 250h284l140 -136h20l140 136h284z" />
    <glyph glyph-name="T" unicode="T" horiz-adv-x="1352" 
d="M827 0h-302v1185h-433v258h1168v-258h-433v-1185z" />
    <glyph glyph-name="Tcircumflexbelow" unicode="&#x1e70;" horiz-adv-x="1352" 
d="M827 0h-302v1185h-433v258h1168v-258h-433v-1185zM822 -129l255 -353h-258l-134 209h-18l-134 -209h-258l255 353h292z" />
    <glyph glyph-name="Tdotbelow" unicode="&#x1e6c;" horiz-adv-x="1352" 
d="M827 0h-302v1185h-433v258h1168v-258h-433v-1185zM676 -452c-90 0 -165 74 -165 166c0 93 75 167 165 167c91 0 165 -74 165 -167c0 -92 -74 -166 -165 -166z" />
    <glyph glyph-name="Tcommaaccent" unicode="&#x21a;" horiz-adv-x="1352" 
d="M827 0h-302v1185h-433v258h1168v-258h-433v-1185zM651 -494h-213l97 365h282z" />
    <glyph glyph-name="Tdotaccent" unicode="&#x1e6a;" horiz-adv-x="1352" 
d="M827 0h-302v1185h-433v258h1168v-258h-433v-1185zM676 1594c-90 0 -165 73 -165 166s75 167 165 167c91 0 165 -74 165 -167s-74 -166 -165 -166z" />
    <glyph glyph-name="Tcedilla" unicode="&#x162;" horiz-adv-x="1352" 
d="M827 28v-28l-67 -106c122 -8 205 -71 205 -179c0 -140 -119 -206 -281 -206c-52 0 -106 7 -146 17v138c15 -5 62 -13 109 -13c59 0 118 13 118 57c0 40 -44 53 -130 53h-66v118l76 121h-120v1185h-433v258h1168v-258h-433v-1157z" />
    <glyph glyph-name="Tlinebelow" unicode="&#x1e6e;" horiz-adv-x="1352" 
d="M827 0h-302v1185h-433v258h1168v-258h-433v-1185zM1039 -195v-181h-726v181h726z" />
    <glyph glyph-name="Tcaron" unicode="&#x164;" horiz-adv-x="1352" 
d="M827 0h-302v1185h-433v258h1168v-258h-433v-1185zM812 1590h-272l-284 325h265l146 -180h18l146 180h265z" />
    <glyph glyph-name="Tbar" unicode="&#x166;" horiz-adv-x="1352" 
d="M1260 1185h-433v-380h287v-228h-287v-577h-302v577h-287v228h287v380h-433v258h1168v-258z" />
    <glyph glyph-name="Tcommaaccent.mini" horiz-adv-x="1352" 
d="M827 0h-302v1185h-433v258h1168v-258h-433v-1185zM670 -432h-245l101 292h296z" />
    <glyph glyph-name="Tcedilla.mini" horiz-adv-x="1352" 
d="M827 36v-36l-65 -91c120 -8 191 -65 191 -162c0 -113 -103 -179 -273 -179c-50 0 -103 6 -134 16v124c26 -5 68 -10 109 -10c63 0 106 14 106 52c0 39 -33 53 -114 53h-71v80l75 117h-126v1185h-433v258h1168v-258h-433v-1149z" />
    <glyph glyph-name="U" unicode="U" horiz-adv-x="1557" 
d="M476 1443v-914c0 -182 110 -298 303 -298s302 116 302 298v914h302v-945c0 -320 -235 -535 -604 -535s-605 215 -605 535v945h302z" />
    <glyph glyph-name="Ugrave" unicode="&#xd9;" horiz-adv-x="1557" 
d="M476 1443v-914c0 -182 110 -298 303 -298s302 116 302 298v914h302v-945c0 -320 -235 -535 -604 -535s-605 215 -605 535v945h302zM667 1590l-253 325h298l172 -325h-217z" />
    <glyph glyph-name="Udblgrave" unicode="&#x214;" horiz-adv-x="1557" 
d="M476 1443v-914c0 -182 110 -298 303 -298s302 116 302 298v914h302v-945c0 -320 -235 -535 -604 -535s-605 215 -605 535v945h302zM1081 1590h-199l-163 325h254zM702 1590h-202l-230 325h274z" />
    <glyph glyph-name="Uacute" unicode="&#xda;" horiz-adv-x="1557" 
d="M476 1443v-914c0 -182 110 -298 303 -298s302 116 302 298v914h302v-945c0 -320 -235 -535 -604 -535s-605 215 -605 535v945h302zM891 1590h-217l172 325h298z" />
    <glyph glyph-name="Uhungarumlaut" unicode="&#x170;" horiz-adv-x="1557" 
d="M476 1443v-914c0 -182 110 -298 303 -298s302 116 302 298v914h302v-945c0 -320 -235 -535 -604 -535s-605 215 -605 535v945h302zM477 1590l108 325h254l-163 -325h-199zM856 1590l158 325h274l-230 -325h-202z" />
    <glyph glyph-name="Ucircumflex" unicode="&#xdb;" horiz-adv-x="1557" 
d="M476 1443v-914c0 -182 110 -298 303 -298s302 116 302 298v914h302v-945c0 -320 -235 -535 -604 -535s-605 215 -605 535v945h302zM643 1915h272l284 -325h-265l-146 181h-18l-146 -181h-265z" />
    <glyph glyph-name="Ucaron" unicode="&#x1d3;" horiz-adv-x="1557" 
d="M476 1443v-914c0 -182 110 -298 303 -298s302 116 302 298v914h302v-945c0 -320 -235 -535 -604 -535s-605 215 -605 535v945h302zM915 1590h-272l-284 325h265l146 -180h18l146 180h265z" />
    <glyph glyph-name="Ucircumflexbelow" unicode="&#x1e76;" horiz-adv-x="1557" 
d="M476 1443v-914c0 -182 110 -298 303 -298s302 116 302 298v914h302v-945c0 -320 -235 -535 -604 -535s-605 215 -605 535v945h302zM925 -129l255 -353h-258l-134 209h-18l-134 -209h-258l255 353h292z" />
    <glyph glyph-name="Udieresis" unicode="&#xdc;" horiz-adv-x="1557" 
d="M476 1443v-914c0 -182 110 -298 303 -298s302 116 302 298v914h302v-945c0 -320 -235 -535 -604 -535s-605 215 -605 535v945h302zM538 1601c-85 0 -155 69 -155 156c0 88 70 157 155 157c86 0 156 -69 156 -157c0 -87 -70 -156 -156 -156zM1020 1601
c-86 0 -156 69 -156 156c0 88 70 157 156 157s155 -69 155 -157c0 -87 -69 -156 -155 -156z" />
    <glyph glyph-name="Udieresisgrave" unicode="&#x1db;" horiz-adv-x="1557" 
d="M476 1443v-914c0 -182 110 -298 303 -298s302 116 302 298v914h302v-945c0 -320 -235 -535 -604 -535s-605 215 -605 535v945h302zM908 1937h-240l-218 242h292zM545 1579c-90 0 -156 64 -156 152s66 152 156 152c89 0 155 -64 155 -152s-66 -152 -155 -152zM1013 1579
c-89 0 -155 64 -155 152s66 152 155 152c90 0 156 -64 156 -152s-66 -152 -156 -152z" />
    <glyph glyph-name="Udieresisacute" unicode="&#x1d7;" horiz-adv-x="1557" 
d="M476 1443v-914c0 -182 110 -298 303 -298s302 116 302 298v914h302v-945c0 -320 -235 -535 -604 -535s-605 215 -605 535v945h302zM659 1937l166 242h292l-218 -242h-240zM545 1579c-90 0 -156 64 -156 152s66 152 156 152c89 0 155 -64 155 -152s-66 -152 -155 -152z
M1013 1579c-89 0 -155 64 -155 152s66 152 155 152c90 0 156 -64 156 -152s-66 -152 -156 -152z" />
    <glyph glyph-name="Udieresismacron" unicode="&#x1d5;" horiz-adv-x="1557" 
d="M476 1443v-914c0 -182 110 -298 303 -298s302 116 302 298v914h302v-945c0 -320 -235 -535 -604 -535s-605 215 -605 535v945h302zM545 1879c88 0 153 -63 153 -150s-65 -150 -153 -150c-89 0 -154 63 -154 150s65 150 154 150zM406 2164h746v-168h-746v168zM1013 1879
c89 0 154 -63 154 -150s-65 -150 -154 -150c-88 0 -153 63 -153 150s65 150 153 150z" />
    <glyph glyph-name="Udieresiscaron" unicode="&#x1d9;" horiz-adv-x="1557" 
d="M476 1443v-914c0 -182 110 -298 303 -298s302 116 302 298v914h302v-945c0 -320 -235 -535 -604 -535s-605 215 -605 535v945h302zM644 1910l-278 300h263l140 -166h20l140 166h263l-278 -300h-270zM545 1853c88 0 151 -62 151 -144c0 -83 -63 -145 -151 -145
c-89 0 -152 62 -152 145c0 82 63 144 152 144zM1013 1853c89 0 152 -62 152 -144c0 -83 -63 -145 -152 -145c-88 0 -151 62 -151 145c0 82 63 144 151 144z" />
    <glyph glyph-name="Udieresisbelow" unicode="&#x1e72;" horiz-adv-x="1557" 
d="M476 1443v-914c0 -182 110 -298 303 -298s302 116 302 298v914h302v-945c0 -320 -235 -535 -604 -535s-605 215 -605 535v945h302zM538 -442c-85 0 -155 69 -155 156c0 88 70 157 155 157c86 0 156 -69 156 -157c0 -87 -70 -156 -156 -156zM1020 -442
c-86 0 -156 69 -156 156c0 88 70 157 156 157s155 -69 155 -157c0 -87 -69 -156 -155 -156z" />
    <glyph glyph-name="Utildebelow" unicode="&#x1e74;" horiz-adv-x="1557" 
d="M476 1443v-914c0 -182 110 -298 303 -298s302 116 302 298v914h302v-945c0 -320 -235 -535 -604 -535s-605 215 -605 535v945h302zM927 -447c-162 0 -193 138 -278 138c-52 0 -77 -47 -77 -133h-181c0 200 100 318 246 318c162 0 191 -144 281 -144c54 0 77 53 77 140
h181c0 -198 -101 -319 -249 -319z" />
    <glyph glyph-name="Uhookabove" unicode="&#x1ee6;" horiz-adv-x="1557" 
d="M476 1443v-914c0 -182 110 -298 303 -298s302 116 302 298v914h302v-945c0 -320 -235 -535 -604 -535s-605 215 -605 535v945h302zM572 1826v154c35 12 91 25 155 25c148 0 250 -83 250 -210c0 -111 -76 -201 -200 -248l-92 114c63 23 107 63 107 106
c0 46 -43 78 -109 78c-43 0 -85 -8 -111 -19z" />
    <glyph glyph-name="Ubreve" unicode="&#x16c;" horiz-adv-x="1557" 
d="M476 1443v-914c0 -182 110 -298 303 -298s302 116 302 298v914h302v-945c0 -320 -235 -535 -604 -535s-605 215 -605 535v945h302zM384 1913h208c2 -95 71 -161 187 -161s185 66 187 161h208c0 -194 -148 -333 -395 -333s-395 139 -395 333z" />
    <glyph glyph-name="Uinvertedbreve" unicode="&#x216;" horiz-adv-x="1557" 
d="M476 1443v-914c0 -182 110 -298 303 -298s302 116 302 298v914h302v-945c0 -320 -235 -535 -604 -535s-605 215 -605 535v945h302zM1174 1580h-208c-2 95 -71 161 -187 161s-185 -66 -187 -161h-208c0 193 148 333 395 333s395 -140 395 -333z" />
    <glyph glyph-name="Utildeacute" unicode="&#x1e78;" horiz-adv-x="1557" 
d="M476 1443v-914c0 -182 110 -298 303 -298s302 116 302 298v914h302v-945c0 -320 -235 -535 -604 -535s-605 215 -605 535v945h302zM933 1579c-161 0 -188 121 -285 121c-50 0 -83 -35 -86 -110h-184c0 180 105 284 247 284c161 0 188 -120 285 -120c46 0 82 30 87 107
h183c0 -176 -105 -282 -247 -282zM683 1937l159 242h285l-190 -242h-254z" />
    <glyph glyph-name="Udotbelow" unicode="&#x1ee4;" horiz-adv-x="1557" 
d="M476 1443v-914c0 -182 110 -298 303 -298s302 116 302 298v914h302v-945c0 -320 -235 -535 -604 -535s-605 215 -605 535v945h302zM779 -452c-90 0 -165 74 -165 166c0 93 75 167 165 167c91 0 165 -74 165 -167c0 -92 -74 -166 -165 -166z" />
    <glyph glyph-name="Utilde" unicode="&#x168;" horiz-adv-x="1557" 
d="M476 1443v-914c0 -182 110 -298 303 -298s302 116 302 298v914h302v-945c0 -320 -235 -535 -604 -535s-605 215 -605 535v945h302zM927 1578c-162 0 -193 138 -278 138c-52 0 -77 -48 -77 -134h-181c0 201 100 319 246 319c162 0 191 -145 281 -145c54 0 77 54 77 140
h181c0 -198 -101 -318 -249 -318z" />
    <glyph glyph-name="Umacron" unicode="&#x16a;" horiz-adv-x="1557" 
d="M476 1443v-914c0 -182 110 -298 303 -298s302 116 302 298v914h302v-945c0 -320 -235 -535 -604 -535s-605 215 -605 535v945h302zM1142 1844v-181h-726v181h726z" />
    <glyph glyph-name="Umacrondieresis" unicode="&#x1e7a;" horiz-adv-x="1557" 
d="M476 1443v-914c0 -182 110 -298 303 -298s302 116 302 298v914h302v-945c0 -320 -235 -535 -604 -535s-605 215 -605 535v945h302zM1152 1611h-746v178h746v-178zM558 1895c-86 0 -147 64 -147 145c0 82 61 145 147 145c85 0 145 -63 145 -145c0 -81 -60 -145 -145 -145z
M1000 1895c-85 0 -145 64 -145 145c0 82 60 145 145 145c86 0 147 -63 147 -145c0 -81 -61 -145 -147 -145z" />
    <glyph glyph-name="Uring" unicode="&#x16e;" horiz-adv-x="1557" 
d="M476 1443v-914c0 -182 110 -298 303 -298s302 116 302 298v914h302v-945c0 -320 -235 -535 -604 -535s-605 215 -605 535v945h302zM779 1535c-115 0 -210 89 -210 206c0 116 95 206 210 206s210 -90 210 -206c0 -117 -95 -206 -210 -206zM779 1651c52 0 93 38 93 90
s-41 89 -93 89s-93 -37 -93 -89s41 -90 93 -90z" />
    <glyph glyph-name="Uogonek" unicode="&#x172;" horiz-adv-x="1557" 
d="M1081 1443h302v-945c0 -162 -60 -296 -167 -390h1c-120 -105 -236 -192 -236 -295c0 -50 35 -101 116 -101c20 0 44 2 73 9v-167c-46 -14 -94 -21 -139 -21c-165 0 -274 80 -274 209c0 82 44 162 124 227c-33 -4 -67 -6 -102 -6c-369 0 -605 215 -605 535v945h302v-914
c0 -182 110 -298 303 -298s302 116 302 298v914z" />
    <glyph glyph-name="Uhorn" unicode="&#x1af;" horiz-adv-x="1745" 
d="M779 -37c-365 0 -605 211 -605 535v945h302v-914c0 -186 115 -298 303 -298s302 111 302 298v914h313c53 0 80 26 80 76v184h231v-244c0 -140 -90 -216 -227 -216h-95v-745c0 -324 -239 -535 -604 -535z" />
    <glyph glyph-name="Uhorngrave" unicode="&#x1eea;" horiz-adv-x="1745" 
d="M779 -37c-365 0 -605 211 -605 535v945h302v-914c0 -186 115 -298 303 -298s302 111 302 298v914h313c53 0 80 26 80 76v184h231v-244c0 -140 -90 -216 -227 -216h-95v-745c0 -324 -239 -535 -604 -535zM667 1590l-253 325h298l172 -325h-217z" />
    <glyph glyph-name="Uhornacute" unicode="&#x1ee8;" horiz-adv-x="1745" 
d="M779 -37c-365 0 -605 211 -605 535v945h302v-914c0 -186 115 -298 303 -298s302 111 302 298v914h313c53 0 80 26 80 76v184h231v-244c0 -140 -90 -216 -227 -216h-95v-745c0 -324 -239 -535 -604 -535zM891 1590h-217l172 325h298z" />
    <glyph glyph-name="Uhorndotbelow" unicode="&#x1ef0;" horiz-adv-x="1745" 
d="M779 -37c-365 0 -605 211 -605 535v945h302v-914c0 -186 115 -298 303 -298s302 111 302 298v914h313c53 0 80 26 80 76v184h231v-244c0 -140 -90 -216 -227 -216h-95v-745c0 -324 -239 -535 -604 -535zM779 -452c-90 0 -165 74 -165 166c0 93 75 167 165 167
c91 0 165 -74 165 -167c0 -92 -74 -166 -165 -166z" />
    <glyph glyph-name="Uhornhookabove" unicode="&#x1eec;" horiz-adv-x="1745" 
d="M779 -37c-365 0 -605 211 -605 535v945h302v-914c0 -186 115 -298 303 -298s302 111 302 298v914h313c53 0 80 26 80 76v184h231v-244c0 -140 -90 -216 -227 -216h-95v-745c0 -324 -239 -535 -604 -535zM572 1826v154c35 12 91 25 155 25c148 0 250 -83 250 -210
c0 -111 -76 -201 -200 -248l-92 114c63 23 107 63 107 106c0 46 -43 78 -109 78c-43 0 -85 -8 -111 -19z" />
    <glyph glyph-name="Uhorntilde" unicode="&#x1eee;" horiz-adv-x="1745" 
d="M779 -37c-365 0 -605 211 -605 535v945h302v-914c0 -186 115 -298 303 -298s302 111 302 298v914h313c53 0 80 26 80 76v184h231v-244c0 -140 -90 -216 -227 -216h-95v-745c0 -324 -239 -535 -604 -535zM927 1578c-162 0 -193 138 -278 138c-52 0 -77 -48 -77 -134h-181
c0 201 100 319 246 319c162 0 191 -145 281 -145c54 0 77 54 77 140h181c0 -198 -101 -318 -249 -318z" />
    <glyph glyph-name="Uogonek.mini" horiz-adv-x="1557" 
d="M1081 1443h302v-945c0 -162 -60 -296 -167 -390h1c-130 -108 -229 -175 -229 -265c0 -53 37 -94 114 -94c24 0 51 4 74 11v-167c-46 -14 -93 -21 -139 -21c-164 0 -274 68 -274 198c0 76 38 142 108 198c-29 -3 -60 -5 -92 -5c-369 0 -605 215 -605 535v945h302v-914
c0 -182 110 -298 303 -298s302 116 302 298v914z" />
    <glyph glyph-name="U.mini" horiz-adv-x="1558" 
d="M476 1286v-757c0 -182 110 -298 303 -298s302 116 302 298v757h302v-788c0 -320 -235 -535 -604 -535s-605 215 -605 535v788h302z" />
    <glyph glyph-name="Udieresismacron.mini" horiz-adv-x="1558" 
d="M476 1286v-757c0 -182 110 -298 303 -298s302 116 302 298v757h302v-788c0 -320 -235 -535 -604 -535s-605 215 -605 535v788h302zM406 1764v178h746v-178h-746zM560 1398c-82 0 -141 55 -141 131c0 77 59 131 141 131s141 -54 141 -131c0 -76 -59 -131 -141 -131z
M998 1398c-82 0 -141 55 -141 131c0 77 59 131 141 131s141 -54 141 -131c0 -76 -59 -131 -141 -131z" />
    <glyph glyph-name="Udieresiscaron.mini" horiz-adv-x="1558" 
d="M476 1286v-757c0 -182 110 -298 303 -298s302 116 302 298v757h302v-788c0 -320 -235 -535 -604 -535s-605 215 -605 535v788h302zM560 1398c-82 0 -141 55 -141 131c0 77 59 131 141 131s141 -54 141 -131c0 -76 -59 -131 -141 -131zM998 1398c-82 0 -141 55 -141 131
c0 77 59 131 141 131s141 -54 141 -131c0 -76 -59 -131 -141 -131zM932 1715h-306l-278 235h291l130 -123h20l130 123h291z" />
    <glyph glyph-name="Udieresisacute.mini" horiz-adv-x="1558" 
d="M476 1286v-757c0 -182 110 -298 303 -298s302 116 302 298v757h302v-788c0 -320 -235 -535 -604 -535s-605 215 -605 535v788h302zM560 1398c-83 0 -143 56 -143 133s60 133 143 133s143 -56 143 -133s-60 -133 -143 -133zM998 1398c-83 0 -143 56 -143 133
s60 133 143 133s143 -56 143 -133s-60 -133 -143 -133zM643 1726l158 224h283l-189 -224h-252z" />
    <glyph glyph-name="Udieresisgrave.mini" horiz-adv-x="1558" 
d="M476 1286v-757c0 -182 110 -298 303 -298s302 116 302 298v757h302v-788c0 -320 -235 -535 -604 -535s-605 215 -605 535v788h302zM560 1398c-83 0 -143 56 -143 133s60 133 143 133s143 -56 143 -133s-60 -133 -143 -133zM998 1398c-83 0 -143 56 -143 133
s60 133 143 133s143 -56 143 -133s-60 -133 -143 -133zM915 1726h-252l-189 224h283z" />
    <glyph glyph-name="Utildeacute.mini" horiz-adv-x="1558" 
d="M476 1286v-757c0 -182 110 -298 303 -298s302 116 302 298v757h302v-788c0 -320 -235 -535 -604 -535s-605 215 -605 535v788h302zM672 1733l160 217h282l-189 -217h-253zM931 1399c-160 0 -197 115 -286 115c-53 0 -80 -37 -82 -96h-181c0 153 94 261 245 261
c160 0 197 -115 286 -115c48 0 79 29 82 96h181c0 -150 -94 -261 -245 -261z" />
    <glyph glyph-name="Umacrondieresis.mini" horiz-adv-x="1558" 
d="M476 1286v-757c0 -182 110 -298 303 -298s302 116 302 298v757h302v-788c0 -320 -235 -535 -604 -535s-605 215 -605 535v788h302zM406 1415v173h746v-173h-746zM560 1688c-82 0 -141 55 -141 131s59 131 141 131s141 -55 141 -131s-59 -131 -141 -131zM998 1688
c-82 0 -141 55 -141 131s59 131 141 131s141 -55 141 -131s-59 -131 -141 -131z" />
    <glyph glyph-name="V" unicode="V" horiz-adv-x="1477" 
d="M925 0h-365l-488 1443h341l328 -1103h18l322 1103h325z" />
    <glyph glyph-name="Vtilde" unicode="&#x1e7c;" horiz-adv-x="1477" 
d="M925 0h-365l-488 1443h341l328 -1103h18l322 1103h325zM891 1578c-162 0 -193 138 -278 138c-52 0 -77 -48 -77 -134h-181c0 201 100 319 246 319c162 0 191 -145 281 -145c54 0 77 54 77 140h181c0 -198 -101 -318 -249 -318z" />
    <glyph glyph-name="Vdotbelow" unicode="&#x1e7e;" horiz-adv-x="1477" 
d="M925 0h-365l-488 1443h341l328 -1103h18l322 1103h325zM743 -452c-90 0 -165 74 -165 166c0 93 75 167 165 167c91 0 165 -74 165 -167c0 -92 -74 -166 -165 -166z" />
    <glyph glyph-name="W" unicode="W" horiz-adv-x="2067" 
d="M1025 955l-270 -955h-285l-382 1443h314l225 -1017h16l263 1017h255l268 -1017h16l223 1017h312l-383 -1443h-283l-273 955h-16z" />
    <glyph glyph-name="Wgrave" unicode="&#x1e80;" horiz-adv-x="2067" 
d="M1025 955l-270 -955h-285l-382 1443h314l225 -1017h16l263 1017h255l268 -1017h16l223 1017h312l-383 -1443h-283l-273 955h-16zM922 1590l-253 325h298l172 -325h-217z" />
    <glyph glyph-name="Wacute" unicode="&#x1e82;" horiz-adv-x="2067" 
d="M1025 955l-270 -955h-285l-382 1443h314l225 -1017h16l263 1017h255l268 -1017h16l223 1017h312l-383 -1443h-283l-273 955h-16zM1146 1590h-217l172 325h298z" />
    <glyph glyph-name="Wdotaccent" unicode="&#x1e86;" horiz-adv-x="2067" 
d="M1025 955l-270 -955h-285l-382 1443h314l225 -1017h16l263 1017h255l268 -1017h16l223 1017h312l-383 -1443h-283l-273 955h-16zM1034 1594c-90 0 -165 73 -165 166s75 167 165 167c91 0 165 -74 165 -167s-74 -166 -165 -166z" />
    <glyph glyph-name="Wdotbelow" unicode="&#x1e88;" horiz-adv-x="2067" 
d="M1025 955l-270 -955h-285l-382 1443h314l225 -1017h16l263 1017h255l268 -1017h16l223 1017h312l-383 -1443h-283l-273 955h-16zM1034 -452c-90 0 -165 74 -165 166c0 93 75 167 165 167c91 0 165 -74 165 -167c0 -92 -74 -166 -165 -166z" />
    <glyph glyph-name="Wdieresis" unicode="&#x1e84;" horiz-adv-x="2067" 
d="M1025 955l-270 -955h-285l-382 1443h314l225 -1017h16l263 1017h255l268 -1017h16l223 1017h312l-383 -1443h-283l-273 955h-16zM793 1601c-85 0 -155 69 -155 156c0 88 70 157 155 157c86 0 156 -69 156 -157c0 -87 -70 -156 -156 -156zM1275 1601
c-86 0 -156 69 -156 156c0 88 70 157 156 157s155 -69 155 -157c0 -87 -69 -156 -155 -156z" />
    <glyph glyph-name="Wcircumflex" unicode="&#x174;" horiz-adv-x="2067" 
d="M1025 955l-270 -955h-285l-382 1443h314l225 -1017h16l263 1017h255l268 -1017h16l223 1017h312l-383 -1443h-283l-273 955h-16zM898 1915h272l284 -325h-265l-146 181h-18l-146 -181h-265z" />
    <glyph glyph-name="X" unicode="X" horiz-adv-x="1494" 
d="M88 0l461 727v0l-458 716h355l301 -505h18l304 505h338l-475 -721v0l468 -722h-344l-310 489h-18l-314 -489h-326z" />
    <glyph glyph-name="Xdotaccent" unicode="&#x1e8a;" horiz-adv-x="1494" 
d="M88 0l461 727v0l-458 716h355l301 -505h18l304 505h338l-475 -721v0l468 -722h-344l-310 489h-18l-314 -489h-326zM753 1594c-90 0 -165 73 -165 166s75 167 165 167c91 0 165 -74 165 -167s-74 -166 -165 -166z" />
    <glyph glyph-name="Xdieresis" unicode="&#x1e8c;" horiz-adv-x="1494" 
d="M88 0l461 727v0l-458 716h355l301 -505h18l304 505h338l-475 -721v0l468 -722h-344l-310 489h-18l-314 -489h-326zM512 1601c-85 0 -155 69 -155 156c0 88 70 157 155 157c86 0 156 -69 156 -157c0 -87 -70 -156 -156 -156zM994 1601c-86 0 -156 69 -156 156
c0 88 70 157 156 157s155 -69 155 -157c0 -87 -69 -156 -155 -156z" />
    <glyph glyph-name="Y" unicode="Y" horiz-adv-x="1451" 
d="M877 0h-302v531l-503 912h327l318 -604h18l317 604h327l-502 -912v-531z" />
    <glyph glyph-name="Ygrave" unicode="&#x1ef2;" horiz-adv-x="1451" 
d="M877 0h-302v531l-503 912h327l318 -604h18l317 604h327l-502 -912v-531zM614 1590l-253 325h298l172 -325h-217z" />
    <glyph glyph-name="Yacute" unicode="&#xdd;" horiz-adv-x="1451" 
d="M877 0h-302v531l-503 912h327l318 -604h18l317 604h327l-502 -912v-531zM838 1590h-217l172 325h298z" />
    <glyph glyph-name="Ydotaccent" unicode="&#x1e8e;" horiz-adv-x="1451" 
d="M877 0h-302v531l-503 912h327l318 -604h18l317 604h327l-502 -912v-531zM726 1594c-90 0 -165 73 -165 166s75 167 165 167c91 0 165 -74 165 -167s-74 -166 -165 -166z" />
    <glyph glyph-name="Ydotbelow" unicode="&#x1ef4;" horiz-adv-x="1451" 
d="M877 0h-302v531l-503 912h327l318 -604h18l317 604h327l-502 -912v-531zM726 -452c-90 0 -165 74 -165 166c0 93 75 167 165 167c91 0 165 -74 165 -167c0 -92 -74 -166 -165 -166z" />
    <glyph glyph-name="Ydieresis" unicode="&#x178;" horiz-adv-x="1451" 
d="M877 0h-302v531l-503 912h327l318 -604h18l317 604h327l-502 -912v-531zM485 1601c-85 0 -155 69 -155 156c0 88 70 157 155 157c86 0 156 -69 156 -157c0 -87 -70 -156 -156 -156zM967 1601c-86 0 -156 69 -156 156c0 88 70 157 156 157s155 -69 155 -157
c0 -87 -69 -156 -155 -156z" />
    <glyph glyph-name="Ytilde" unicode="&#x1ef8;" horiz-adv-x="1451" 
d="M877 0h-302v531l-503 912h327l318 -604h18l317 604h327l-502 -912v-531zM874 1578c-162 0 -193 138 -278 138c-52 0 -77 -48 -77 -134h-181c0 201 100 319 246 319c162 0 191 -145 281 -145c54 0 77 54 77 140h181c0 -198 -101 -318 -249 -318z" />
    <glyph glyph-name="Ycircumflex" unicode="&#x176;" horiz-adv-x="1451" 
d="M877 0h-302v531l-503 912h327l318 -604h18l317 604h327l-502 -912v-531zM590 1915h272l284 -325h-265l-146 181h-18l-146 -181h-265z" />
    <glyph glyph-name="Ymacron" unicode="&#x232;" horiz-adv-x="1451" 
d="M877 0h-302v531l-503 912h327l318 -604h18l317 604h327l-502 -912v-531zM1089 1844v-181h-726v181h726z" />
    <glyph glyph-name="Yhookabove" unicode="&#x1ef6;" horiz-adv-x="1451" 
d="M877 0h-302v531l-503 912h327l318 -604h18l317 604h327l-502 -912v-531zM519 1826v154c35 12 91 25 155 25c148 0 250 -83 250 -210c0 -111 -76 -201 -200 -248l-92 114c63 23 107 63 107 106c0 46 -43 78 -109 78c-43 0 -85 -8 -111 -19z" />
    <glyph glyph-name="Z" unicode="Z" horiz-adv-x="1384" 
d="M135 0v204l726 963v18h-709v258h1077v-203l-724 -964v-18h744v-258h-1114z" />
    <glyph glyph-name="Zacute" unicode="&#x179;" horiz-adv-x="1384" 
d="M135 0v204l726 963v18h-709v258h1077v-203l-724 -964v-18h744v-258h-1114zM804 1590h-217l172 325h298z" />
    <glyph glyph-name="Zcaron" unicode="&#x17d;" horiz-adv-x="1384" 
d="M135 0v204l726 963v18h-709v258h1077v-203l-724 -964v-18h744v-258h-1114zM828 1590h-272l-284 325h265l146 -180h18l146 180h265z" />
    <glyph glyph-name="Zcircumflex" unicode="&#x1e90;" horiz-adv-x="1384" 
d="M135 0v204l726 963v18h-709v258h1077v-203l-724 -964v-18h744v-258h-1114zM556 1915h272l284 -325h-265l-146 181h-18l-146 -181h-265z" />
    <glyph glyph-name="Zlinebelow" unicode="&#x1e94;" horiz-adv-x="1384" 
d="M135 0v204l726 963v18h-709v258h1077v-203l-724 -964v-18h744v-258h-1114zM1055 -195v-181h-726v181h726z" />
    <glyph glyph-name="Zdotbelow" unicode="&#x1e92;" horiz-adv-x="1384" 
d="M135 0v204l726 963v18h-709v258h1077v-203l-724 -964v-18h744v-258h-1114zM692 -452c-90 0 -165 74 -165 166c0 93 75 167 165 167c91 0 165 -74 165 -167c0 -92 -74 -166 -165 -166z" />
    <glyph glyph-name="Zdotaccent" unicode="&#x17b;" horiz-adv-x="1384" 
d="M135 0v204l726 963v18h-709v258h1077v-203l-724 -964v-18h744v-258h-1114zM692 1594c-90 0 -165 73 -165 166s75 167 165 167c91 0 165 -74 165 -167s-74 -166 -165 -166z" />
    <glyph glyph-name="AE" unicode="&#xc6;" horiz-adv-x="2059" 
d="M861 1202l-249 -604h378v604h-129zM990 0v364h-465l-154 -364h-299l595 1443h1250v-258h-651v-341h614v-239h-614v-347h651v-258h-927z" />
    <glyph glyph-name="AEmacron" unicode="&#x1e2;" horiz-adv-x="2059" 
d="M861 1202l-249 -604h378v604h-129zM990 0v364h-465l-154 -364h-299l595 1443h1250v-258h-651v-341h614v-239h-614v-347h651v-258h-927zM1652 1844v-181h-726v181h726z" />
    <glyph glyph-name="AEacute" unicode="&#x1fc;" horiz-adv-x="2059" 
d="M861 1202l-249 -604h378v604h-129zM990 0v364h-465l-154 -364h-299l595 1443h1250v-258h-651v-341h614v-239h-614v-347h651v-258h-927zM1401 1590h-217l172 325h298z" />
    <glyph glyph-name="OE" unicode="&#x152;" horiz-adv-x="2303" 
d="M811 1215c-239 0 -391 -192 -391 -493c0 -303 151 -494 391 -494c234 0 381 192 381 494s-147 493 -381 493zM1244 0v232h-18c-73 -161 -259 -269 -465 -269c-407 0 -650 283 -650 759s243 758 650 758c203 0 396 -109 465 -262h18v225h916v-258h-663v-337h626v-239h-626
v-351h663v-258h-916z" />
    <glyph glyph-name="Eth" unicode="&#xd0;" horiz-adv-x="1531" 
d="M477 258h218c267 0 417 164 417 469c0 292 -155 458 -417 458h-218v-339h258v-228h-258v-360zM175 1443h568c429 0 677 -259 677 -711c0 -469 -245 -732 -677 -732h-568v618h-125v228h125v597z" />
    <glyph glyph-name="Thorn" unicode="&#xde;" horiz-adv-x="1378" 
d="M175 1443h304v-232h307c272 0 475 -173 475 -462c0 -286 -210 -461 -490 -461h-294v-288h-302v1443zM477 963v-430h226c153 0 251 73 251 216c0 142 -98 214 -250 214h-227z" />
    <glyph glyph-name="Alphagreek" unicode="&#x391;" horiz-adv-x="1500" 
d="M1102 0l-109 344h-507l-111 -344h-303l501 1443h355l501 -1443h-327zM732 1143l-181 -566h378l-179 566h-18z" />
    <glyph glyph-name="Betagreek" unicode="&#x392;" horiz-adv-x="1420" 
d="M823 0h-648v1443h631c280 0 447 -137 447 -360c0 -153 -113 -286 -261 -308v-18c191 -14 330 -158 330 -344c0 -253 -191 -413 -499 -413zM477 1212v-367h227c163 0 252 67 252 183c0 115 -83 184 -227 184h-252zM477 231h269c174 0 268 73 268 208
c0 132 -97 202 -275 202h-262v-410z" />
    <glyph glyph-name="Gammagreek" unicode="&#x393;" horiz-adv-x="1204" 
d="M477 0h-302v1443h925v-258h-623v-1185z" />
    <glyph glyph-name="Deltagreek" unicode="&#x2206;" horiz-adv-x="1506" 
d="M1393 0h-1279v177l462 1266h355l462 -1266v-177zM430 276v-18h625v18l-302 877h-18z" />
    <glyph glyph-name="Deltagreek" unicode="&#x394;" horiz-adv-x="1506" 
d="M1393 0h-1279v177l462 1266h355l462 -1266v-177zM430 276v-18h625v18l-302 877h-18z" />
    <glyph glyph-name="Epsilongreek" unicode="&#x395;" horiz-adv-x="1274" 
d="M1131 258v-258h-956v1443h956v-258h-654v-337h617v-239h-617v-351h654z" />
    <glyph glyph-name="Zetagreek" unicode="&#x396;" horiz-adv-x="1384" 
d="M135 0v204l726 963v18h-709v258h1077v-203l-724 -964v-18h744v-258h-1114z" />
    <glyph glyph-name="Etagreek" unicode="&#x397;" horiz-adv-x="1604" 
d="M1429 0h-302v603h-650v-603h-302v1443h302v-582h650v582h302v-1443z" />
    <glyph glyph-name="Thetagreek" unicode="&#x398;" horiz-adv-x="1670" 
d="M1090 591h-511v252h511v-252zM836 1480c452 0 723 -274 723 -758c0 -479 -273 -759 -723 -759c-451 0 -725 279 -725 759c0 484 274 758 725 758zM836 1220c-254 0 -414 -181 -414 -498c0 -316 157 -499 414 -499c255 0 413 183 413 499c0 317 -159 498 -413 498z" />
    <glyph glyph-name="Iotagreek" unicode="&#x399;" horiz-adv-x="652" 
d="M477 0h-302v1443h302v-1443z" />
    <glyph glyph-name="Iotagreek.1" horiz-adv-x="1076" 
d="M116 0v248h271v948h-271v247h844v-247h-271v-948h271v-248h-844z" />
    <glyph glyph-name="Kappagreek" unicode="&#x39a;" horiz-adv-x="1453" 
d="M477 0h-302v1443h302v-643h18l533 643h336l-526 -633l563 -810h-362l-419 604l-143 -169v-435z" />
    <glyph glyph-name="Lambdagreek" unicode="&#x39b;" horiz-adv-x="1474" 
d="M1064 0l-325 1128h-18l-334 -1128h-308l481 1443h355l481 -1443h-332z" />
    <glyph glyph-name="Mugreek" unicode="&#x39c;" horiz-adv-x="1878" 
d="M1703 0h-280v965h-16l-367 -887h-201l-368 887h-16v-965h-280v1443h356l399 -974h18l400 974h355v-1443z" />
    <glyph glyph-name="Nugreek" unicode="&#x39d;" horiz-adv-x="1573" 
d="M464 0h-289v1443h252l664 -899h18v899h289v-1443h-250l-666 903h-18v-903z" />
    <glyph glyph-name="Xigreek" unicode="&#x39e;" horiz-adv-x="1373" 
d="M143 1443h1087v-265h-1087v265zM1143 604h-913v246h913v-246zM143 265h1087v-265h-1087v265z" />
    <glyph glyph-name="Omicrongreek" unicode="&#x39f;" horiz-adv-x="1611" 
d="M806 1480c425 0 694 -291 694 -758c0 -468 -268 -759 -694 -759c-429 0 -695 291 -695 759s270 758 695 758zM806 1215c-235 0 -386 -191 -386 -493c0 -301 148 -494 386 -494c235 0 385 193 385 494c0 302 -151 493 -385 493z" />
    <glyph glyph-name="Pigreek" unicode="&#x3a0;" horiz-adv-x="1584" 
d="M1409 0h-302v1185h-630v-1185h-302v1443h1234v-1443z" />
    <glyph glyph-name="Rhogreek" unicode="&#x3a1;" horiz-adv-x="1380" 
d="M175 1443h602c297 0 500 -199 500 -499c0 -297 -211 -496 -515 -496h-285v-448h-302v1443zM477 1195v-502h219c173 0 274 88 274 250c0 164 -99 252 -273 252h-220z" />
    <glyph glyph-name="Sigmagreek" unicode="&#x3a3;" horiz-adv-x="1364" 
d="M516 276v-18h713v-258h-1094v191l377 532l-356 495v225h1052v-258h-669v-18l292 -415v-36z" />
    <glyph glyph-name="Taugreek" unicode="&#x3a4;" horiz-adv-x="1352" 
d="M827 0h-302v1185h-433v258h1168v-258h-433v-1185z" />
    <glyph glyph-name="Upsilongreek" unicode="&#x3a5;" horiz-adv-x="1451" 
d="M877 0h-302v531l-503 912h327l318 -604h18l317 604h327l-502 -912v-531z" />
    <glyph glyph-name="Phigreek" unicode="&#x3a6;" horiz-adv-x="1865" 
d="M1468 714c0 256 -155 406 -397 425v-851c242 20 397 169 397 426zM398 714c0 -258 154 -406 396 -426v851c-242 -19 -396 -168 -396 -425zM1071 -110h-277v151c-410 20 -693 284 -693 673s283 652 693 672v153h277v-153c411 -20 693 -283 693 -672s-282 -653 -693 -673
v-151z" />
    <glyph glyph-name="Chigreek" unicode="&#x3a7;" horiz-adv-x="1494" 
d="M88 0l461 727v0l-458 716h355l301 -505h18l304 505h338l-475 -721v0l468 -722h-344l-310 489h-18l-314 -489h-326z" />
    <glyph glyph-name="Psigreek" unicode="&#x3a8;" horiz-adv-x="1779" 
d="M1033 0h-287v306c-368 7 -598 236 -598 598v539h287v-543c0 -211 107 -326 311 -341v884h287v-884c205 15 312 130 312 341v543h287v-539c0 -362 -230 -591 -599 -598v-306z" />
    <glyph glyph-name="Omegagreek" unicode="&#x2126;" horiz-adv-x="1626" 
d="M1208 787c0 263 -152 428 -395 428c-242 0 -395 -165 -395 -428c0 -215 88 -366 274 -473v-314h-577v247h282v18c-176 104 -282 310 -282 546c0 396 284 669 698 669s699 -273 699 -669c0 -236 -106 -442 -282 -546v-18h282v-247h-577v314c186 107 273 258 273 473z" />
    <glyph glyph-name="Omegagreek" unicode="&#x3a9;" horiz-adv-x="1626" 
d="M1208 787c0 263 -152 428 -395 428c-242 0 -395 -165 -395 -428c0 -215 88 -366 274 -473v-314h-577v247h282v18c-176 104 -282 310 -282 546c0 396 284 669 698 669s699 -273 699 -669c0 -236 -106 -442 -282 -546v-18h282v-247h-577v314c186 107 273 258 273 473z" />
    <glyph glyph-name="Alphatonosgreek" unicode="&#x386;" horiz-adv-x="1534" 
d="M1136 0l-109 344h-507l-111 -344h-303l501 1443h355l501 -1443h-327zM766 1143l-181 -566h378l-179 566h-18zM284 1089h-204l91 354h253z" />
    <glyph glyph-name="Epsilontonosgreek" unicode="&#x388;" horiz-adv-x="1673" 
d="M279 1089h-204l91 354h253zM1530 258v-258h-956v1443h956v-258h-654v-337h617v-239h-617v-351h654z" />
    <glyph glyph-name="Etatonosgreek" unicode="&#x389;" horiz-adv-x="2003" 
d="M279 1089h-204l91 354h253zM1828 0h-302v603h-650v-603h-302v1443h302v-582h650v582h302v-1443z" />
    <glyph glyph-name="Iotatonosgreek" unicode="&#x38a;" horiz-adv-x="1051" 
d="M279 1089h-204l91 354h253zM876 0h-302v1443h302v-1443z" />
    <glyph glyph-name="Iotadieresisgreek" unicode="&#x3aa;" horiz-adv-x="652" 
d="M477 0h-302v1443h302v-1443zM85 1601c-85 0 -155 69 -155 156c0 88 70 157 155 157c86 0 156 -69 156 -157c0 -87 -70 -156 -156 -156zM567 1601c-86 0 -156 69 -156 156c0 88 70 157 156 157s155 -69 155 -157c0 -87 -69 -156 -155 -156z" />
    <glyph glyph-name="Iotatonosgreek.1" horiz-adv-x="1517" 
d="M279 1089h-204l91 354h253zM557 0v248h271v948h-271v247h844v-247h-271v-948h271v-248h-844z" />
    <glyph glyph-name="Iotadieresisgreek.1" horiz-adv-x="1076" 
d="M116 0v248h271v948h-271v247h844v-247h-271v-948h271v-248h-844zM297 1601c-85 0 -155 69 -155 156c0 88 70 157 155 157c86 0 156 -69 156 -157c0 -87 -70 -156 -156 -156zM779 1601c-86 0 -156 69 -156 156c0 88 70 157 156 157s155 -69 155 -157
c0 -87 -69 -156 -155 -156z" />
    <glyph glyph-name="Omicrontonosgreek" unicode="&#x38c;" horiz-adv-x="1894" 
d="M279 1089h-204l91 354h253zM1089 1480c425 0 694 -291 694 -758c0 -468 -268 -759 -694 -759c-429 0 -695 291 -695 759s270 758 695 758zM1089 1215c-235 0 -386 -191 -386 -493c0 -301 148 -494 386 -494c235 0 385 193 385 494c0 302 -151 493 -385 493z" />
    <glyph glyph-name="Upsilontonosgreek" unicode="&#x38e;" horiz-adv-x="1870" 
d="M279 1089h-204l91 354h253zM1296 0h-302v531l-503 912h327l318 -604h18l317 604h327l-502 -912v-531z" />
    <glyph glyph-name="Upsilondieresisgreek" unicode="&#x3ab;" horiz-adv-x="1451" 
d="M877 0h-302v531l-503 912h327l318 -604h18l317 604h327l-502 -912v-531zM485 1601c-85 0 -155 69 -155 156c0 88 70 157 155 157c86 0 156 -69 156 -157c0 -87 -70 -156 -156 -156zM967 1601c-86 0 -156 69 -156 156c0 88 70 157 156 157s155 -69 155 -157
c0 -87 -69 -156 -155 -156z" />
    <glyph glyph-name="Omegatonosgreek" unicode="&#x38f;" horiz-adv-x="1916" 
d="M279 1089h-204l91 354h253zM1498 787c0 263 -152 428 -395 428c-242 0 -395 -165 -395 -428c0 -215 88 -366 274 -473v-314h-577v247h282v18c-176 104 -282 310 -282 546c0 396 284 669 698 669s699 -273 699 -669c0 -236 -106 -442 -282 -546v-18h282v-247h-577v314
c186 107 273 258 273 473z" />
    <glyph glyph-name="Acyrillic" unicode="&#x410;" horiz-adv-x="1520" 
d="M1112 0l-109 344h-507l-111 -344h-303l501 1443h355l501 -1443h-327zM742 1143l-181 -566h378l-179 566h-18z" />
    <glyph glyph-name="uni04D0" unicode="&#x4d0;" horiz-adv-x="1520" 
d="M1112 0l-109 344h-507l-111 -344h-303l501 1443h355l501 -1443h-327zM742 1143l-181 -566h378l-179 566h-18zM382 1915h218c3 -97 69 -157 160 -157c92 0 157 60 160 157h218c0 -197 -150 -322 -378 -322s-378 125 -378 322z" />
    <glyph glyph-name="uni04D2" unicode="&#x4d2;" horiz-adv-x="1520" 
d="M1112 0l-109 344h-507l-111 -344h-303l501 1443h355l501 -1443h-327zM742 1143l-181 -566h378l-179 566h-18zM519 1601c-85 0 -155 69 -155 156c0 88 70 157 155 157c86 0 156 -69 156 -157c0 -87 -70 -156 -156 -156zM1001 1601c-86 0 -156 69 -156 156
c0 88 70 157 156 157s155 -69 155 -157c0 -87 -69 -156 -155 -156z" />
    <glyph glyph-name="uniF50E" horiz-adv-x="1520" 
d="M1112 0l-109 344h-507l-111 -344h-303l501 1443h355l501 -1443h-327zM742 1143l-181 -566h378l-179 566h-18zM1123 1844v-181h-726v181h726z" />
    <glyph glyph-name="uniF460" horiz-adv-x="1520" 
d="M1112 0l-109 344h-507l-111 -344h-303l501 1443h355l501 -1443h-327zM742 1143l-181 -566h378l-179 566h-18zM872 1590h-217l172 325h298z" />
    <glyph glyph-name="Becyrillic" unicode="&#x411;" horiz-adv-x="1392" 
d="M1277 457c0 -275 -204 -457 -500 -457h-592v1443h959v-258h-657v-281h280c301 0 510 -179 510 -447zM487 249h215c168 0 266 73 266 208c0 137 -98 210 -267 210h-214v-418z" />
    <glyph glyph-name="Vecyrillic" unicode="&#x412;" horiz-adv-x="1440" 
d="M833 0h-648v1443h631c280 0 447 -137 447 -360c0 -153 -113 -286 -261 -308v-18c191 -14 330 -158 330 -344c0 -253 -191 -413 -499 -413zM487 1212v-367h227c163 0 252 67 252 183c0 115 -83 184 -227 184h-252zM487 231h269c174 0 268 73 268 208
c0 132 -97 202 -275 202h-262v-410z" />
    <glyph glyph-name="Gecyrillic" unicode="&#x413;" horiz-adv-x="1225" 
d="M487 0h-302v1443h930v-259h-628v-1184z" />
    <glyph glyph-name="Gjecyrillic" unicode="&#x403;" horiz-adv-x="1225" 
d="M487 0h-302v1443h930v-259h-628v-1184zM762 1590h-217l172 325h298z" />
    <glyph glyph-name="Geupturncyrillic" unicode="&#x490;" horiz-adv-x="1225" 
d="M488 1184v-1184h-303v1443h657v285h273v-544h-627z" />
    <glyph glyph-name="uni04F6" unicode="&#x4f6;" horiz-adv-x="1225" 
d="M1115 1184h-628v-926h181v-543h-274v285h-209v258v1185h930v-259z" />
    <glyph glyph-name="uni0492" unicode="&#x492;" horiz-adv-x="1225" 
d="M1115 1184h-628v-364h476v-228h-476v-592h-302v592h-106v228h106v623h930v-259z" />
    <glyph glyph-name="uniF53C" horiz-adv-x="1244" 
d="M487 0h-302v1443h945v-258h-643v-376h587v-247h-587v-562z" />
    <glyph glyph-name="uni04FA" unicode="&#x4fa;" horiz-adv-x="1225" 
d="M1115 1184h-628v-364h494v-228h-494v-592v-29c0 -241 -137 -356 -402 -356c-20 0 -65 1 -77 3v226c6 -2 28 -2 36 -2c103 0 141 36 141 127v31v592h-106v228h106v623h930v-259z" />
    </font>
</defs>
</svg>
